<?xml version="1.0" standalone="no"?>
<!DOCTYPE svg PUBLIC "-//W3C//DTD SVG 1.1//EN" "http://www.w3.org/Graphics/SVG/1.1/DTD/svg11.dtd" >
<svg xmlns="http://www.w3.org/2000/svg" xmlns:xlink="http://www.w3.org/1999/xlink" version="1.1">
<metadata>
Created by FontForge 20161013 at Mon Sep 26 18:30:21 2011
 By ,,,
Font software Copyright 1991 Adobe Systems Incorporated. Typeface designs Copyright 1991 The Monotype Corporation. All rights reserved.
</metadata>
<defs>
<font id="ArialW01-RoundedLight" horiz-adv-x="552" >
  <font-face 
    font-family="ArialW01-RoundedLight"
    font-weight="300"
    font-stretch="normal"
    units-per-em="1000"
    panose-1="2 15 3 2 2 1 2 2 2 4"
    ascent="758"
    descent="-242"
    x-height="518"
    cap-height="728"
    bbox="-37 -213 1208 929"
    underline-thickness="50"
    underline-position="-150"
    unicode-range="U+000D-2122"
  />
<missing-glyph horiz-adv-x="0" 
 />
    <glyph glyph-name=".notdef" horiz-adv-x="0" 
 />
    <glyph glyph-name=".null" horiz-adv-x="0" 
 />
    <glyph glyph-name="uni000D" unicode="&#xd;" horiz-adv-x="0" 
 />
    <glyph glyph-name="space" unicode=" " horiz-adv-x="276" 
 />
    <glyph glyph-name="exclam" unicode="!" horiz-adv-x="333" 
d="M129 666q0 10 0.5 21t4 20t11 15t21.5 6t21.5 -5.5t11 -14.5t4 -20t0.5 -22v-111l-15 -323q-1 -24 -4 -38t-18 -14t-18 15t-4 37l-15 323v111zM212 33q0 -19 -13.5 -32t-32.5 -13q-18 0 -31.5 13t-13.5 32t13.5 32.5t31.5 13.5q19 0 32.5 -13.5t13.5 -32.5z" />
    <glyph glyph-name="quotedbl" unicode="&#x22;" horiz-adv-x="281" 
d="M242 716v-117l-13 -131h-44l-15 131v117h72zM111 716v-117l-13 -131h-44l-15 131v117h72z" />
    <glyph glyph-name="numbersign" unicode="#" 
d="M403 494l34 160q4 19 10 31.5t20 12.5q11 0 14.5 -8t3.5 -13t-1.5 -12.5l-4.5 -22.5l-32 -148h35q21 0 34 -2.5t13 -19.5t-12 -20t-35 -3h-44l-40 -194h84q22 0 34.5 -2.5t12.5 -19.5t-12.5 -20t-34.5 -3h-94l-34 -159q-4 -17 -10 -30.5t-20 -13.5q-11 0 -14.5 8t-3.5 13
v5t0.5 5.5t2 9t3.5 15.5l32 147h-192l-34 -159q-4 -16 -8.5 -30t-21.5 -14q-11 0 -14.5 8t-3.5 13v5t0.5 5.5t2 9t3.5 15.5l32 147h-38q-21 0 -34 2.5t-13 19.5t12.5 20t34.5 3h47l39 194h-86q-23 0 -35 2.5t-12 19.5t12.5 20t34.5 3h95l34 163q3 15 8 28.5t20 13.5
q12 0 15.5 -9.5t3.5 -16.5t-1 -12t-3 -16l-31 -151h192zM201 449l-39 -194h192l40 194h-193z" />
    <glyph glyph-name="dollar" unicode="$" 
d="M297 395q35 -11 71.5 -24t66 -34.5t48.5 -55.5t19 -85q0 -62 -28.5 -108t-67.5 -69q-31 -18 -60 -23t-49 -7v-133q0 -18 -2.5 -29t-18.5 -11q-17 0 -20 14.5t-3 40.5v117q-57 2 -97.5 23.5t-66 51t-37 62t-11.5 56.5q0 15 10 22.5t21 7.5q17 0 23 -11t8 -19q6 -24 17 -48
t28 -44t43 -34t62 -17v307q-59 16 -97.5 32.5t-61.5 44.5q-25 30 -32 62t-7 53q0 30 7 55t18.5 44.5t26 33.5t29.5 23q35 21 66 27t51 8v53q0 11 4.5 23t18.5 12q8 0 12 -4.5t6 -10.5t2.5 -11.5t0.5 -8.5v-53q23 -2 56 -10t63 -36q18 -17 30 -35t19 -33t10 -26.5t3 -16.5
q0 -12 -8.5 -21t-21.5 -9q-17 0 -23 10t-8 18q-5 15 -13 32t-21.5 32t-34 26t-51.5 15v-279zM253 675q-48 -4 -76 -21.5t-42 -39.5t-17.5 -43.5t-3.5 -31.5q0 -36 13.5 -58.5t33.5 -37t44.5 -22.5t47.5 -14v268zM297 37q55 8 84.5 31t43 48t16 46.5t2.5 27.5q0 37 -12.5 61
t-33.5 39.5t-47 25t-53 17.5v-296z" />
    <glyph glyph-name="percent" unicode="%" horiz-adv-x="885" 
d="M823 163q0 -16 -2 -36t-7 -41t-15 -41t-26 -35q-18 -17 -43 -26.5t-54 -9.5q-25 0 -51 9.5t-47 31t-34.5 56.5t-13.5 87q0 54 13.5 91t34.5 59.5t47 32t51 9.5q27 0 53.5 -10t47 -32t33.5 -57.5t13 -87.5zM769 162q0 25 -3.5 51t-13.5 46t-27.5 33t-45.5 13
q-29 0 -47.5 -12.5t-29 -32.5t-14.5 -45.5t-4 -50.5q0 -22 3 -47.5t13 -47t28.5 -36t49.5 -14.5q32 0 50.5 16t27.5 38.5t11 47t2 41.5zM355 541q0 -16 -2 -36t-7 -41t-15 -41t-26 -35q-18 -17 -43 -26.5t-54 -9.5q-25 0 -51 9.5t-47 31t-34.5 56.5t-13.5 87q0 54 13.5 91
t34.5 59.5t47 32t51 9.5q27 0 53.5 -10t47 -32t33.5 -57.5t13 -87.5zM301 540q0 25 -3.5 51t-13.5 46t-27.5 33t-45.5 13q-29 0 -47.5 -12.5t-29 -32.5t-14.5 -45.5t-4 -50.5q0 -22 3 -47.5t13 -47t28.5 -36t49.5 -14.5q32 0 50.5 16t27.5 38.5t11 47t2 41.5zM266 -13
q-7 -13 -11.5 -18.5t-14.5 -5.5q-11 0 -16.5 7t-5.5 13t2.5 11l7.5 15l391 706q7 13 11.5 18.5t14.5 5.5q11 0 17 -7.5t6 -13.5q0 -8 -10 -25z" />
    <glyph glyph-name="ampersand" unicode="&#x26;" horiz-adv-x="667" 
d="M520 157q18 -20 29.5 -32.5t21.5 -22.5t21 -20t29 -26q8 -7 11 -14t3 -13q0 -18 -12.5 -26.5t-20.5 -8.5q-6 0 -11.5 1.5t-12.5 7t-16.5 14.5t-24.5 24l-20.5 20.5t-13 13.5t-10.5 11t-11 13q-12 -16 -28 -35t-39.5 -36t-55.5 -28.5t-75 -11.5q-54 0 -96.5 18.5t-71.5 48
t-44.5 67t-15.5 75.5q0 43 15.5 75t39.5 56.5t54 43.5t59 35q-27 34 -42.5 59.5t-23.5 44t-10.5 31.5t-2.5 24q0 28 10.5 56.5t31.5 52t51.5 38.5t71.5 15q42 0 72.5 -14.5t50 -37.5t28.5 -51t9 -54q0 -29 -12.5 -54.5t-33.5 -47t-49 -40t-59 -34.5q30 -38 50 -62t36 -43
t32.5 -38t40.5 -46q6 11 15.5 30t25.5 60q9 23 15.5 33t21.5 10q14 0 23 -9.5t9 -21.5q0 -8 -6 -25t-15 -38.5t-20.5 -44.5t-23.5 -43zM257 362q-27 -15 -51.5 -30.5t-43 -33.5t-29.5 -40t-11 -50q0 -30 11.5 -59t32.5 -52.5t50 -38t63 -14.5t60.5 12t46 28.5t32.5 33.5
t20 27q-8 9 -30.5 34.5t-50 58t-55 66t-45.5 58.5zM281 440q24 12 46.5 25.5t40 29.5t28 35.5t10.5 43.5q0 42 -28 70t-67 28q-21 0 -40 -8t-32.5 -21t-21.5 -31t-8 -37q0 -21 9.5 -41t18.5 -33q2 -3 7.5 -11t12.5 -17t13.5 -18t10.5 -15z" />
    <glyph glyph-name="quotesingle" unicode="'" horiz-adv-x="219" 
d="M146 716v-117l-13 -131h-44l-15 131v117h72z" />
    <glyph glyph-name="parenleft" unicode="(" horiz-adv-x="333" 
d="M76 259q0 36 4.5 81t20 100t46 121t82.5 143q8 13 15.5 18.5t24.5 5.5q5 0 9 -2t4 -7q0 -2 -1.5 -4.5l-7.5 -12.5q-28 -45 -52 -99t-42 -112t-28.5 -117.5t-10.5 -114.5q0 -54 10 -112.5t27.5 -116.5t42 -113t53.5 -101l7.5 -12.5t1.5 -4.5t-1.5 -5.5t-12.5 -3.5
q-17 0 -24 6.5t-15 17.5q-53 79 -83.5 145.5t-46 122t-19.5 100t-4 77.5z" />
    <glyph glyph-name="parenright" unicode=")" horiz-adv-x="333" 
d="M257 259q0 -36 -4.5 -81t-20.5 -100t-46 -121t-82 -143q-8 -13 -15.5 -18.5t-24.5 -5.5q-5 0 -9 2t-4 7q0 2 1.5 4.5l7.5 12.5q27 45 51.5 99t42.5 112t28.5 117t10.5 115q0 54 -10 112.5t-27.5 116.5t-42 113t-53.5 101l-7.5 12.5t-1.5 4.5t1.5 5.5t12.5 3.5
q17 0 24 -6.5t15 -17.5q52 -79 82.5 -145.5t46.5 -122t20 -100t4 -77.5z" />
    <glyph glyph-name="asterisk" unicode="*" horiz-adv-x="385" 
d="M211 595q34 15 54.5 24.5t32.5 14.5t18 6.5t11 1.5q10 0 17.5 -7.5t7.5 -18.5t-7 -17t-18 -9q-21 -6 -33.5 -9.5t-22.5 -6t-20.5 -5t-26.5 -6.5q5 -5 17.5 -21.5t23.5 -28.5q14 -15 22 -24t12 -15t5 -10t1 -7q0 -8 -7 -16.5t-20 -8.5q-4 0 -10 2t-14 14
q-13 18 -20.5 29.5t-13.5 20.5t-12 19l-15 25q-4 -6 -12.5 -20t-17.5 -29.5t-17.5 -29t-11.5 -18.5q-9 -13 -22 -13q-15 0 -21 10t-6 15q0 7 9 21.5t22 30t26.5 30.5t21.5 24q-40 9 -62.5 14.5t-33.5 8.5t-15 4.5t-7 3.5q-8 5 -10 11.5t-2 10.5q0 12 8 19t16 7q6 0 22 -6
t34 -13.5t35 -15.5t26 -12q0 7 -1.5 24t-3 35.5t-3 35t-1.5 22.5q0 16 9 22t17 6q5 0 16 -4.5t11 -24.5q0 -3 -1.5 -34.5t-6.5 -81.5z" />
    <glyph glyph-name="plus" unicode="+" horiz-adv-x="656" 
d="M351 613v-239h239v-45h-239v-239h-45v239h-239v45h239v239h45z" />
    <glyph glyph-name="comma" unicode="," horiz-adv-x="281" 
d="M139 -12q-17 2 -26 8t-13.5 13.5t-5.5 14.5t-1 10q0 19 13.5 32.5t32.5 13.5t29 -9t14.5 -20.5t5.5 -23t1 -15.5q0 -26 -5.5 -48.5t-14 -40t-19 -27.5t-19.5 -10t-15 6t-6 14q0 5 2.5 8.5t11.5 17.5q3 5 9.5 20t5.5 36z" />
    <glyph glyph-name="hyphen" unicode="-" horiz-adv-x="333" 
d="M257 281q9 0 18.5 -0.5t17 -3.5t12.5 -9t5 -18t-5 -18.5t-12.5 -9.5t-17 -3.5t-18.5 -0.5h-181q-9 0 -18.5 0.5t-17 3.5t-12.5 9t-5 18t5 18.5t12.5 9.5t17 3.5t18.5 0.5h181z" />
    <glyph glyph-name="period" unicode="." horiz-adv-x="281" 
d="M186 33q0 -19 -13.5 -32t-32.5 -13q-18 0 -31.5 13t-13.5 32t13.5 32.5t31.5 13.5q19 0 32.5 -13.5t13.5 -32.5z" />
    <glyph glyph-name="slash" unicode="/" horiz-adv-x="281" 
d="M59 21q-5 -17 -10.5 -28t-19.5 -11q-11 0 -15.5 8.5t-4.5 13.5q0 6 2 12.5t5 18.5l206 654q5 18 10.5 28.5t19.5 10.5q11 0 15.5 -8t4.5 -14t-1.5 -11t-5.5 -19z" />
    <glyph glyph-name="zero" unicode="0" 
d="M502 350q0 -10 -0.5 -40t-4.5 -68t-13 -78t-25 -70q-21 -39 -48.5 -60.5t-53.5 -31.5t-48 -12t-32 -2q-50 0 -86.5 15.5t-62 42t-41 61.5t-24 74t-11.5 79t-3 77q0 75 5.5 125.5t15 85t22 56t25.5 38.5q19 24 39.5 39t41 22.5t40.5 10t38 2.5q13 0 32 -1.5t40.5 -8.5
t43.5 -21.5t41 -39.5q14 -18 26.5 -40t22 -55.5t15 -81.5t5.5 -118zM438 350q0 64 -6.5 121.5t-24 101t-49 68.5t-82.5 25q-59 0 -91.5 -31.5t-48.5 -78.5t-19.5 -103.5t-3.5 -105.5q0 -54 3 -91t8 -64t12 -46t16 -36q12 -24 28 -38.5t32.5 -22t33.5 -9.5t32 -2q52 0 84 28
t48.5 72.5t22 100t5.5 111.5z" />
    <glyph glyph-name="one" unicode="1" 
d="M355 38q0 -17 -4 -33.5t-26 -16.5q-12 0 -18 4.5t-9 12t-3.5 16t-0.5 17.5v560q-65 -58 -108 -82.5t-59 -24.5q-11 0 -18 7t-7 18t6 16t29 18q43 23 71 43.5t46.5 39.5t30 35.5t22.5 32.5q2 4 7 9t15 5q19 0 22.5 -18.5t3.5 -37.5v-621z" />
    <glyph glyph-name="two" unicode="2" 
d="M449 59q23 0 42.5 -4t19.5 -25q0 -11 -3.5 -17t-9.5 -9t-13.5 -3.5t-14.5 -0.5h-381q-5 0 -13 0.5t-15 3.5t-12 9.5t-5 18.5q0 11 6.5 29.5t22 43t42 54t66.5 61.5q56 45 91.5 74t58.5 48.5t37.5 33.5t27.5 30q11 13 25.5 40.5t14.5 68.5q0 36 -13 64t-34.5 46.5
t-49 28.5t-57.5 10q-23 0 -47 -6t-46 -19t-39 -33.5t-25 -48.5q-9 -32 -14.5 -44t-21.5 -12q-11 0 -19 6.5t-8 21.5q0 21 11 52.5t37 61t68.5 50.5t105.5 21q49 0 84.5 -12.5t59.5 -32.5t38.5 -43.5t21.5 -46t9.5 -40t2.5 -25.5q0 -38 -13.5 -71.5t-36.5 -64t-54 -58
t-66 -54.5q-21 -16 -46 -35t-49.5 -39t-47 -40.5t-38.5 -39.5q-13 -14 -21 -28t-13 -25h334z" />
    <glyph glyph-name="three" unicode="3" 
d="M367 385q16 -5 39.5 -13.5t45.5 -27.5t37.5 -51t15.5 -82q0 -25 -8 -63t-32.5 -73.5t-70 -61t-120.5 -25.5q-34 0 -60 5t-46.5 14.5t-36.5 22.5t-29 28q-14 16 -23.5 33.5t-15 33.5t-8 28t-2.5 18q0 17 11.5 22t17.5 5q15 0 21 -11t8 -20q8 -31 25 -55.5t34 -39.5
q14 -13 39.5 -23.5t60.5 -10.5q39 0 71 14.5t54 38.5t34 54.5t12 63.5q0 16 -5.5 41t-22.5 48.5t-47.5 40.5t-80.5 17q-3 0 -10 -0.5t-15 -0.5q-8 -1 -15 -1.5t-10 -0.5q-13 0 -19.5 8t-6.5 13q0 22 12.5 26t38.5 5q34 1 61 12t46.5 28.5t30 41t10.5 50.5q0 21 -7.5 44
t-24 41.5t-42 31t-61.5 12.5q-35 0 -60.5 -12.5t-42 -29t-26 -33t-12.5 -24.5q-11 -25 -17 -36t-21 -11q-10 0 -15.5 3.5t-8 8.5t-3 9.5t-0.5 6.5q0 11 9.5 38.5t32.5 56.5t62.5 51t99.5 22q47 0 84.5 -14.5t63.5 -39.5t39.5 -57.5t13.5 -69.5q0 -36 -11 -61.5t-27.5 -42.5
t-34.5 -28t-32 -18z" />
    <glyph glyph-name="four" unicode="4" 
d="M63 178q-20 0 -37 4.5t-17 25.5q0 11 8.5 23t13.5 20l320 450q11 16 16 21t16 5q19 0 22.5 -15t3.5 -30v-450h65q16 0 31 -3t15 -23q0 -21 -15 -24.5t-31 -3.5h-65v-140q0 -9 -0.5 -17.5t-3 -16t-8.5 -12t-17 -4.5q-12 0 -18.5 4.5t-9.5 12t-3.5 16t-0.5 17.5v140h-285z
M348 232v384l-271 -384h271z" />
    <glyph glyph-name="five" unicode="5" 
d="M132 406q10 7 25 16.5t34.5 18t44 14.5t53.5 6q47 0 87 -18t69.5 -49t46 -72t16.5 -87q0 -41 -14.5 -85t-44 -80t-75 -59t-108.5 -23q-58 0 -98 21.5t-65.5 50.5t-37 58t-11.5 45q0 13 8.5 21.5t21.5 8.5q17 0 22.5 -9.5t8.5 -19.5q18 -60 58 -93t103 -33q38 0 69 15
t53 41.5t34 61.5t12 74t-12.5 71.5t-34 56t-51.5 36.5t-66 13q-31 0 -54.5 -6.5t-42.5 -17t-34 -24t-29 -26.5q-5 -5 -10.5 -8.5t-13.5 -3.5q-12 0 -20.5 8t-8.5 19q0 5 1 8.5t3 17.5l52 282q3 18 6 28t9 15t16.5 6t28.5 1h258q17 0 32 -3t15 -25q0 -20 -13 -24t-34 -4h-264
z" />
    <glyph glyph-name="six" unicode="6" 
d="M105 349q14 19 31 37t51 37q31 17 58 23t53 6q48 0 86.5 -17.5t65.5 -47.5t41.5 -70t14.5 -86q0 -44 -14 -87.5t-42 -78t-70 -56t-98 -21.5q-32 0 -58.5 7.5t-48.5 19.5t-38.5 27t-27.5 30q-13 17 -24.5 38.5t-20.5 51.5t-14.5 71.5t-5.5 99.5q0 68 6.5 117.5t18 85.5
t26 60.5t29.5 43.5q21 26 45 41.5t47.5 23t44.5 9.5t37 2q59 0 95.5 -20.5t57 -47t27.5 -51.5t7 -33q0 -12 -8 -20.5t-22 -8.5q-13 0 -20 9.5t-13.5 24.5t-14 31.5t-21 31.5t-35 24.5t-56.5 9.5q-32 0 -57 -10.5t-44 -26.5t-32 -35.5t-21 -37.5q-10 -22 -16.5 -48.5
t-10.5 -54.5t-6 -55t-3 -49zM440 229q0 41 -13 72.5t-34 53t-48.5 32.5t-57.5 11q-27 0 -56.5 -10t-54 -30.5t-40.5 -52t-16 -74.5q0 -36 11.5 -70.5t33 -62t51.5 -44t68 -16.5q33 0 61.5 14t49.5 39t33 60t12 78z" />
    <glyph glyph-name="seven" unicode="7" 
d="M87 653q-15 0 -30.5 3.5t-15.5 23.5t15 23.5t31 3.5h362q23 0 31.5 -1t15.5 -9q5 -5 7.5 -10.5t2.5 -9.5q0 -8 -5.5 -16.5t-16.5 -19.5q-10 -10 -30.5 -35.5t-46.5 -65t-54.5 -93t-54 -119t-44 -142.5t-25.5 -164q-1 -13 -6 -20t-11 -10t-11 -3.5t-6 -0.5q-3 0 -8 1
t-10.5 4.5t-9.5 10.5t-4 20q0 41 7.5 86.5t19.5 91.5t27.5 89.5t32.5 80.5q19 42 40.5 79.5t44 71.5t46 66t48.5 64h-342z" />
    <glyph glyph-name="eight" unicode="8" 
d="M376 385q15 -5 37 -15t43 -30t36 -52t15 -82q0 -47 -16.5 -87t-47 -69t-73 -45.5t-94.5 -16.5t-94.5 16.5t-73 46t-47 69t-16.5 86.5q0 50 15.5 82.5t37 52.5t43.5 29.5t35 14.5q-11 5 -28 14.5t-33.5 26t-28 42.5t-11.5 64q0 37 14 70t40 58.5t63 40.5t84 15
q46 0 83.5 -15t63.5 -40t40.5 -58.5t14.5 -70.5q0 -38 -12 -64t-28.5 -42.5t-33.5 -26t-28 -14.5zM275 357q-78 0 -122 -42.5t-44 -114.5q0 -39 13 -69.5t35.5 -51t52.5 -31t65 -10.5q33 0 63.5 10t53.5 30t37 50.5t14 71.5q0 72 -44.5 114.5t-123.5 42.5zM276 666
q-37 0 -63.5 -13t-43.5 -32.5t-25 -43.5t-8 -46q0 -24 9.5 -46.5t27.5 -40t44 -27.5t59 -10t59 10t44 27.5t28 40t10 46.5q0 22 -8.5 46t-25.5 43.5t-43.5 32.5t-63.5 13z" />
    <glyph glyph-name="nine" unicode="9" 
d="M447 355q-14 -19 -31 -37t-51 -37q-31 -17 -58 -23t-53 -6q-48 0 -86.5 17.5t-65.5 47.5t-41.5 70t-14.5 86q0 44 14 87.5t42 78t70 56t98 21.5q32 0 58.5 -7.5t48.5 -19.5t38.5 -27t27.5 -30q13 -17 24.5 -38.5t20.5 -51.5t14.5 -71.5t5.5 -99.5q0 -68 -6.5 -117.5
t-18 -85.5t-26 -60.5t-29.5 -43.5q-21 -26 -45 -41.5t-47.5 -23t-44.5 -9.5t-37 -2q-59 0 -95.5 20.5t-57 47t-27.5 51.5t-7 33q0 12 8 20.5t22 8.5q16 0 22 -9t9 -20q4 -13 12.5 -30.5t23 -33.5t37 -27t56.5 -11q32 0 57 10.5t44 26.5t32 35.5t21 37.5q10 22 16.5 48.5
t10.5 54.5t6 55t3 49zM112 475q0 -41 13 -72.5t34 -53t48.5 -32.5t57.5 -11q27 0 56.5 10t54 30.5t40.5 52t16 74.5q0 36 -11.5 70.5t-33 62t-52 44t-67.5 16.5q-33 0 -61.5 -14t-49.5 -39t-33 -60t-12 -78z" />
    <glyph glyph-name="colon" unicode=":" horiz-adv-x="281" 
d="M186 484q0 -19 -13.5 -32t-32.5 -13q-18 0 -31.5 13t-13.5 32t13.5 32.5t31.5 13.5q19 0 32.5 -13.5t13.5 -32.5zM186 33q0 -19 -13.5 -32t-32.5 -13q-18 0 -31.5 13t-13.5 32t13.5 32.5t31.5 13.5q19 0 32.5 -13.5t13.5 -32.5z" />
    <glyph glyph-name="semicolon" unicode=";" horiz-adv-x="281" 
d="M139 -12q-17 2 -26 8t-13.5 13.5t-5.5 14.5t-1 10q0 19 13.5 32.5t32.5 13.5t29 -9t14.5 -20.5t5.5 -23t1 -15.5q0 -26 -5.5 -48.5t-14 -40t-19 -27.5t-19.5 -10t-15 6t-6 14q0 5 2.5 8.5t11.5 17.5q3 5 9.5 20t5.5 36zM186 484q0 -19 -13.5 -32t-32.5 -13
q-18 0 -31.5 13t-13.5 32t13.5 32.5t31.5 13.5q19 0 32.5 -13.5t13.5 -32.5z" />
    <glyph glyph-name="less" unicode="&#x3c;" horiz-adv-x="656" 
d="M590 543l-464 -192l464 -193v-49l-524 222v40l524 221v-49z" />
    <glyph glyph-name="equal" unicode="=" horiz-adv-x="656" 
d="M590 492v-45h-523v45h523zM590 253v-45h-523v45h523z" />
    <glyph glyph-name="greater" unicode="&#x3e;" horiz-adv-x="656" 
d="M590 371v-40l-524 -222v49l464 193l-464 192v49z" />
    <glyph glyph-name="question" unicode="?" horiz-adv-x="500" 
d="M211 205q0 31 4.5 56t15.5 46.5t29 43t45 45.5q21 20 37.5 36.5t27.5 33t16.5 33.5t5.5 38q0 28 -10.5 52.5t-29 43t-43.5 29t-54 10.5q-41 0 -67 -16t-41.5 -37.5t-22.5 -43t-10 -31.5q-3 -12 -11.5 -20t-21.5 -8q-14 0 -24 9.5t-10 21.5q0 21 12.5 52t39 59.5t66.5 49
t96 20.5q57 0 95.5 -19.5t61.5 -48t32.5 -61.5t9.5 -60q0 -49 -24 -90.5t-79 -93.5q-29 -27 -45 -45t-24 -34.5t-10.5 -34t-4.5 -42.5q0 -3 -1 -8.5t-4 -11.5t-9.5 -10.5t-16.5 -4.5q-12 0 -18 5.5t-9 12t-3.5 13.5t-0.5 10zM292 33q0 -19 -13.5 -32t-32.5 -13
q-18 0 -31.5 13t-13.5 32t13.5 32.5t31.5 13.5q19 0 32.5 -13.5t13.5 -32.5z" />
    <glyph glyph-name="at" unicode="@" horiz-adv-x="802" 
d="M620 542l-83 -392q-3 -13 -4 -20l-1.5 -10.5t-0.5 -5v-3.5q0 -8 6.5 -14t17.5 -6q24 0 57 19t62.5 55t50.5 88.5t21 119.5q0 19 -3.5 50t-15.5 66t-33.5 70.5t-58 63.5t-89 46t-125.5 18q-90 0 -160.5 -31t-119.5 -84.5t-75 -124.5t-26 -150t25.5 -148t74.5 -120
t121 -80.5t164 -29.5q78 0 133.5 17.5t94 41.5t62.5 49.5t38 42.5h50q-16 -23 -40 -53.5t-71 -62.5q-52 -35 -120 -55.5t-147 -20.5q-98 0 -176.5 31t-134 87t-85.5 133t-30 169q0 81 26 158t78.5 137.5t132.5 97.5t188 37q73 0 128 -17.5t95.5 -46t67 -65.5t43 -76.5
t23 -78t6.5 -70.5q0 -80 -26 -141t-64.5 -102t-82.5 -62.5t-79 -21.5q-23 0 -41 10.5t-18 41.5q0 5 1 15t3 24q-24 -29 -47 -46.5t-44.5 -27.5t-40.5 -13.5t-35 -3.5q-38 0 -69 16t-53.5 44t-34.5 66t-12 81q0 53 18 106.5t50.5 96.5t78.5 70t102 27q36 0 62 -11.5t44 -26.5
t28 -30.5t15 -24.5l17 81h61zM519 372q0 31 -9.5 57t-26.5 44.5t-39.5 28.5t-49.5 10q-48 0 -83.5 -27.5t-58.5 -67.5t-34.5 -85.5t-11.5 -81.5q0 -31 8.5 -59.5t24.5 -50t39 -34.5t53 -13q42 0 78.5 29.5t63.5 80.5q10 18 18.5 39.5t14.5 44t9.5 44.5t3.5 41z" />
    <glyph glyph-name="A" unicode="A" horiz-adv-x="667" 
d="M164 228l-78 -198q-8 -21 -15 -31.5t-25 -10.5q-14 0 -23.5 9.5t-9.5 20.5q0 8 2 14.5t9 22.5l250 616q11 29 21 43t33 14t32 -13.5t22 -42.5l261 -614q7 -16 9 -23t2 -15q0 -10 -9 -21t-26 -11t-24.5 11t-16.5 32l-80 197h-334zM475 284l-148 362l-142 -362h290z" />
    <glyph glyph-name="B" unicode="B" horiz-adv-x="667" 
d="M143 0q-19 0 -30.5 1.5t-17.5 7.5t-7.5 17.5t-1.5 30.5v602q0 19 2 30.5t8 17.5t17 7.5t30 1.5h220q74 0 117 -21.5t64.5 -51.5t27.5 -60.5t6 -48.5q0 -38 -12 -64.5t-28.5 -45.5t-34 -30t-28.5 -17q16 -6 39 -16t45 -29.5t37.5 -51t15.5 -79.5q0 -34 -12 -69.5
t-38.5 -65t-69.5 -48t-106 -18.5h-243zM154 340v-283h225q49 0 80.5 14t49.5 35t25 46.5t7 48.5q0 27 -9.5 52.5t-29 44.5t-49.5 30.5t-71 11.5h-228zM154 401h211q43 0 71 12.5t44.5 32t23 42t6.5 43.5q0 46 -19.5 71t-48 37t-59.5 14t-53 2h-176v-254z" />
    <glyph glyph-name="C" unicode="C" horiz-adv-x="719" 
d="M55 359q0 83 24 151t67.5 116.5t104 75t134.5 26.5q52 0 92.5 -13t71 -33t52 -44.5t35 -47t19.5 -40t6 -24.5q0 -5 -5.5 -16.5t-23.5 -11.5q-7 0 -11.5 1.5t-9 7.5t-11.5 17.5t-18 32.5q-13 23 -32.5 45t-45.5 38q-17 11 -44.5 21.5t-69.5 10.5q-16 0 -42 -3.5t-55 -15
t-59 -32.5t-54 -56t-39 -86.5t-15 -123.5q0 -90 24 -150t61.5 -96t82.5 -51t86 -15q59 0 109.5 25t84.5 72q13 19 20.5 38t13.5 34.5t13 25.5t19 10q11 0 20 -6.5t9 -20.5q0 -12 -6 -33.5t-19.5 -47.5t-35.5 -53t-54 -49.5t-75 -36.5t-98 -14q-71 0 -122.5 20t-87.5 52.5
t-58.5 73.5t-35.5 82t-17.5 79t-4.5 65z" />
    <glyph glyph-name="D" unicode="D" horiz-adv-x="719" 
d="M329 716q31 0 66.5 -2.5t77.5 -16.5q61 -21 98.5 -62.5t58.5 -90t28 -98.5t7 -88q0 -23 -2.5 -53.5t-9.5 -63.5t-20 -66.5t-34.5 -63.5t-52.5 -54.5t-73 -38.5q-36 -12 -70.5 -15t-73.5 -3h-185q-19 0 -30.5 1.5t-17.5 7.5t-7.5 17.5t-1.5 30.5v602q0 19 2 30.5t8 17.5
t17 7.5t30 1.5h185zM155 59h169q10 0 26.5 0.5t35.5 2.5t38 6t36 12q42 19 68 50.5t40.5 70.5t20 82t5.5 85q0 21 -3.5 57.5t-17 75.5t-40 75.5t-72.5 57.5q-33 15 -69.5 19t-67.5 4h-169v-598z" />
    <glyph glyph-name="E" unicode="E" horiz-adv-x="615" 
d="M158 398h324q8 0 17 -0.5t16 -3t11.5 -8.5t4.5 -17t-4.5 -17t-11.5 -9t-16 -3.5t-17 -0.5h-324v-280h368q19 0 34 -4.5t15 -24.5q0 -11 -4.5 -17t-11.5 -9t-16 -3.5t-17 -0.5h-379q-19 0 -30.5 1.5t-17.5 7.5t-7.5 17.5t-1.5 30.5v602q0 19 2 30.5t8 17.5t17 7.5t30 1.5
h363q8 0 17 -0.5t16.5 -3.5t12 -9t4.5 -17q0 -12 -4.5 -18t-12 -8.5t-16 -2.5h-17.5h-352v-259z" />
    <glyph glyph-name="F" unicode="F" 
d="M155 397h266q8 0 17 -0.5t16 -3.5t11.5 -9t4.5 -17t-4.5 -17t-11.5 -8.5t-16 -3t-17 -0.5h-266v-294q0 -9 -0.5 -19t-3.5 -18.5t-10 -13.5t-20 -5t-20 5t-10 13t-3.5 18t-0.5 20v615q0 19 1.5 30.5t7.5 17.5t17.5 7.5t30.5 1.5h329q8 0 17 -0.5t16.5 -3.5t12 -9t4.5 -17
t-4.5 -17t-12 -8.5t-16 -3t-17.5 -0.5h-318v-260z" />
    <glyph glyph-name="G" unicode="G" horiz-adv-x="781" 
d="M646 298h-187q-8 0 -17 0.5t-17 3t-13.5 8.5t-5.5 17q0 22 16 26t33 4h193q26 0 39.5 -2.5t22.5 -16.5q3 -5 3.5 -11.5t0.5 -21.5v-178q0 -23 -1 -29t-7 -12q-5 -5 -27 -21t-59 -33t-87.5 -30.5t-111.5 -13.5q-88 0 -156 27t-114 75.5t-69.5 116t-23.5 147.5
q0 78 22.5 146t67 119t110.5 80t153 29q66 0 128 -19.5t105 -69.5q12 -14 22 -29t17.5 -29.5t11.5 -26.5t4 -19q0 -11 -4 -17t-9.5 -10t-10.5 -5t-8 -1q-11 0 -18.5 8t-17.5 25q-9 16 -23.5 39.5t-39 45t-63 37t-96.5 15.5q-62 0 -113.5 -21.5t-88.5 -62t-57.5 -98
t-20.5 -130.5q0 -91 27 -151.5t68.5 -97t91 -52t94.5 -15.5q39 0 74.5 7t66.5 18.5t55 25t40 27.5v176z" />
    <glyph glyph-name="H" unicode="H" horiz-adv-x="719" 
d="M565 407v266q0 9 1 18.5t4.5 18t10.5 13.5t19 5t19 -5t10 -13t3.5 -18t0.5 -19v-630q0 -9 -0.5 -19t-3.5 -18t-9.5 -13t-18.5 -5q-13 0 -20 5t-10.5 13t-4.5 18t-1 19v305h-411v-304q0 -9 -0.5 -19t-4 -18.5t-10.5 -13.5t-20 -5q-12 0 -19 5t-10 13t-3.5 18t-0.5 20v628
q0 9 0.5 19t3.5 18.5t10 13.5t19 5q13 0 20 -5t10.5 -13t4 -18t0.5 -20v-265h411z" />
    <glyph glyph-name="I" unicode="I" horiz-adv-x="281" 
d="M174 44q0 -9 -0.5 -19t-3.5 -18.5t-10 -13.5t-19 -5q-13 0 -20 5t-10.5 13t-4 18t-0.5 20v628q0 9 0.5 19t4 18.5t10.5 13.5t19 5q13 0 20 -5t10 -13.5t3.5 -18.5t0.5 -19v-628z" />
    <glyph glyph-name="J" unicode="J" horiz-adv-x="500" 
d="M412 204q0 -74 -19.5 -116.5t-49.5 -65t-65.5 -28.5t-66.5 -6q-17 0 -40 3t-46 13t-44.5 30t-35.5 54q-7 16 -10.5 32t-5.5 29t-2.5 21t-0.5 9q0 22 12.5 28t19.5 6q19 0 24 -13t7 -25q3 -22 10 -45.5t22 -42.5t38.5 -31t58.5 -12q44 0 69.5 17.5t38 42.5t15.5 52.5
t3 47.5v468q0 9 0.5 19t4 18.5t10.5 13.5t19 5q13 0 20 -5t10 -13.5t3.5 -18.5t0.5 -19v-468z" />
    <glyph glyph-name="K" unicode="K" horiz-adv-x="667" 
d="M549 705q17 16 22.5 19.5t13.5 3.5q13 0 22 -8.5t9 -22.5q0 -10 -5.5 -16.5t-20.5 -19.5l-260 -238l287 -361q11 -14 16.5 -22.5t5.5 -18.5q0 -13 -9.5 -23t-26.5 -10q-14 0 -21.5 7t-19.5 24l-277 363l-129 -117v-221q0 -9 -0.5 -19t-3.5 -18.5t-10 -13.5t-20 -5t-20 5
t-10 13t-3.5 18t-0.5 20v628q0 9 0.5 19t3.5 18.5t10 13.5t20 5t20 -5t10 -13.5t3.5 -18.5t0.5 -19v-330z" />
    <glyph glyph-name="L" unicode="L" 
d="M478 59q8 0 17 -0.5t16.5 -3t12 -8.5t4.5 -17t-4.5 -17t-12 -9t-16 -3.5t-17.5 -0.5h-334q-19 0 -30.5 1.5t-17.5 7.5t-7.5 17.5t-1.5 30.5v615q0 9 0.5 19t3.5 18.5t10 13.5t19 5q13 0 20 -5t10.5 -13.5t4 -18.5t0.5 -19v-613h323z" />
    <glyph glyph-name="M" unicode="M" horiz-adv-x="833" 
d="M631 672q10 25 17 34.5t29 9.5t35 -1t20 -6t9.5 -17t2.5 -33v-615q0 -9 -0.5 -19t-3.5 -18.5t-10 -13.5t-19 -5q-13 0 -20 5t-10.5 13.5t-3.5 18.5v20l11 598l-233 -611q-8 -22 -15.5 -33t-24.5 -11q-19 0 -26 11t-15 34l-229 610l10 -600q0 -9 -0.5 -18.5t-3.5 -18
t-9.5 -13.5t-19.5 -5q-12 0 -19 5t-10 13t-3.5 18t-0.5 19v616q0 13 0.5 23.5t4.5 18t13 11.5t25 4q24 0 30.5 -0.5t11.5 -2.5q10 -5 14 -11.5t12 -29.5l215 -576z" />
    <glyph glyph-name="N" unicode="N" horiz-adv-x="719" 
d="M566 687q0 4 0.5 11t4 14t10 11.5t18.5 4.5q13 0 20 -5t10 -13t3.5 -18t0.5 -20v-613q0 -27 -1.5 -38.5t-12.5 -20.5q-4 -4 -11 -7.5t-18 -3.5q-16 0 -25 9.5t-25 32.5l-392 579l5 -567v-18.5t-2.5 -17.5t-9.5 -13.5t-21 -5.5q-13 0 -20 5t-10 13t-3.5 18t-0.5 20v617
q0 11 0.5 23t4.5 21.5t12 15.5t23 6t24 -9t23 -30l398 -589z" />
    <glyph glyph-name="O" unicode="O" horiz-adv-x="781" 
d="M390 728q100 0 165 -37.5t102.5 -93.5t52 -120.5t14.5 -118.5q0 -57 -15.5 -122t-53.5 -120t-102.5 -91.5t-162.5 -36.5q-67 0 -117.5 17.5t-87.5 46.5t-61.5 67t-39.5 79t-21 82.5t-6 77.5q0 56 15 121t53 120.5t102.5 92t162.5 36.5zM390 672q-9 0 -30 -2.5t-48 -10.5
t-56.5 -25t-54.5 -46q-41 -47 -57 -107.5t-16 -122.5q0 -16 2 -43t9.5 -59.5t22 -66t39.5 -61.5q37 -42 88.5 -63t100.5 -21q50 0 101 21t88 63q25 28 40 61.5t22.5 65.5t9.5 59.5t2 43.5q0 25 -3 54t-11 59.5t-22.5 60t-37.5 56.5q-24 28 -53 45t-56 25.5t-48.5 11
t-31.5 2.5z" />
    <glyph glyph-name="P" unicode="P" horiz-adv-x="615" 
d="M339 716q36 0 63 -4.5t47.5 -12.5t35.5 -18.5t26 -21.5q59 -62 59 -148q0 -33 -11 -69.5t-37.5 -67.5t-71 -51t-111.5 -20h-180v-259q0 -9 -0.5 -19t-4 -18.5t-10.5 -13.5t-19 -5q-13 0 -20 5t-10 13t-3.5 18t-0.5 20v615q0 21 2.5 33t9.5 17t20 6t35 1h181zM159 654
v-292h161q29 0 60.5 5.5t58 21t43.5 44.5t17 76q0 54 -21 83.5t-50 43t-59.5 16t-48.5 2.5h-161z" />
    <glyph glyph-name="Q" unicode="Q" horiz-adv-x="781" 
d="M618 72q23 -18 48 -33.5t52 -28.5q11 -5 18.5 -10.5t7.5 -17.5q0 -11 -8 -18.5t-18 -7.5q-8 0 -20 5.5t-17 7.5q-31 16 -59 34t-50 32q-12 -7 -27.5 -15t-37.5 -15t-50.5 -12t-65.5 -5q-100 0 -165 37.5t-102.5 93.5t-52 120.5t-14.5 118.5q0 57 15.5 122t53.5 120
t102 91.5t162 36.5q100 0 165 -37.5t102.5 -93.5t52 -120.5t14.5 -118.5q0 -80 -25.5 -154.5t-80.5 -131.5zM562 110q51 48 71 113.5t20 134.5q0 10 -1 29.5t-5 44.5t-12 53.5t-23 56.5q-20 36 -47 61t-57.5 40t-61 22t-56.5 7q-49 0 -100.5 -21t-88.5 -63
q-25 -29 -39.5 -62.5t-22 -65.5t-9.5 -59t-2 -43t2 -43t9.5 -59t22 -66t39.5 -62q37 -42 89 -63t100 -21q19 0 52.5 5.5t72.5 27.5q-12 10 -29 20t-52 26q-19 9 -25 15.5t-6 15.5q0 11 7 20t20 9q9 0 24 -6t33.5 -16t38 -23.5t36.5 -27.5z" />
    <glyph glyph-name="R" unicode="R" horiz-adv-x="667" 
d="M627 60q10 -15 13 -22.5t3 -15.5q0 -14 -11 -24t-25 -10q-8 0 -12.5 1.5t-9.5 6t-11.5 14t-16.5 25.5l-74 116q-37 57 -63.5 92t-50.5 54t-49.5 25.5t-59.5 6.5h-104v-284q0 -10 -0.5 -20t-3.5 -18.5t-9.5 -13.5t-19.5 -5t-20 5t-10.5 13.5t-4 18.5t-0.5 20v614
q0 19 2 30.5t8 17.5t17 7.5t30 1.5h245q45 0 82 -9.5t63 -29.5q34 -26 52.5 -66.5t18.5 -85.5q0 -86 -53.5 -132.5t-142.5 -57.5q32 -19 60.5 -48t59.5 -77zM156 657v-269h189q11 0 29 0.5t39 4.5t43 12t39.5 23.5t28.5 39t11 57.5q0 32 -15 61t-43 46q-11 7 -27.5 12
t-34.5 8t-35.5 4t-31.5 1h-192z" />
    <glyph glyph-name="S" unicode="S" horiz-adv-x="615" 
d="M564 200q0 -39 -14.5 -77t-45.5 -68t-78.5 -48.5t-114.5 -18.5q-174 0 -233 120q-7 14 -16 39t-9 50q0 14 9.5 22.5t20.5 8.5q16 0 21 -9.5t7 -14.5q8 -24 13.5 -41t11 -29.5t12.5 -23t18 -20.5q29 -26 66 -36t71 -10q33 0 67.5 8t63.5 25.5t47.5 45.5t18.5 68
q0 39 -16 63.5t-39.5 39t-48.5 22t-43 11.5q-50 11 -82.5 18.5t-55 14.5t-37.5 14t-30 18q-12 8 -25 20.5t-23.5 30t-17.5 40t-7 51.5q0 39 14 74t43 61.5t72.5 42.5t103.5 16q19 0 47 -3t57 -13.5t56.5 -30t46.5 -51.5q12 -20 17.5 -42t5.5 -34q0 -19 -9.5 -28.5
t-21.5 -9.5q-18 0 -24 13.5t-9 24.5q-11 40 -32.5 63.5t-47 35.5t-50.5 15.5t-42 3.5q-37 0 -67 -10.5t-51.5 -28t-33 -41.5t-11.5 -51q0 -36 16.5 -59t40.5 -37.5t52.5 -22.5t52.5 -13q43 -9 71.5 -16.5t48 -14t33 -13t26.5 -13.5q27 -16 43.5 -36.5t25.5 -42t12 -41
t3 -32.5z" />
    <glyph glyph-name="T" unicode="T" 
d="M310 44q0 -9 -0.5 -19t-3.5 -18.5t-10 -13.5t-20 -5t-20 5t-10 13t-3.5 18t-0.5 20v609h-180q-9 0 -18 0.5t-16.5 3.5t-12.5 9t-5 18t5 18.5t12.5 9.5t16.5 3.5t18 0.5h428q9 0 18 -0.5t16.5 -3.5t12.5 -9t5 -18t-5 -18.5t-12.5 -9.5t-16.5 -3.5t-18 -0.5h-180v-609z" />
    <glyph glyph-name="U" unicode="U" horiz-adv-x="719" 
d="M154 257q0 -16 1 -38t7 -45.5t19 -47t36 -41.5t58 -29.5t86 -11.5q58 0 97.5 16.5t63 45t33.5 67.5t10 83v415q0 9 0.5 19.5t3.5 18.5t10 13.5t20 5.5t20 -5.5t10 -13.5t3.5 -18t0.5 -20v-408q0 -130 -65.5 -202.5t-205.5 -72.5q-74 0 -126.5 18t-85.5 53t-48.5 86.5
t-15.5 117.5v408q0 9 0.5 19.5t3.5 18.5t10 13.5t20 5.5t20 -5.5t10 -13.5t3.5 -18t0.5 -20v-414z" />
    <glyph glyph-name="V" unicode="V" horiz-adv-x="615" 
d="M529 688q7 20 13.5 30t23.5 10q14 0 22.5 -9t8.5 -20q0 -7 -1.5 -12.5t-7.5 -20.5l-231 -621q-11 -28 -20 -42.5t-32 -14.5t-32 14.5t-20 42.5l-225 616q-6 17 -8 23t-2 13q0 11 9 21t25 10q18 0 25 -11.5t15 -32.5l214 -611z" />
    <glyph glyph-name="W" unicode="W" horiz-adv-x="885" 
d="M389 668q4 15 7 24.5t8.5 15t14 7t24.5 1.5q15 0 24 -1.5t14 -7t8.5 -15t7.5 -24.5l153 -568l152 584q5 19 11 31.5t24 12.5q13 0 22 -9t9 -21q0 -6 -1 -11t-5 -19l-168 -625q-7 -24 -14.5 -39.5t-30.5 -15.5t-30.5 15t-14.5 40l-160 597l-164 -598q-7 -23 -14.5 -38.5
t-30.5 -15.5t-30.5 15t-14.5 40l-164 614q-4 14 -6.5 23.5t-2.5 15.5q0 13 8.5 22.5t22.5 9.5q21 0 28 -12.5t12 -34.5l147 -585z" />
    <glyph glyph-name="X" unicode="X" horiz-adv-x="615" 
d="M312 431l192 271q13 17 20.5 21.5t16.5 4.5q16 0 23 -9.5t7 -17.5q0 -5 -3 -11t-14 -23l-203 -286l218 -322q5 -8 11 -19t6 -22q0 -9 -9 -19.5t-26 -10.5q-6 0 -10 1t-8.5 5.5t-11 14t-17.5 25.5l-191 285l-211 -298q-17 -23 -24.5 -28t-15.5 -5q-14 0 -24 8.5t-10 22.5
q0 10 4.5 17.5t13.5 19.5l230 318l-193 285q-8 11 -12.5 20t-4.5 18q0 1 0.5 6t3.5 10.5t9.5 10t18.5 4.5q14 0 20.5 -6t20.5 -28z" />
    <glyph glyph-name="Y" unicode="Y" horiz-adv-x="615" 
d="M307 372l211 325q12 19 18 25t19 6q15 0 23.5 -10t8.5 -20t-4 -17t-12 -19l-234 -353v-265q0 -9 -0.5 -19t-3.5 -18.5t-10 -13.5t-20 -5t-20 5t-10 13.5t-3.5 18.5t-0.5 19v265l-223 348q-8 13 -12.5 21t-4.5 18q0 13 9 22.5t23 9.5t21.5 -7t21.5 -30z" />
    <glyph glyph-name="Z" unicode="Z" horiz-adv-x="615" 
d="M102 657q-8 0 -16.5 0.5t-15.5 3.5t-11.5 9t-4.5 17t4.5 17t11.5 8.5t15.5 3t16.5 0.5h420q10 0 20.5 -0.5t18.5 -4t13.5 -10.5t5.5 -20q0 -9 -4 -16t-17 -24l-455 -581l441 -1q8 0 17 -0.5t16 -3.5t11.5 -9t4.5 -17t-4.5 -17t-11.5 -8.5t-16 -3t-17 -0.5h-465
q-25 0 -34 1t-17 9q-13 12 -13 29q0 10 5 17.5t19 25.5l448 575h-386z" />
    <glyph glyph-name="bracketleft" unicode="[" horiz-adv-x="333" 
d="M138 -150h139q14 0 28.5 -3t14.5 -22t-14 -22t-29 -3h-143q-19 0 -30.5 1.5t-17.5 7.5t-7.5 17.5t-1.5 30.5v802q0 19 1.5 30.5t7.5 17.5t17.5 7.5t30.5 1.5h143q7 0 14.5 -0.5t14 -3t10.5 -7.5t4 -15q0 -19 -14.5 -21.5t-28.5 -2.5h-139v-816z" />
    <glyph glyph-name="backslash" unicode="\" horiz-adv-x="281" 
d="M265 35q3 -11 5 -18t2 -13q0 -9 -6 -15.5t-14 -6.5q-14 0 -19.5 11t-10.5 28l-206 654q-3 11 -5 18t-2 13q0 9 6 15.5t14 6.5q14 0 19.5 -11t10.5 -28z" />
    <glyph glyph-name="bracketright" unicode="]" horiz-adv-x="333" 
d="M195 666h-139q-14 0 -28.5 3t-14.5 22t14 22t29 3h143q19 0 30.5 -1.5t17.5 -7.5t7.5 -17.5t1.5 -30.5v-802q0 -19 -1.5 -30.5t-7.5 -17.5t-17.5 -7.5t-30.5 -1.5h-143q-7 0 -14.5 0.5t-14 3t-10.5 7.5t-4 15q0 19 14.5 21.5t28.5 2.5h139v816z" />
    <glyph glyph-name="asciicircum" unicode="^" horiz-adv-x="656" 
d="M547 466l-32 -27l-187 226l-188 -226l-31 27l219 262z" />
    <glyph glyph-name="underscore" unicode="_" horiz-adv-x="500" 
d="M506 -75v-50h-512v50h512z" />
    <glyph glyph-name="grave" unicode="`" horiz-adv-x="333" 
d="M95 677q-9 11 -15 18.5t-6 12.5q0 8 26 8h29q11 0 18 -1.5t12 -5.5t9.5 -12t10.5 -21l25 -54q5 -11 7 -15.5t2 -9.5t-5.5 -12.5t-16.5 -7.5q-8 0 -12.5 4t-14.5 15z" />
    <glyph glyph-name="a" unicode="a" 
d="M416 326q0 42 -2 64.5t-12 41.5q-8 16 -21.5 25.5t-29 15t-33 7.5t-33.5 2q-12 0 -34 -2t-45.5 -9.5t-44.5 -22.5t-31 -40q-11 -28 -17 -37t-21 -9q-10 0 -19.5 7.5t-9.5 22.5q0 9 8 31.5t31 46.5t65.5 42t111.5 18q74 0 114.5 -18.5t59 -48.5t21.5 -69t3 -80
q0 -10 -0.5 -33.5t-0.5 -50t-0.5 -49.5t-0.5 -32q0 -17 1.5 -40t6.5 -40q5 -18 9.5 -33t4.5 -22q0 -14 -10.5 -20.5t-18.5 -6.5q-12 0 -20 7.5t-12.5 20t-7.5 29t-5 34.5q-42 -45 -97.5 -67.5t-116.5 -22.5q-39 0 -69 11.5t-51 31.5t-32 46.5t-11 56.5q0 47 20 75.5t49.5 45
t63.5 23.5t62 12q75 12 115 19t60 17zM416 278q-24 -12 -67 -19.5t-91 -17.5q-21 -4 -46.5 -9t-48 -15t-38 -28.5t-15.5 -49.5q0 -12 4.5 -28t17 -31t34 -25.5t55.5 -10.5q23 0 50 6t52 17.5t45 29.5t31 42q11 25 14.5 55.5t2.5 83.5z" />
    <glyph glyph-name="b" unicode="b" horiz-adv-x="615" 
d="M142 38q0 -8 -1 -17t-4 -16.5t-9 -12t-17 -4.5t-17 4.5t-9 12t-3.5 16t-0.5 17.5v640q0 8 0.5 17t3.5 16.5t9 12t17 4.5t17.5 -4.5t9.5 -12t3.5 -16t0.5 -17.5v-244q10 12 25 28.5t38 31.5t55.5 25.5t76.5 10.5q62 0 106 -23.5t71.5 -61.5t40 -86t12.5 -96q0 -19 -3 -47
t-12 -58.5t-25.5 -60.5t-42.5 -54.5t-63.5 -39.5t-89.5 -15q-42 0 -73 9t-53 23t-37 29.5t-26 29.5v-41zM503 260q0 54 -14 95t-37.5 69t-55 42t-66.5 14t-65 -11t-54 -31q-14 -11 -26.5 -26.5t-22 -37t-15 -52t-5.5 -71.5q0 -56 15 -96t40 -66t58.5 -38.5t69.5 -12.5
q34 0 66 13.5t57 41t40 69t15 98.5z" />
    <glyph glyph-name="c" unicode="c" 
d="M45 256q0 52 12 101.5t39.5 87.5t73 61.5t112.5 23.5q43 0 75.5 -10t55.5 -25.5t38 -33.5t23.5 -34t12 -28t3.5 -15q0 -4 -1 -8.5t-5 -8.5q-8 -8 -21 -8q-11 0 -17 5.5t-14 21.5q-15 32 -36 51t-42.5 28.5t-40 12t-29.5 2.5q-31 0 -62.5 -11t-57 -36.5t-42 -67
t-16.5 -101.5q0 -106 46 -166t127 -60q42 0 71 13.5t47.5 32.5t29 38.5t16.5 31.5q6 15 13 21t16 6q2 0 7 -1t10 -4t9 -9t4 -15q0 -14 -14.5 -42.5t-39.5 -55.5q-19 -20 -40.5 -33t-43 -20.5t-43 -10t-39.5 -2.5q-69 0 -114.5 24.5t-72.5 63t-38.5 86t-11.5 94.5z" />
    <glyph glyph-name="d" unicode="d" horiz-adv-x="615" 
d="M473 678q0 8 0.5 17t3.5 16.5t9.5 12t17.5 4.5t17 -4.5t9 -12t3.5 -16.5t0.5 -17v-640q0 -17 -4 -33.5t-26 -16.5q-11 0 -17 4.5t-9 12t-4 16t-1 17.5v41q-11 -12 -26.5 -27.5t-39 -30t-55 -24t-73.5 -9.5q-65 0 -109.5 26t-71.5 66.5t-38.5 89t-11.5 93.5q0 43 11 90
t38 86.5t71.5 65t111.5 25.5q46 0 78.5 -10.5t55 -25.5t36.5 -31.5t23 -28.5v244zM112 260q0 -57 15 -99t40 -69t57 -40.5t65 -13.5q9 0 23.5 1.5t31 6t34.5 13.5t35 25q10 10 21 23.5t19.5 34t14 49.5t5.5 70q0 64 -19 106.5t-47 67.5t-61 35t-61 10q-35 0 -66.5 -14
t-55 -42t-37.5 -69t-14 -95z" />
    <glyph glyph-name="e" unicode="e" 
d="M110 252q1 -47 12 -86t32.5 -67.5t54 -44.5t75.5 -16q11 0 30.5 2.5t41.5 13.5t43.5 33.5t37.5 62.5q8 22 29 22q14 0 22 -9t8 -19q0 -6 -9.5 -31.5t-33.5 -53t-65.5 -49.5t-105.5 -22q-60 0 -104.5 21t-74 57.5t-43.5 86t-14 106.5q0 61 15.5 111t45.5 85.5t74 55
t101 19.5q55 0 93 -17t63 -42t39 -55t20.5 -56t7.5 -44.5t1 -20.5q0 -16 -4.5 -25t-12.5 -13t-18 -4.5t-22 -0.5h-339zM442 302q-2 16 -6.5 46t-21 59t-48 51t-86.5 22q-45 0 -76 -19t-51 -46.5t-29.5 -58.5t-12.5 -54h331z" />
    <glyph glyph-name="f" unicode="f" horiz-adv-x="281" 
d="M99 573q0 47 5 67.5t10 28.5q15 29 45.5 44t62.5 15q21 0 42.5 -3.5t30.5 -8.5t11.5 -12t2.5 -10q0 -10 -7 -18t-18 -8q-3 0 -9 0.5t-13 1.5t-13 1.5t-8 0.5q-28 0 -44 -7.5t-24.5 -22t-10.5 -34.5t-2 -44v-46h67q5 0 12 -0.5t13 -2.5t10 -6.5t4 -12.5q0 -9 -5 -13.5
t-11.5 -6.5t-13 -2.5t-9.5 -0.5h-67v-435q0 -17 -4 -33.5t-26 -16.5q-12 0 -18 4.5t-9 12t-3.5 16t-0.5 17.5v435h-53q-5 0 -11.5 0.5t-12.5 2.5t-10.5 6.5t-4.5 13.5q0 8 4.5 12.5t11 6.5t13 2.5t10.5 0.5h53v55z" />
    <glyph glyph-name="g" unicode="g" horiz-adv-x="615" 
d="M473 486q0 6 0.5 14t3 14.5t8.5 11t18 4.5q22 0 26.5 -14.5t4.5 -43.5v-415q0 -48 -6.5 -96t-31.5 -86.5t-75 -63t-136 -24.5q-63 0 -102.5 15.5t-66.5 44.5q-18 19 -29.5 40.5t-11.5 34.5q0 12 7.5 21t21.5 9q12 0 17 -6t18 -30q21 -40 55 -59.5t91 -19.5q43 0 73 8.5
t50 21.5t31.5 28t16.5 29q6 14 9 26.5t4.5 29t2.5 40t1 60.5q-8 -11 -20.5 -26t-37.5 -31q-32 -21 -65.5 -28t-61.5 -7q-55 0 -94 16t-65 41.5t-42 56.5t-24 61t-10.5 55.5t-2.5 39.5q0 42 11.5 89.5t39 88t72 67.5t110.5 27q42 0 72.5 -9.5t52.5 -24t37.5 -31.5t27.5 -31
v52zM114 261q0 -62 15 -104.5t40 -69t57.5 -38t67.5 -11.5q30 0 62 10.5t58 36t43 66.5t17 103q0 63 -16.5 106t-42.5 70t-58.5 38.5t-64.5 11.5q-30 0 -62 -11t-57.5 -36.5t-42 -67.5t-16.5 -104z" />
    <glyph glyph-name="h" unicode="h" 
d="M481 39q0 -9 -0.5 -18t-3.5 -16.5t-9 -12t-18 -4.5t-18 4.5t-9 12t-3.5 16.5t-0.5 18v283q0 32 -3 59t-17 47q-16 23 -42.5 35.5t-57.5 12.5q-43 0 -83 -24t-60 -67q-11 -24 -14.5 -59t-3.5 -101v-186q0 -9 -0.5 -18t-3.5 -16.5t-9 -12t-18 -4.5q-23 0 -27 16.5t-4 34.5
v638q0 8 0.5 17t3.5 16.5t9 12.5t18 5t18 -4.5t9 -12t3.5 -16.5t0.5 -18v-235q11 14 25 29.5t33 28.5t45.5 21.5t62.5 8.5q30 0 53 -6t39.5 -14.5t28 -18t17.5 -16.5q14 -16 22 -35t11.5 -38t4.5 -35.5t1 -28.5v-299z" />
    <glyph glyph-name="i" unicode="i" horiz-adv-x="219" 
d="M140 38q0 -17 -4 -33.5t-26 -16.5q-12 0 -18 4.5t-9 12t-3.5 16t-0.5 17.5v441q0 9 0.5 18t3.5 16.5t9 12t18 4.5q11 0 17 -5t9 -12.5t3.5 -16.5t0.5 -17v-441zM149 669q0 -16 -11.5 -27.5t-27.5 -11.5q-17 0 -28 11.5t-11 27.5q0 17 11 28t28 11q16 0 27.5 -11t11.5 -28
z" />
    <glyph glyph-name="j" unicode="j" horiz-adv-x="219" 
d="M79 480q0 9 0.5 18t3.5 16.5t9 12t18 4.5q11 0 17 -4.5t9 -12t3.5 -16.5t0.5 -18v-521q0 -29 -1 -52.5t-5.5 -42t-13.5 -32.5t-25 -24q-25 -18 -70 -18q-5 0 -15.5 0.5t-21 4t-18 10.5t-7.5 20q0 10 6 17.5t20 7.5q4 0 17 -1t16 -1q16 0 27 4.5t17.5 16t9.5 31.5t3 51
v529zM149 669q0 -16 -11.5 -27.5t-27.5 -11.5q-17 0 -28 11.5t-11 27.5q0 17 11 28t28 11q16 0 27.5 -11t11.5 -28z" />
    <glyph glyph-name="k" unicode="k" horiz-adv-x="500" 
d="M140 213v-170q0 -21 -4 -38t-25 -17q-22 0 -26 15.5t-6 40.5v619q0 29 4 47t28 18q23 0 26 -17t3 -39v-388l240 226q3 2 11.5 8.5t10.5 8.5q7 3 15 3q13 0 21 -7t8 -21q0 -9 -6.5 -16.5t-8.5 -10.5l-167 -150l184 -259q5 -8 15.5 -22.5t10.5 -27.5q0 -14 -10.5 -21
t-20.5 -7q-14 0 -21.5 8t-17.5 22l-185 266z" />
    <glyph glyph-name="l" unicode="l" horiz-adv-x="219" 
d="M140 38q0 -17 -4 -33.5t-26 -16.5q-12 0 -18 4.5t-9 12t-3.5 16t-0.5 17.5v639q0 9 0.5 18t3.5 16.5t9 12t17 4.5q12 0 18 -4.5t9 -12t3.5 -16.5t0.5 -18v-639z" />
    <glyph glyph-name="m" unicode="m" horiz-adv-x="833" 
d="M754 38q0 -8 -0.5 -17t-3.5 -16.5t-9 -12t-18 -4.5q-11 0 -17 4.5t-9 12t-3.5 16t-0.5 17.5v284q0 23 -1.5 50.5t-11.5 51t-31.5 39t-61.5 15.5q-46 0 -73.5 -20.5t-42.5 -52.5t-19.5 -71.5t-4.5 -78.5v-219q0 -8 -0.5 -16.5t-3 -15.5t-8.5 -11.5t-17 -4.5t-17.5 4.5
t-9.5 11.5t-4 16t-1 17v292q0 20 -1 45.5t-10 48t-29 38t-59 15.5t-67 -16.5t-46 -44.5t-26 -63.5t-8 -74.5v-237q0 -9 -0.5 -18t-3 -16.5t-8.5 -12.5t-18 -5t-18 4.5t-9 12t-3.5 16.5t-0.5 18v440q0 8 0.5 17t3.5 16.5t9 12.5t18 5t18 -4.5t8.5 -12t3 -16t0.5 -17.5v-35
q8 11 20.5 25.5t31.5 28t44.5 22.5t60.5 9q36 0 60.5 -9t40 -22t24 -28t14.5 -27q10 13 24 28t33.5 28t45 21.5t60.5 8.5q43 0 72 -15t44 -32q14 -14 26.5 -44.5t12.5 -85.5v-315z" />
    <glyph glyph-name="n" unicode="n" 
d="M481 39q0 -9 -0.5 -18t-3.5 -16.5t-9 -12t-18 -4.5t-18 4.5t-8.5 12t-3 16.5t-0.5 18v283q0 32 -3.5 59t-17.5 47q-16 23 -42.5 36t-57.5 13q-43 0 -83.5 -24.5t-60.5 -67.5q-11 -24 -14.5 -59t-3.5 -101v-186q0 -9 -0.5 -18t-3 -16.5t-8.5 -12t-18 -4.5q-23 0 -27 16.5
t-4 34.5v441q0 8 0.5 17t3.5 16.5t9 12.5t18 5t18 -4.5t8.5 -12t3 -16.5t0.5 -18v-38q11 14 25 29.5t33.5 28.5t46 21.5t62.5 8.5q30 0 53 -6t39.5 -14.5t28 -18t17.5 -16.5q14 -16 22 -35t11.5 -38t4.5 -35.5t1 -28.5v-299z" />
    <glyph glyph-name="o" unicode="o" 
d="M508 258q0 -78 -19.5 -128t-52.5 -82q-34 -32 -75 -46t-85 -14q-55 0 -98 20t-73 55.5t-45.5 84.5t-15.5 108q0 42 10 90t35.5 89t70.5 68t116 27q39 0 76.5 -10t74.5 -43q13 -12 27.5 -29t26.5 -42.5t19.5 -61.5t7.5 -86zM444 255q0 12 -1.5 33.5t-7 46.5t-16 51
t-29 46.5t-46 34t-66.5 13.5q-76 0 -123 -56.5t-47 -162.5q0 -53 13 -94.5t35.5 -70t53.5 -43.5t68 -15q41 0 72 17t52 46.5t31.5 69t10.5 84.5z" />
    <glyph glyph-name="p" unicode="p" horiz-adv-x="615" 
d="M142 -160q0 -17 -4.5 -34t-26.5 -17q-11 0 -17 4.5t-9 12t-3.5 16.5t-0.5 18v639q0 9 0.5 18t3.5 16.5t9 12t17 4.5t17.5 -4.5t9.5 -12t3.5 -16.5t0.5 -18v-45q10 13 25.5 29.5t38.5 31.5t55 25t75 10q64 0 108.5 -24.5t71.5 -63t39 -86t12 -92.5q0 -35 -9 -82.5
t-35 -90.5t-72 -73t-120 -30q-42 0 -73 9.5t-53.5 23.5t-37.5 30t-25 28v-239zM503 260q0 54 -14 95t-37.5 69t-55 42t-66.5 14q-36 0 -66 -11.5t-53 -30.5q-14 -11 -26.5 -26.5t-22 -37.5t-15 -52t-5.5 -71q0 -56 15 -96t40 -66t58.5 -38.5t69.5 -12.5q34 0 66 13.5t57 41
t40 69t15 98.5z" />
    <glyph glyph-name="q" unicode="q" horiz-adv-x="615" 
d="M473 479q0 9 0.5 18t3.5 16.5t9.5 12t17.5 4.5t17 -4.5t9 -12t3.5 -16.5t0.5 -18v-638q0 -17 -4 -34t-26 -17q-11 0 -17.5 4.5t-9.5 12t-3.5 16.5t-0.5 18v238q-11 -12 -27 -28t-39.5 -30t-54.5 -23.5t-73 -9.5q-66 0 -110.5 27t-71.5 67.5t-38 89t-11 91.5q0 45 11.5 92
t38.5 86t71.5 64t110.5 25q45 0 77.5 -10.5t55 -25.5t37 -31.5t23.5 -28.5v45zM112 260q0 -57 15 -98.5t40 -69t57 -40.5t65 -13q9 0 23.5 1t31 5.5t34.5 13.5t35 25q10 10 21 23.5t19.5 34t14 49.5t5.5 70q0 64 -19 106.5t-47 67t-61 34.5t-61 10q-35 0 -66.5 -14
t-55 -41.5t-37.5 -68.5t-14 -95z" />
    <glyph glyph-name="r" unicode="r" horiz-adv-x="333" 
d="M140 38v-16.5t-2.5 -16t-9 -12.5t-18.5 -5q-13 0 -19.5 5t-9 12.5t-2.5 16v16.5v448q0 15 3.5 30t23.5 15t23.5 -15t3.5 -30v-72q5 14 13 34t21.5 38t34.5 31t52 13q13 0 29 -3.5t30.5 -9.5t24.5 -15t10 -21q0 -14 -9.5 -22t-17.5 -8q-1 0 -7 1.5t-12.5 3.5t-12.5 4t-7 2
q-15 4 -30 4q-7 0 -17.5 -1.5t-23.5 -8t-26 -20.5t-24 -39q-6 -14 -10.5 -38.5t-6.5 -48.5t-3 -43t-1 -23v-206z" />
    <glyph glyph-name="s" unicode="s" horiz-adv-x="500" 
d="M454 145q0 -16 -6.5 -42.5t-28 -52t-63 -44t-110.5 -18.5q-31 0 -54 4t-40.5 10t-30 14t-21.5 16q-24 21 -39 48.5t-15 49.5q0 13 9.5 20.5t20.5 7.5q14 0 20 -10t11 -23q13 -30 32 -47.5t39 -26.5t39.5 -11t32.5 -2q37 0 63.5 8.5t43.5 22.5t25.5 31.5t8.5 35.5
q0 24 -11.5 40t-27.5 26.5t-33.5 16t-29.5 8.5q-39 11 -67.5 18t-49.5 13.5t-37 13.5t-31 18q-19 14 -33.5 38t-14.5 57q0 12 5.5 36t24.5 48.5t55 42.5t97 18q65 0 103 -18.5t57 -41.5t24 -43.5t5 -23.5q0 -2 -1 -6t-4 -8.5t-8.5 -8t-14.5 -3.5q-10 0 -16 5.5t-13 25.5
q-12 35 -47.5 53.5t-81.5 18.5q-25 0 -47.5 -5t-40 -15.5t-27.5 -26t-10 -36.5q0 -35 25 -52.5t62.5 -29t81.5 -20.5t81.5 -25.5t62.5 -45t25 -79.5z" />
    <glyph glyph-name="t" unicode="t" horiz-adv-x="281" 
d="M155 518h56q5 0 12 -0.5t13 -2.5t10 -6.5t4 -12.5q0 -17 -14.5 -20t-24.5 -3h-56v-341q0 -47 10 -68.5t48 -21.5q3 0 9 0.5t12.5 1.5t12.5 1.5t8 0.5q11 0 17 -7t6 -17q0 -17 -19.5 -23.5t-51.5 -6.5q-42 0 -65 12.5t-33.5 31.5t-12.5 42.5t-2 46.5v348h-31q-5 0 -12 0.5
t-13 2.5t-10 6.5t-4 12.5q0 17 14.5 20t24.5 3h31v92q0 29 3.5 47t26.5 18t27 -17t4 -45v-95z" />
    <glyph glyph-name="u" unicode="u" 
d="M71 479q0 8 0.5 17t3.5 16.5t9 12.5t18 5t18 -4.5t8.5 -12t3 -16.5t0.5 -18v-282q0 -32 3.5 -59.5t17.5 -47.5q16 -23 42.5 -35.5t57.5 -12.5q43 0 83.5 24t60.5 68q11 23 14.5 58.5t3.5 101.5v185q0 8 0.5 17t3 16.5t8.5 12.5t18 5t18 -4.5t9 -12t3.5 -16.5t0.5 -18
v-440q0 -9 -0.5 -18t-3.5 -16.5t-9 -12t-18 -4.5t-18 4.5t-8.5 12t-3 16.5t-0.5 18v38q-11 -15 -25 -30.5t-33.5 -28.5t-46 -21.5t-62.5 -8.5q-30 0 -52.5 6t-39.5 14.5t-28.5 18t-17.5 16.5q-15 16 -23 35t-11.5 38t-4 36t-0.5 28v299z" />
    <glyph glyph-name="v" unicode="v" horiz-adv-x="500" 
d="M411 492q7 18 13.5 28t21.5 10q13 0 21.5 -8.5t8.5 -18.5q0 -7 -1.5 -13t-7.5 -20l-176 -439q-9 -22 -16 -32.5t-25 -10.5t-25 10.5t-16 32.5l-175 439q-6 14 -8 19.5t-2 12.5q0 9 8 18.5t22 9.5q16 0 22 -10t13 -28l161 -418z" />
    <glyph glyph-name="w" unicode="w" horiz-adv-x="719" 
d="M322 486q6 20 12.5 32t25.5 12q18 0 24.5 -12t12.5 -32l114 -410l132 415q5 18 11 28.5t23 10.5q12 0 20.5 -8t8.5 -19q0 -6 -1 -11.5t-6 -19.5l-146 -434q-8 -24 -15.5 -37t-27.5 -13q-22 0 -29 14t-14 38l-107 386l-107 -386q-7 -23 -14.5 -37.5t-28.5 -14.5t-28.5 13
t-15.5 37l-146 433q-5 15 -6 20t-1 11q0 10 8 19t22 9q17 0 23 -10.5t11 -29.5l131 -414z" />
    <glyph glyph-name="x" unicode="x" horiz-adv-x="500" 
d="M61 467q-5 6 -11 16t-6 19q0 1 1 6t4.5 9.5t9.5 8.5t16 4t17 -6.5t18 -20.5l140 -183l138 182q11 14 18 21t18 7q14 0 22.5 -9t8.5 -19q0 -9 -4.5 -16.5t-14.5 -19.5l-151 -190l168 -224q8 -10 13 -18.5t5 -17.5q0 -8 -8 -18t-23 -10q-11 0 -20.5 10t-15.5 18l-154 210
l-157 -213q-9 -12 -15.5 -18.5t-18.5 -6.5q-15 0 -22.5 10t-7.5 18q0 9 4 15.5t9 13.5l173 225z" />
    <glyph glyph-name="y" unicode="y" horiz-adv-x="500" 
d="M422 495q7 17 13 26t20 9q12 0 20 -8.5t8 -16.5q0 -7 -2 -12t-7 -18l-228 -578q-14 -34 -28.5 -55t-30 -32.5t-31.5 -15.5t-32 -4q-9 0 -21.5 1t-23.5 5t-18.5 11t-7.5 19q0 10 6.5 19t20.5 9q6 0 20.5 -1t19.5 -1q29 0 42 15.5t24 41.5l36 91l-185 468q-5 14 -7 20
t-2 13q0 10 8 19.5t22 9.5q17 0 23.5 -11.5t13.5 -30.5l159 -418z" />
    <glyph glyph-name="z" unicode="z" horiz-adv-x="500" 
d="M71 468q-14 0 -28 3t-14 22t14 22t28 3h333q23 0 31 -1t16 -9q5 -5 7.5 -10.5t2.5 -10.5q0 -8 -3.5 -13t-19.5 -23l-337 -397h344q15 0 29.5 -4t14.5 -23q0 -20 -14.5 -23.5t-29.5 -3.5h-381q-9 0 -18.5 0.5t-17 3.5t-12 9.5t-4.5 18.5q0 8 4.5 14.5t16.5 20.5l343 401
h-305z" />
    <glyph glyph-name="braceleft" unicode="{" horiz-adv-x="333" 
d="M101 259q17 -8 36 -20t33 -38q10 -18 15.5 -35t8 -35.5t3 -41t0.5 -52.5q0 -45 0.5 -71.5t1.5 -42.5t3 -25t6 -19q7 -18 20 -23.5t30 -9.5q11 -2 19.5 -10t8.5 -19q0 -12 -9 -19.5t-23 -7.5t-27.5 4.5t-23.5 10.5q-33 20 -46.5 54.5t-13.5 96.5t-0.5 100.5t-2 61.5
t-5 36.5t-9.5 26.5q-11 23 -26.5 31.5t-38.5 16.5q-5 2 -13 7t-8 22t9 23.5t22 11.5q21 7 35 19t22 31t11.5 46t3.5 65q0 58 0.5 95t2.5 61t7 38.5t14 27.5q18 26 41 39t43 13q16 0 25.5 -7.5t9.5 -19.5q0 -17 -10.5 -21.5t-23.5 -6.5q-18 -3 -29 -12t-16.5 -27.5
t-7.5 -47.5t-2 -72q0 -39 -0.5 -63.5t-1.5 -41t-3 -28t-6 -22.5q-9 -26 -19.5 -43t-22 -28t-22.5 -18t-21 -11z" />
    <glyph glyph-name="bar" unicode="|" horiz-adv-x="219" 
d="M134 -163q0 -17 -3 -32t-21 -15q-19 0 -22 15t-3 32v844q0 17 3 32t21 15q19 0 22 -15t3 -32v-844z" />
    <glyph glyph-name="braceright" unicode="}" horiz-adv-x="333" 
d="M232 259q-17 8 -36 20t-33 38q-10 18 -15.5 35t-8 35.5t-3 41t-0.5 52.5q0 45 -0.5 71.5t-1.5 42.5t-3 25t-6 19q-7 18 -20 23.5t-30 9.5q-11 2 -19.5 10t-8.5 19q0 12 9 19.5t23 7.5t27.5 -4.5t23.5 -10.5q33 -20 46.5 -54.5t13.5 -96.5t0.5 -100.5t2 -61.5t5 -36.5
t9.5 -26.5q11 -23 26.5 -31.5t38.5 -16.5q5 -2 13 -7t8 -22t-9 -23.5t-22 -11.5q-21 -8 -35 -19.5t-22 -30.5t-11.5 -46t-3.5 -65q0 -58 -0.5 -95t-2.5 -61t-7 -38.5t-14 -27.5q-18 -26 -41 -39t-43 -13q-16 0 -25.5 7.5t-9.5 19.5q0 17 10.5 21.5t23.5 6.5q18 3 29 12
t16.5 27.5t7.5 47.5t2 72q0 39 0.5 63.5t1.5 41t3 28t6 22.5q9 25 19.5 42.5t22 28.5t22.5 17.5t21 11.5z" />
    <glyph glyph-name="asciitilde" unicode="~" horiz-adv-x="656" 
d="M589 345q-35 -23 -66.5 -39.5t-69.5 -16.5q-31 0 -60.5 11.5t-69.5 29.5q-8 4 -22 10t-30.5 12t-33.5 10.5t-31 4.5q-16 0 -33.5 -5t-35.5 -14t-36 -21t-34 -25v54q44 32 76 45t61 13q34 0 61.5 -10t65.5 -29q28 -14 48.5 -21.5t34.5 -11.5t23 -5t16 -1q21 0 41.5 8
t39 19t33 22t22.5 18v-58z" />
    <glyph glyph-name="uni00A0" unicode="&#xa0;" horiz-adv-x="276" 
 />
    <glyph glyph-name="exclamdown" unicode="&#xa1;" horiz-adv-x="333" 
d="M204 -148q0 -11 -0.5 -22t-4 -20t-11 -14.5t-21.5 -5.5t-21.5 5.5t-11 14.5t-4 20t-0.5 22v111l15 323q1 24 4 38t18 14t18 -15t4 -37l15 -323v-111zM121 485q0 19 13.5 32t32.5 13q18 0 31.5 -13t13.5 -32t-13.5 -32.5t-31.5 -13.5q-19 0 -32.5 13.5t-13.5 32.5z" />
    <glyph glyph-name="cent" unicode="&#xa2;" 
d="M241 42q10 -2 21 -3t22 -1q13 0 32 3.5t39 13t39.5 26.5t33.5 44q1 2 4.5 8t6.5 13t6 12.5t4 7.5q4 6 9 10.5t14 4.5q2 0 7 -1t10 -4t9 -9t4 -15q0 -14 -14.5 -42.5t-39.5 -55.5q-35 -38 -78.5 -52t-88.5 -14q-20 0 -32 1.5t-23 3.5l-38 -130q-5 -18 -11.5 -32.5
t-20.5 -14.5q-8 0 -13 6t-5 16q0 8 2 15.5t6 21.5l38 130q-9 4 -22 10.5t-27.5 18t-30 29t-28.5 44.5q-11 21 -17 44t-9 43.5t-4 37.5t-1 26q0 48 11 96.5t38.5 87.5t73 63.5t114.5 24.5q20 0 33 -1.5t23 -3.5l40 135q5 18 12 32t21 14q8 0 13 -5.5t5 -12.5q0 -8 -2 -16.5
t-7 -23.5l-40 -135q28 -12 49 -30.5t34.5 -37.5t20.5 -35.5t7 -24.5t-8.5 -17t-19.5 -9t-17 5.5t-14 21.5q-17 36 -36.5 52t-30.5 22zM324 475q-8 2 -16 3.5t-22 1.5q-33 0 -65 -11.5t-57.5 -37t-41.5 -67t-16 -102.5q0 -30 5 -60.5t16 -57.5t28.5 -49.5t43.5 -37.5z" />
    <glyph glyph-name="sterling" unicode="&#xa3;" 
d="M315 383q7 0 14.5 -0.5t13.5 -2.5t10 -7.5t4 -14.5q0 -10 -4 -15t-10 -7.5t-13.5 -2.5h-14.5h-129q5 -20 8 -34t3 -32q0 -35 -8.5 -63.5t-21 -52.5t-28 -44t-29.5 -36q12 2 38 6.5t55 4.5q22 0 54.5 -4.5t64.5 -14.5q17 -5 28 -8.5t19.5 -5t16 -2t16.5 -0.5q15 0 26 2.5
t33 11.5q20 8 28 10.5t14 2.5q12 0 20 -10t8 -22q0 -16 -10 -23.5t-25 -12.5q-14 -6 -40.5 -12t-52.5 -6q-19 0 -43.5 4.5t-62.5 15.5q-26 8 -42.5 12.5t-29 7t-22.5 3.5t-22 1q-14 0 -24 -1t-20.5 -4t-23.5 -9t-34 -16q-2 -1 -8.5 -3.5t-13.5 -2.5q-8 0 -20.5 8.5
t-12.5 26.5q0 5 2.5 12t17.5 21q30 27 47.5 52.5t26.5 49.5t12 45t3 38q0 25 -4.5 47t-8.5 37h-63q-14 0 -28 2.5t-14 21.5t14 22.5t28 3.5h48q-8 29 -13.5 49.5t-9 36.5t-5 28.5t-1.5 25.5q0 42 15.5 79.5t44 65t68 44t88.5 16.5t87.5 -16.5t65.5 -41t41 -54t14 -56.5
q0 -11 -8.5 -20t-22.5 -9q-17 0 -23 10t-8 18q-12 36 -28.5 58.5t-35.5 35.5t-39.5 18t-41.5 5q-33 0 -60.5 -11t-47.5 -30.5t-31.5 -46.5t-11.5 -60q0 -15 1.5 -29t5 -30.5t9 -37t14.5 -48.5h143z" />
    <glyph glyph-name="currency" unicode="&#xa4;" 
d="M471 188q14 -14 19 -20t5 -15q0 -6 -4 -12.5t-16 -6.5q-9 0 -15 4t-20 18l-29 28q-21 -17 -41.5 -26.5t-38.5 -14t-32.5 -6t-23.5 -1.5q-27 0 -49 5.5t-39 13t-28.5 16t-18.5 13.5l-27 -27q-14 -14 -20 -18.5t-16 -4.5t-14.5 6t-4.5 14q0 9 4.5 15.5t17.5 19.5l27 27
q-6 7 -14 19t-15.5 29t-12.5 39t-5 49q0 52 17 84.5t30 50.5l-27 28q-13 14 -17.5 20t-4.5 15q0 20 20 20q9 0 15 -5t20 -18l27 -29q21 15 54 32t83 17q25 0 46 -5t37.5 -12.5t29 -16t21.5 -15.5l29 29q11 11 18.5 17t17.5 6q6 0 12.5 -4t6.5 -15q0 -10 -5 -16t-18 -19
l-29 -29q23 -29 36 -63.5t13 -71.5q0 -24 -7 -50t-17 -47q-6 -13 -11.5 -21.5t-13.5 -17.5zM444 350q0 35 -13.5 66t-36.5 54t-53.5 36t-65.5 13t-65.5 -13t-53 -36t-35.5 -54t-13 -66t13 -65t35.5 -52.5t53 -35.5t65.5 -13t65.5 13t53.5 35.5t36.5 52.5t13.5 65z" />
    <glyph glyph-name="yen" unicode="&#xa5;" 
d="M277 360l193 337q11 19 18 25t17 6q13 0 19.5 -9t6.5 -18q0 -11 -4.5 -20t-10.5 -19l-176 -302h130q7 0 15 -0.5t15.5 -2.5t12.5 -6.5t5 -13.5q0 -8 -5 -12.5t-12.5 -6.5t-16 -2.5t-14.5 -0.5h-156l-7 -11v-66h163q7 0 15 -0.5t15.5 -2.5t12.5 -6.5t5 -13.5t-5 -13.5
t-12.5 -6.5t-15.5 -2h-15h-163v-152q0 -9 -0.5 -18.5t-3.5 -17t-9 -12.5t-18 -5q-24 0 -28.5 17t-4.5 35v153h-165h-15t-15.5 2t-12.5 6.5t-5 13.5t5 13.5t12.5 6.5t15.5 2.5t15 0.5h165v66l-6 11h-159q-7 0 -15 0.5t-15 2.5t-12 6.5t-5 12.5q0 9 5 13.5t12 6.5t15.5 2.5
t14.5 0.5h131l-173 302q-5 9 -10 18.5t-5 20.5q0 8 6.5 17.5t20.5 9.5q10 0 17 -7t17 -24z" />
    <glyph glyph-name="brokenbar" unicode="&#xa6;" horiz-adv-x="219" 
d="M135 395q0 -17 -3 -32t-22 -15t-22 15t-3 32v286q0 17 3 32t22 15t22 -15t3 -32v-286zM135 -163q0 -17 -3 -32t-22 -15t-22 15t-3 32v285q0 17 3 32t21 15q20 0 23 -15t3 -32v-285z" />
    <glyph glyph-name="section" unicode="&#xa7;" 
d="M139 171q-43 28 -68 64.5t-25 81.5q0 33 13.5 56.5t32.5 39.5t39 25t33 14q-9 7 -22 17.5t-24 25.5t-19 36t-8 49q0 27 11 53.5t33 47.5t55.5 34t78.5 13q57 0 94 -19t58.5 -44t30 -50.5t8.5 -37.5q0 -11 -9 -21t-24 -10q-18 0 -24 11.5t-10 24.5q-4 12 -12 28
t-22.5 30.5t-37 24t-53.5 9.5q-34 0 -56.5 -10.5t-35.5 -25t-18.5 -30.5t-5.5 -28q0 -19 7 -34t18.5 -26.5t25 -21t26.5 -18.5l197 -129q42 -27 61 -56.5t19 -71.5q0 -34 -13 -58t-32 -40.5t-40.5 -26.5t-37.5 -17q12 -8 27.5 -19t28.5 -27.5t22 -38.5t9 -52
q0 -27 -11.5 -54.5t-35.5 -49.5t-60 -36t-85 -14q-58 0 -96 20t-61 47t-32.5 53t-9.5 38q0 14 9.5 23.5t23.5 9.5q17 0 23.5 -10.5t8.5 -18.5q5 -17 12.5 -35.5t22.5 -35t39 -27t61 -10.5q43 0 69 12t40 28t18.5 32t4.5 25q0 35 -23.5 59t-56.5 46zM208 421q-12 -4 -30 -11
t-34.5 -19t-28.5 -29t-12 -41q0 -20 9 -37t21 -30.5t24.5 -23.5t19.5 -14l158 -101q13 4 32 10.5t37 17.5t30.5 29t12.5 44q0 19 -6.5 33.5t-17 26t-22.5 20t-24 16.5z" />
    <glyph glyph-name="dieresis" unicode="&#xa8;" horiz-adv-x="333" 
d="M133 634q0 -17 -12.5 -29.5t-29.5 -12.5q-18 0 -30.5 12.5t-12.5 29.5q0 18 12.5 30.5t30.5 12.5q17 0 29.5 -12.5t12.5 -30.5zM285 634q0 -17 -12.5 -29.5t-30.5 -12.5q-17 0 -29.5 12.5t-12.5 29.5q0 18 12.5 30.5t29.5 12.5q18 0 30.5 -12.5t12.5 -30.5z" />
    <glyph glyph-name="copyright" unicode="&#xa9;" horiz-adv-x="802" 
d="M516 437q-11 26 -25 42t-28.5 24.5t-29 11.5t-27.5 3q-14 0 -36.5 -5.5t-45 -22.5t-38.5 -48t-16 -83q0 -43 11 -75.5t29 -54t41.5 -32.5t49.5 -11q31 0 51.5 10.5t34.5 25.5t22 32.5t14 31.5l44 -16q-8 -20 -19 -44t-37 -46q-24 -20 -53 -29t-55 -9q-46 0 -81 19
t-58.5 49.5t-35.5 68.5t-12 77q0 35 11 71t34.5 65.5t59 48t85.5 18.5q33 0 58 -9.5t43.5 -25t32 -35t23.5 -38.5zM774 355q0 -77 -29.5 -145t-80 -118.5t-118.5 -80t-145 -29.5t-145 29.5t-118.5 80t-80 118.5t-29.5 145t29.5 145t80 118.5t118.5 80t145 29.5t145 -29.5
t118.5 -80t80 -118.5t29.5 -145zM728 355q0 68 -25.5 127.5t-70 104t-104 70t-127.5 25.5t-127.5 -25.5t-104 -70t-70 -104t-25.5 -127.5t25.5 -127.5t70 -104t104 -70t127.5 -25.5t127.5 25.5t104 70t70 104t25.5 127.5z" />
    <glyph glyph-name="ordfeminine" unicode="&#xaa;" horiz-adv-x="365" 
d="M273 608q0 38 -19 58t-68 20q-7 0 -21 -0.5t-29 -5t-28.5 -14t-19.5 -27.5q-5 -12 -9.5 -20.5t-18.5 -8.5q-11 0 -18 7t-7 17q0 11 7 25t18 26q8 9 18 16.5t24.5 13.5t34.5 9.5t48 3.5q44 0 71 -8.5t41.5 -24.5t19.5 -39.5t5 -53.5v-129q0 -16 0.5 -28.5t2.5 -27.5
q1 -4 3.5 -16.5t2.5 -16.5q0 -7 -6.5 -14.5t-17.5 -7.5q-15 0 -22 16.5t-12 39.5q-20 -20 -41 -31t-40 -16.5t-34.5 -7t-23.5 -1.5q-47 0 -79 25t-32 72q0 33 14 53.5t35 32t47 16.5t50 9q30 5 54.5 10.5t49.5 11.5v16zM273 552q-26 -8 -51.5 -13t-51.5 -10q-15 -3 -32 -6.5
t-31.5 -10t-24 -18t-9.5 -30.5q0 -26 22 -44t55 -18q23 0 49 10.5t48 31.5q10 11 18 29.5t8 53.5v25z" />
    <glyph glyph-name="guillemotleft" unicode="&#xab;" 
d="M456 77q4 -8 8 -15t4 -14q0 -6 -6 -14.5t-20 -8.5q-10 0 -15.5 6t-13.5 20l-106 170q-11 17 -13.5 21.5t-2.5 8.5t2.5 9t13.5 22l106 170q9 14 14 20t15 6q13 0 19.5 -8.5t6.5 -14.5q0 -7 -4 -15t-8 -14l-104 -175zM248 77q4 -8 8 -15t4 -14q0 -6 -6 -14.5t-20 -8.5
q-10 0 -15.5 6t-13.5 20l-106 170q-11 17 -13.5 21.5t-2.5 8.5t2.5 9t13.5 22l106 170q9 14 14 20t15 6q13 0 19.5 -8.5t6.5 -14.5q0 -7 -4 -15t-8 -14l-104 -175z" />
    <glyph glyph-name="logicalnot" unicode="&#xac;" horiz-adv-x="656" 
d="M590 492v-284h-45v239h-478v45h523z" />
    <glyph glyph-name="uni00AD" unicode="&#xad;" horiz-adv-x="333" 
d="M257 281q9 0 18.5 -0.5t17 -3.5t12.5 -9t5 -18t-5 -18.5t-12.5 -9.5t-17 -3.5t-18.5 -0.5h-181q-9 0 -18.5 0.5t-17 3.5t-12.5 9t-5 18t5 18.5t12.5 9.5t17 3.5t18.5 0.5h181z" />
    <glyph glyph-name="registered" unicode="&#xae;" horiz-adv-x="802" 
d="M774 355q0 -77 -29.5 -145t-80 -118.5t-118.5 -80t-145 -29.5t-145 29.5t-118.5 80t-80 118.5t-29.5 145t29.5 145t80 118.5t118.5 80t145 29.5t145 -29.5t118.5 -80t80 -118.5t29.5 -145zM728 355q0 68 -25.5 127.5t-70 104t-104 70t-127.5 25.5t-127.5 -25.5t-104 -70
t-70 -104t-25.5 -127.5t25.5 -127.5t70 -104t104 -70t127.5 -25.5t127.5 25.5t104 70t70 104t25.5 127.5zM413 547q50 0 77 -14.5t39.5 -33t14.5 -35.5t2 -21q0 -29 -13 -53t-36 -38q-14 -9 -29.5 -13t-37.5 -7q20 -8 34.5 -16t28 -25.5t29 -49.5t39.5 -86h-59
q-25 54 -42.5 87.5t-36 52t-42 24.5t-59.5 6h-23v-170h-49v392h163zM299 366h65q24 0 46.5 2t40 9.5t28 22t10.5 39.5q0 24 -9 37.5t-25 20.5t-37 8.5t-46 1.5h-73v-141z" />
    <glyph glyph-name="macron" unicode="&#xaf;" horiz-adv-x="333" 
d="M265 653q16 0 32.5 -3.5t16.5 -23.5t-16.5 -23.5t-32.5 -3.5h-197q-16 0 -32.5 3.5t-16.5 23.5t16.5 23.5t32.5 3.5h197z" />
    <glyph glyph-name="degree" unicode="&#xb0;" horiz-adv-x="396" 
d="M338 588q0 -29 -11 -54.5t-30 -44.5t-44.5 -30t-54.5 -11t-54.5 11t-44.5 30t-30 44.5t-11 54.5t11 54.5t30 44.5t44.5 30t54.5 11t54.5 -11t44.5 -30t30 -44.5t11 -54.5zM298 588q0 42 -29 71t-71 29t-71 -29t-29 -71t29 -71t71 -29t71 29t29 71z" />
    <glyph glyph-name="plusminus" unicode="&#xb1;" horiz-adv-x="656" 
d="M590 45v-45h-523v45h523zM351 613v-239h239v-45h-239v-239h-45v239h-239v45h239v239h45z" />
    <glyph glyph-name="uni00B2" unicode="&#xb2;" horiz-adv-x="333" 
d="M257 389q33 0 43.5 -4t10.5 -18q0 -12 -10 -16.5t-44 -4.5h-160q-35 0 -46 8.5t-11 25.5q0 40 123 127q28 20 46 34t28 26t13.5 22.5t3.5 22.5q0 26 -20.5 43t-55.5 17q-68 0 -90 -52q-9 -21 -26 -21q-11 0 -18.5 7.5t-7.5 17.5q0 13 10.5 29.5t29 30t44.5 23t58 9.5
q64 0 98 -28t34 -73q0 -31 -20 -62q-6 -9 -20 -23t-32.5 -29.5t-39.5 -32.5t-40 -32t-34 -27.5t-22 -19.5h155z" />
    <glyph glyph-name="uni00B3" unicode="&#xb3;" horiz-adv-x="333" 
d="M237 547q77 -20 77 -94q0 -51 -39.5 -82t-102.5 -31q-33 0 -59 9.5t-44 23t-28 29t-10 28.5q0 11 7.5 19t19.5 8q16 0 27 -24q22 -48 86 -48q40 0 64.5 20t24.5 51q0 55 -69 63q-40 3 -40 24q0 10 8 15t32 11q52 12 52 49q0 19 -17 36t-53 17q-57 0 -80 -44
q-11 -20 -27 -20q-10 0 -17.5 7.5t-7.5 17.5q0 12 10 27t27.5 27.5t42 21t53.5 8.5q57 0 90.5 -26t33.5 -65q0 -56 -61 -78z" />
    <glyph glyph-name="acute" unicode="&#xb4;" horiz-adv-x="333" 
d="M169 596q-10 -11 -14.5 -15t-12.5 -4q-11 0 -16.5 7.5t-5.5 12.5t2 9.5t7 15.5l25 54q6 13 10.5 21t9.5 12t12 5.5t18 1.5h29q26 0 26 -8q0 -5 -6 -12.5t-15 -18.5z" />
    <glyph glyph-name="mu" unicode="&#xb5;" 
d="M139 -160q0 -17 -4 -33.5t-26 -16.5q-12 0 -18 4.5t-9 12t-3.5 16t-0.5 17.5v639q0 8 0.5 17t3.5 16.5t9 12.5t18 5t18 -5t8.5 -12.5t3 -16.5t0.5 -17v-176q0 -35 0.5 -62t2 -48.5t5 -38t9.5 -30.5q12 -28 27.5 -45t33 -26t34 -12t29.5 -3q38 0 68.5 18t50.5 60
q7 16 11.5 40t7 50.5t3 52t0.5 43.5v177q0 8 0.5 17t3.5 16.5t9 12.5t18 5q11 0 17 -5t9 -12.5t3.5 -16.5t0.5 -17v-440q0 -17 -4 -34t-26 -17q-12 0 -18 4.5t-9 12t-3.5 16.5t-0.5 18v19q-9 -10 -21 -22t-29.5 -22.5t-40.5 -18t-53 -7.5q-29 0 -51 7.5t-38.5 18t-28 22.5
t-20.5 22v-218z" />
    <glyph glyph-name="paragraph" unicode="&#xb6;" horiz-adv-x="646" 
d="M619 660h-96v-847h-64v847h-128v-847h-64v504q-69 0 -112 22.5t-67 55t-32.5 68t-8.5 61.5q0 43 15 80t44.5 64.5t73 43.5t101.5 16h338v-68z" />
    <glyph glyph-name="periodcentered" unicode="&#xb7;" horiz-adv-x="281" 
d="M186 351q0 -19 -13.5 -32t-32.5 -13q-18 0 -31.5 13t-13.5 32t13.5 32.5t31.5 13.5q19 0 32.5 -13.5t13.5 -32.5z" />
    <glyph glyph-name="cedilla" unicode="&#xb8;" horiz-adv-x="333" 
d="M127 -10q4 14 9 23.5t19 9.5q10 0 16.5 -6.5t6.5 -15.5q0 -5 -0.5 -9t-4.5 -15l-7 -26q17 0 33 -3.5t28 -11.5t19 -20.5t7 -31.5q0 -42 -41.5 -62t-110.5 -20q-4 0 -11 0.5t-14.5 2.5t-13 6.5t-5.5 13.5q0 15 14 17.5t25 2.5q28 0 45.5 4.5t27.5 11t13.5 14t3.5 14.5
q0 10 -4.5 15.5t-11.5 8t-15.5 3.5t-16.5 2q-10 0 -18.5 6t-3.5 25z" />
    <glyph glyph-name="uni00B9" unicode="&#xb9;" horiz-adv-x="333" 
d="M172 637q-6 -6 -19.5 -14.5t-28.5 -16.5t-28 -14t-17 -6q-16 0 -16 19q0 15 29 33q24 15 41 29t29.5 25t21 17.5t13.5 6.5q15 0 21.5 -12.5t6.5 -44.5v-275q0 -27 -7 -35.5t-20 -8.5t-19.5 8.5t-6.5 35.5v253z" />
    <glyph glyph-name="ordmasculine" unicode="&#xba;" horiz-adv-x="365" 
d="M342 543q0 -53 -15.5 -88t-39 -56t-51.5 -29.5t-52 -8.5q-29 0 -58 9.5t-49 27.5q-18 16 -28.5 36t-16.5 40.5t-7.5 39t-1.5 31.5q0 63 16 95t38 51q29 25 56.5 31t47.5 6q36 0 65.5 -12.5t51 -36.5t33 -58.5t11.5 -77.5zM292 540q0 25 -5 51t-17.5 46.5t-34.5 33.5
t-55 13t-54 -13t-33 -33.5t-16 -45t-4 -48.5q0 -28 5.5 -53.5t18.5 -44.5t33.5 -30t49.5 -11q4 0 13 0.5t19.5 3.5t22.5 10t23 19q13 15 23.5 37t10.5 65z" />
    <glyph glyph-name="guillemotright" unicode="&#xbb;" 
d="M96 426q-4 8 -8 15t-4 14q0 6 6 14.5t20 8.5q10 0 15.5 -6t13.5 -20l106 -170q11 -17 13.5 -21.5t2.5 -8.5t-2.5 -9t-13.5 -22l-106 -170q-9 -14 -14 -20t-15 -6q-13 0 -19.5 8.5t-6.5 14.5q0 7 4 15t8 14l104 175zM304 426q-4 8 -8 15t-4 14q0 6 6 14.5t20 8.5
q10 0 15.5 -6t13.5 -20l106 -170q11 -17 13.5 -21.5t2.5 -8.5t-2.5 -9t-13.5 -22l-106 -170q-9 -14 -14 -20t-15 -6q-13 0 -19.5 8.5t-6.5 14.5q0 7 4 15t8 14l104 175z" />
    <glyph glyph-name="onequarter" unicode="&#xbc;" horiz-adv-x="833" 
d="M224 395q0 -15 -3.5 -29.5t-22.5 -14.5q-10 0 -15 4t-7.5 10.5t-3 14t-0.5 15.5v255q-28 -22 -53 -36.5t-40 -14.5q-8 0 -12 5.5t-4 13.5q0 6 1 9.5t6.5 8t16 11.5l28.5 19q9 6 15.5 10.5t13 10t14 12.5t19.5 19q3 3 7.5 6.5t12.5 3.5q10 0 15.5 -5.5t8 -14t3 -18
t0.5 -18.5v-277zM634 696q15 22 20 27t14 5q12 0 17.5 -8t5.5 -12q0 -7 -4.5 -15t-8.5 -14l-486 -685q-10 -14 -16 -17t-11 -3q-11 0 -16.5 7t-5.5 13q0 7 3 13.5t8 11.5zM713 87h-138q-33 0 -44.5 7t-11.5 25q0 12 22 37l156 185q17 20 23 24.5t17 4.5q16 0 22.5 -12
t6.5 -45v-187q27 0 36.5 -3.5t9.5 -15.5q0 -20 -32 -20h-14v-50q0 -26 -7 -34.5t-19 -8.5q-13 0 -20 8.5t-7 34.5v50zM713 126v167l-143 -167h143z" />
    <glyph glyph-name="onehalf" unicode="&#xbd;" horiz-adv-x="833" 
d="M634 696q15 22 20 27t14 5q12 0 17.5 -8t5.5 -12q0 -7 -4.5 -15t-8.5 -14l-486 -685q-10 -14 -16 -17t-11 -3q-11 0 -17 7t-6 13q0 7 3.5 13.5t8.5 11.5zM172 637q-6 -6 -19.5 -14.5t-28.5 -16.5t-28 -14t-17 -6q-16 0 -16 19q0 15 29 33q24 15 41 29t29.5 25t21 17.5
t13.5 6.5q15 0 21.5 -12.5t6.5 -44.5v-275q0 -27 -7 -35.5t-20 -8.5t-19.5 8.5t-6.5 35.5v253zM757 43q33 0 43.5 -4t10.5 -18q0 -12 -10 -16.5t-44 -4.5h-160q-35 0 -46 8.5t-11 25.5q0 40 123 127q28 20 46 34t28 26t13.5 22.5t3.5 22.5q0 26 -20.5 43t-55.5 17
q-68 0 -90 -52q-9 -21 -26 -21q-11 0 -18.5 7.5t-7.5 17.5q0 13 10.5 29.5t29 30t44.5 23t58 9.5q64 0 98 -28t34 -73q0 -31 -20 -62q-6 -9 -20 -23t-32.5 -29.5t-39.5 -32.5t-40 -32t-34 -27.5t-22 -19.5h155z" />
    <glyph glyph-name="threequarters" unicode="&#xbe;" horiz-adv-x="833" 
d="M669 696q15 22 20 27t14 5q12 0 17.5 -8t5.5 -12q0 -7 -4.5 -15t-8.5 -14l-485 -685q-11 -14 -16.5 -17t-10.5 -3q-11 0 -17 7t-6 13q0 7 3.5 13.5t7.5 11.5zM713 87h-138q-33 0 -44.5 7t-11.5 25q0 12 22 37l156 185q17 20 23 24.5t17 4.5q16 0 22.5 -12t6.5 -45v-187
q27 0 36.5 -3.5t9.5 -15.5q0 -20 -32 -20h-14v-50q0 -26 -7 -34.5t-19 -8.5q-13 0 -20 8.5t-7 34.5v50zM713 126v167l-143 -167h143zM237 547q77 -20 77 -94q0 -51 -39.5 -82t-102.5 -31q-33 0 -59 9.5t-44 23t-28 29t-10 28.5q0 11 7.5 19t19.5 8q16 0 27 -24
q22 -48 86 -48q40 0 64.5 20t24.5 51q0 55 -69 63q-40 3 -40 24q0 10 8 15t32 11q52 12 52 49q0 19 -17 36t-53 17q-57 0 -80 -44q-11 -20 -27 -20q-10 0 -17.5 7.5t-7.5 17.5q0 12 10 27t27.5 27.5t42 21t53.5 8.5q57 0 90.5 -26t33.5 -65q0 -56 -61 -78z" />
    <glyph glyph-name="questiondown" unicode="&#xbf;" horiz-adv-x="500" 
d="M289 313q0 -32 -4.5 -56.5t-15.5 -46t-29 -43t-45 -45.5q-21 -20 -37.5 -36.5t-27.5 -33t-16.5 -33.5t-5.5 -38q0 -28 10.5 -52.5t29 -43t43.5 -29t54 -10.5q41 0 67 16t41.5 37.5t22.5 42.5t10 32q3 12 11.5 20t21.5 8q14 0 24 -9.5t10 -21.5q0 -21 -12.5 -52t-39 -59.5
t-67 -49t-95.5 -20.5q-57 0 -95.5 19.5t-61.5 48t-32.5 61.5t-9.5 60q0 24 5.5 46.5t18 44t32 44.5t47.5 49q29 27 45 45t24 34.5t10.5 33.5t4.5 43q0 3 1 8.5t4 11.5t9 10.5t17 4.5q12 0 18 -5.5t9 -12t3.5 -13.5t0.5 -10zM208 485q0 19 13.5 32t32.5 13q18 0 31.5 -13
t13.5 -32t-13.5 -32.5t-31.5 -13.5q-19 0 -32.5 13.5t-13.5 32.5z" />
    <glyph glyph-name="Agrave" unicode="&#xc0;" horiz-adv-x="667" 
d="M164 228l-78 -198q-8 -21 -15 -31.5t-25 -10.5q-14 0 -23.5 9.5t-9.5 20.5q0 8 2 14.5t9 22.5l250 616q11 29 21 43t33 14t32 -13.5t22 -42.5l261 -614q7 -16 9 -23t2 -15q0 -10 -9 -21t-26 -11t-24.5 11t-16.5 32l-80 197h-334zM475 284l-148 362l-142 -362h290z
M262 866q-9 11 -15 18.5t-6 12.5q0 8 26 8h29q11 0 18 -1.5t12 -5.5t9.5 -12t10.5 -21l25 -54q5 -11 7 -15.5t2 -9.5t-5.5 -12.5t-16.5 -7.5q-8 0 -12.5 4t-14.5 15z" />
    <glyph glyph-name="Aacute" unicode="&#xc1;" horiz-adv-x="667" 
d="M164 228l-78 -198q-8 -21 -15 -31.5t-25 -10.5q-14 0 -23.5 9.5t-9.5 20.5q0 8 2 14.5t9 22.5l250 616q11 29 21 43t33 14t32 -13.5t22 -42.5l261 -614q7 -16 9 -23t2 -15q0 -10 -9 -21t-26 -11t-24.5 11t-16.5 32l-80 197h-334zM475 284l-148 362l-142 -362h290z
M336 785q-10 -11 -14.5 -15t-12.5 -4q-11 0 -16.5 7.5t-5.5 12.5t2 9.5t7 15.5l25 54q6 13 10.5 21t9.5 12t12 5.5t18 1.5h29q26 0 26 -8q0 -5 -6 -12.5t-15 -18.5z" />
    <glyph glyph-name="Acircumflex" unicode="&#xc2;" horiz-adv-x="667" 
d="M164 228l-78 -198q-8 -21 -15 -31.5t-25 -10.5q-14 0 -23.5 9.5t-9.5 20.5q0 8 2 14.5t9 22.5l250 616q11 29 21 43t33 14t32 -13.5t22 -42.5l261 -614q7 -16 9 -23t2 -15q0 -10 -9 -21t-26 -11t-24.5 11t-16.5 32l-80 197h-334zM475 284l-148 362l-142 -362h290z
M446 809q4 -6 9.5 -13.5t5.5 -10.5q0 -6 -5.5 -7t-13.5 -1q-20 0 -26 0.5t-12 3.5q-5 2 -12 11t-14 17l-44 58l-43 -58q-9 -11 -14 -17.5t-10 -9.5t-10.5 -4t-15.5 -1q-23 0 -29 1t-6 7q0 4 6.5 13t10.5 14l32 43q13 18 22.5 30t18 19t17 10t20.5 3t21 -3t17.5 -10.5t18 -19
t22.5 -29.5z" />
    <glyph glyph-name="Atilde" unicode="&#xc3;" horiz-adv-x="667" 
d="M164 228l-78 -198q-8 -21 -15 -31.5t-25 -10.5q-14 0 -23.5 9.5t-9.5 20.5q0 8 2 14.5t9 22.5l250 616q11 29 21 43t33 14t32 -13.5t22 -42.5l261 -614q7 -16 9 -23t2 -15q0 -10 -9 -21t-26 -11t-24.5 11t-16.5 32l-80 197h-334zM475 284l-148 362l-142 -362h290z
M450 881q8 0 15 -7.5t7 -24.5q0 -15 -5.5 -26t-14.5 -18t-19 -10.5t-19 -3.5q-7 0 -13 0.5t-14.5 2.5t-22 7t-35.5 13q-14 5 -32.5 10.5t-32.5 5.5q-19 0 -27 -18q-3 -7 -7 -13t-12 -6t-15.5 8t-7.5 24q0 20 16 39t43 19q7 0 13.5 -1t16.5 -3.5t26.5 -7.5t43.5 -14
q28 -9 35.5 -11t14.5 -2q8 0 13.5 3t12.5 15q4 7 7.5 13t12.5 6z" />
    <glyph glyph-name="Adieresis" unicode="&#xc4;" horiz-adv-x="667" 
d="M164 228l-78 -198q-8 -21 -15 -31.5t-25 -10.5q-14 0 -23.5 9.5t-9.5 20.5q0 8 2 14.5t9 22.5l250 616q11 29 21 43t33 14t32 -13.5t22 -42.5l261 -614q7 -16 9 -23t2 -15q0 -10 -9 -21t-26 -11t-24.5 11t-16.5 32l-80 197h-334zM475 284l-148 362l-142 -362h290z
M300 823q0 -17 -12.5 -29.5t-29.5 -12.5q-18 0 -30.5 12.5t-12.5 29.5q0 18 12.5 30.5t30.5 12.5q17 0 29.5 -12.5t12.5 -30.5zM452 823q0 -17 -12.5 -29.5t-30.5 -12.5q-17 0 -29.5 12.5t-12.5 29.5q0 18 12.5 30.5t29.5 12.5q18 0 30.5 -12.5t12.5 -30.5z" />
    <glyph glyph-name="Aring" unicode="&#xc5;" horiz-adv-x="667" 
d="M164 228l-78 -198q-8 -21 -15 -31.5t-25 -10.5q-14 0 -23.5 9.5t-9.5 20.5q0 8 2 14.5t9 22.5l250 616q11 29 21 43t33 14t32 -13.5t22 -42.5l261 -614q7 -16 9 -23t2 -15q0 -10 -9 -21t-26 -11t-24.5 11t-16.5 32l-80 197h-334zM475 284l-148 362l-142 -362h290z
M421 841q0 -37 -25.5 -62.5t-61.5 -25.5q-37 0 -62.5 25.5t-25.5 62.5q0 36 25.5 62t62.5 26q36 0 61.5 -26t25.5 -62zM388 841q0 23 -15.5 39t-38.5 16t-39 -16t-16 -39t16 -39t39 -16t38.5 16t15.5 39z" />
    <glyph glyph-name="AE" unicode="&#xc6;" horiz-adv-x="1000" 
d="M182 218l-92 -192q-10 -20 -16.5 -29t-22.5 -9q-15 0 -24 10.5t-9 18.5t3.5 16t9.5 21l298 622q10 20 13 25t9 9q6 5 12.5 5.5t28.5 0.5h499q8 0 17 -0.5t16 -3.5t11.5 -9t4.5 -17t-4.5 -17t-11.5 -8.5t-16 -3t-17 -0.5h-330v-259h305q8 0 17 -0.5t16 -3t11.5 -8.5
t4.5 -17t-4.5 -17t-11.5 -9t-16 -3.5t-17 -0.5h-305v-280h342q8 0 17 -0.5t16 -3.5t11.5 -9t4.5 -17t-4.5 -17t-11.5 -8.5t-16 -3t-17 -0.5h-353q-19 0 -30.5 1.5t-17.5 7.5t-7.5 17.5t-1.5 30.5v161h-311zM493 277v380h-102l-180 -380h282z" />
    <glyph glyph-name="Ccedilla" unicode="&#xc7;" horiz-adv-x="719" 
d="M373 -49q17 0 33 -3.5t28 -11.5t19 -20.5t7 -31.5q0 -42 -41 -62t-110 -20q-4 0 -11.5 0.5t-15 2.5t-13 6.5t-5.5 13.5q0 15 14 17.5t25 2.5q28 0 46 4.5t28 11t13.5 14t3.5 14.5q0 10 -4.5 15.5t-11.5 8t-15.5 3.5t-16.5 2q-10 0 -18.5 6t-3.5 25l11 41
q-60 7 -103.5 29.5t-74.5 54.5t-51 70.5t-31.5 77.5t-15.5 74.5t-4 62.5q0 83 24 151t67.5 116.5t104 75t134.5 26.5q52 0 92.5 -13t71 -33t52 -44.5t35 -47t19.5 -40t6 -24.5q0 -5 -5.5 -16.5t-23.5 -11.5q-7 0 -11.5 1.5t-9 7.5t-11.5 17.5t-18 32.5q-13 23 -32.5 45
t-45.5 38q-17 11 -44.5 21.5t-69.5 10.5q-16 0 -42 -3.5t-55 -15t-59 -32.5t-54 -56t-39 -86.5t-15 -123.5q0 -90 24 -150t61.5 -96t82.5 -51t86 -15q59 0 109.5 25t84.5 72q13 19 20.5 38t13.5 34.5t13 25.5t19 10q11 0 20 -7t9 -20q0 -12 -6 -33.5t-20 -47.5t-35.5 -53
t-53.5 -49t-74 -36.5t-96 -14.5z" />
    <glyph glyph-name="Egrave" unicode="&#xc8;" horiz-adv-x="615" 
d="M158 398h324q8 0 17 -0.5t16 -3t11.5 -8.5t4.5 -17t-4.5 -17t-11.5 -9t-16 -3.5t-17 -0.5h-324v-280h368q19 0 34 -4.5t15 -24.5q0 -11 -4.5 -17t-11.5 -9t-16 -3.5t-17 -0.5h-379q-19 0 -30.5 1.5t-17.5 7.5t-7.5 17.5t-1.5 30.5v602q0 19 2 30.5t8 17.5t17 7.5t30 1.5
h363q8 0 17 -0.5t16.5 -3.5t12 -9t4.5 -17q0 -12 -4.5 -18t-12 -8.5t-16 -2.5h-17.5h-352v-259zM236 866q-9 11 -15 18.5t-6 12.5q0 8 26 8h29q11 0 18 -1.5t12 -5.5t9.5 -12t10.5 -21l25 -54q5 -11 7 -15.5t2 -9.5t-5.5 -12.5t-16.5 -7.5q-8 0 -12.5 4t-14.5 15z" />
    <glyph glyph-name="Eacute" unicode="&#xc9;" horiz-adv-x="615" 
d="M158 398h324q8 0 17 -0.5t16 -3t11.5 -8.5t4.5 -17t-4.5 -17t-11.5 -9t-16 -3.5t-17 -0.5h-324v-280h368q19 0 34 -4.5t15 -24.5q0 -11 -4.5 -17t-11.5 -9t-16 -3.5t-17 -0.5h-379q-19 0 -30.5 1.5t-17.5 7.5t-7.5 17.5t-1.5 30.5v602q0 19 2 30.5t8 17.5t17 7.5t30 1.5
h363q8 0 17 -0.5t16.5 -3.5t12 -9t4.5 -17q0 -12 -4.5 -18t-12 -8.5t-16 -2.5h-17.5h-352v-259zM310 785q-10 -11 -14.5 -15t-12.5 -4q-11 0 -16.5 7.5t-5.5 12.5t2 9.5t7 15.5l25 54q6 13 10.5 21t9.5 12t12 5.5t18 1.5h29q26 0 26 -8q0 -5 -6 -12.5t-15 -18.5z" />
    <glyph glyph-name="Ecircumflex" unicode="&#xca;" horiz-adv-x="615" 
d="M158 398h324q8 0 17 -0.5t16 -3t11.5 -8.5t4.5 -17t-4.5 -17t-11.5 -9t-16 -3.5t-17 -0.5h-324v-280h368q19 0 34 -4.5t15 -24.5q0 -11 -4.5 -17t-11.5 -9t-16 -3.5t-17 -0.5h-379q-19 0 -30.5 1.5t-17.5 7.5t-7.5 17.5t-1.5 30.5v602q0 19 2 30.5t8 17.5t17 7.5t30 1.5
h363q8 0 17 -0.5t16.5 -3.5t12 -9t4.5 -17q0 -12 -4.5 -18t-12 -8.5t-16 -2.5h-17.5h-352v-259zM420 809q4 -6 9.5 -13.5t5.5 -10.5q0 -6 -5.5 -7t-13.5 -1q-20 0 -26 0.5t-12 3.5q-5 2 -12 11t-14 17l-44 58l-43 -58q-9 -11 -14 -17.5t-10 -9.5t-10.5 -4t-15.5 -1
q-23 0 -29 1t-6 7q0 4 6.5 13t10.5 14l32 43q13 18 22.5 30t18 19t17 10t20.5 3t21 -3t17.5 -10.5t18 -19t22.5 -29.5z" />
    <glyph glyph-name="Edieresis" unicode="&#xcb;" horiz-adv-x="615" 
d="M158 398h324q8 0 17 -0.5t16 -3t11.5 -8.5t4.5 -17t-4.5 -17t-11.5 -9t-16 -3.5t-17 -0.5h-324v-280h368q19 0 34 -4.5t15 -24.5q0 -11 -4.5 -17t-11.5 -9t-16 -3.5t-17 -0.5h-379q-19 0 -30.5 1.5t-17.5 7.5t-7.5 17.5t-1.5 30.5v602q0 19 2 30.5t8 17.5t17 7.5t30 1.5
h363q8 0 17 -0.5t16.5 -3.5t12 -9t4.5 -17q0 -12 -4.5 -18t-12 -8.5t-16 -2.5h-17.5h-352v-259zM274 823q0 -17 -12.5 -29.5t-29.5 -12.5q-18 0 -30.5 12.5t-12.5 29.5q0 18 12.5 30.5t30.5 12.5q17 0 29.5 -12.5t12.5 -30.5zM426 823q0 -17 -12.5 -29.5t-30.5 -12.5
q-17 0 -29.5 12.5t-12.5 29.5q0 18 12.5 30.5t29.5 12.5q18 0 30.5 -12.5t12.5 -30.5z" />
    <glyph glyph-name="Igrave" unicode="&#xcc;" horiz-adv-x="281" 
d="M174 44q0 -9 -0.5 -19t-3.5 -18.5t-10 -13.5t-19 -5q-13 0 -20 5t-10.5 13t-4 18t-0.5 20v628q0 9 0.5 19t4 18.5t10.5 13.5t19 5q13 0 20 -5t10 -13.5t3.5 -18.5t0.5 -19v-628zM85 866q-9 11 -15 18.5t-6 12.5q0 8 26 8h29q11 0 18 -1.5t12 -5.5t9.5 -12t10.5 -21
l25 -54q5 -11 7 -15.5t2 -9.5t-5.5 -12.5t-16.5 -7.5q-8 0 -12.5 4t-14.5 15z" />
    <glyph glyph-name="Iacute" unicode="&#xcd;" horiz-adv-x="281" 
d="M174 44q0 -9 -0.5 -19t-3.5 -18.5t-10 -13.5t-19 -5q-13 0 -20 5t-10.5 13t-4 18t-0.5 20v628q0 9 0.5 19t4 18.5t10.5 13.5t19 5q13 0 20 -5t10 -13.5t3.5 -18.5t0.5 -19v-628zM144 785q-10 -11 -14.5 -15t-12.5 -4q-11 0 -16.5 7.5t-5.5 12.5t2 9.5t7 15.5l25 54
q6 13 10.5 21t9.5 12t12 5.5t18 1.5h29q26 0 26 -8q0 -5 -6 -12.5t-15 -18.5z" />
    <glyph glyph-name="Icircumflex" unicode="&#xce;" horiz-adv-x="281" 
d="M174 44q0 -9 -0.5 -19t-3.5 -18.5t-10 -13.5t-19 -5q-13 0 -20 5t-10.5 13t-4 18t-0.5 20v628q0 9 0.5 19t4 18.5t10.5 13.5t19 5q13 0 20 -5t10 -13.5t3.5 -18.5t0.5 -19v-628zM254 809q4 -6 9.5 -13.5t5.5 -10.5q0 -6 -5.5 -7t-13.5 -1q-20 0 -26 0.5t-12 3.5
q-5 2 -12 11t-14 17l-44 58l-43 -58q-9 -11 -14 -17.5t-10 -9.5t-10.5 -4t-15.5 -1q-23 0 -29 1t-6 7q0 4 6.5 13t10.5 14l32 43q13 18 22.5 30t18 19t17 10t20.5 3t21 -3t17.5 -10.5t18 -19t22.5 -29.5z" />
    <glyph glyph-name="Idieresis" unicode="&#xcf;" horiz-adv-x="281" 
d="M174 44q0 -9 -0.5 -19t-3.5 -18.5t-10 -13.5t-19 -5q-13 0 -20 5t-10.5 13t-4 18t-0.5 20v628q0 9 0.5 19t4 18.5t10.5 13.5t19 5q13 0 20 -5t10 -13.5t3.5 -18.5t0.5 -19v-628zM108 823q0 -17 -12.5 -29.5t-29.5 -12.5q-18 0 -30.5 12.5t-12.5 29.5q0 18 12.5 30.5
t30.5 12.5q17 0 29.5 -12.5t12.5 -30.5zM260 823q0 -17 -12.5 -29.5t-30.5 -12.5q-17 0 -29.5 12.5t-12.5 29.5q0 18 12.5 30.5t29.5 12.5q18 0 30.5 -12.5t12.5 -30.5z" />
    <glyph glyph-name="Eth" unicode="&#xd0;" horiz-adv-x="719" 
d="M47 335q-22 0 -34.5 3t-12.5 20t12.5 19.5t34.5 2.5h40v279q0 19 2 30.5t8 17.5t17 7.5t30 1.5h118t69.5 -0.5t39 -1t25.5 -1.5q82 -8 134.5 -45t82.5 -88.5t41 -110t11 -107.5q0 -28 -4 -71.5t-19.5 -90.5t-45 -91t-80.5 -72q-24 -14 -51.5 -21t-53 -11t-47.5 -4.5
t-35 -0.5h-185q-19 0 -30.5 1.5t-17.5 7.5t-7.5 17.5t-1.5 30.5v278h-40zM155 335v-276h169q10 0 26.5 0.5t35.5 2.5t38 6t36 12q42 19 68 50.5t40.5 70.5t20 82t5.5 85q0 21 -3.5 57.5t-17 75.5t-40 75.5t-72.5 57.5q-33 15 -69.5 19t-67.5 4h-169v-277h173q22 0 34.5 -2.5
t12.5 -19.5t-12.5 -20t-34.5 -3h-173z" />
    <glyph glyph-name="Ntilde" unicode="&#xd1;" horiz-adv-x="719" 
d="M566 687q0 4 0.5 11t4 14t10 11.5t18.5 4.5q13 0 20 -5t10 -13t3.5 -18t0.5 -20v-613q0 -27 -1.5 -38.5t-12.5 -20.5q-4 -4 -11 -7.5t-18 -3.5q-16 0 -25 9.5t-25 32.5l-392 579l5 -567v-18.5t-2.5 -17.5t-9.5 -13.5t-21 -5.5q-13 0 -20 5t-10 13t-3.5 18t-0.5 20v617
q0 11 0.5 23t4.5 21.5t12 15.5t23 6t24 -9t23 -30l398 -589zM476 881q8 0 15 -7.5t7 -24.5q0 -15 -5.5 -26t-14.5 -18t-19 -10.5t-19 -3.5q-7 0 -13 0.5t-14.5 2.5t-22 7t-35.5 13q-14 5 -32.5 10.5t-32.5 5.5q-19 0 -27 -18q-3 -7 -7 -13t-12 -6t-15.5 8t-7.5 24
q0 20 16 39t43 19q7 0 13.5 -1t16.5 -3.5t26.5 -7.5t43.5 -14q28 -9 35.5 -11t14.5 -2q8 0 13.5 3t12.5 15q4 7 7.5 13t12.5 6z" />
    <glyph glyph-name="Ograve" unicode="&#xd2;" horiz-adv-x="781" 
d="M390 728q100 0 165 -37.5t102.5 -93.5t52 -120.5t14.5 -118.5q0 -57 -15.5 -122t-53.5 -120t-102.5 -91.5t-162.5 -36.5q-67 0 -117.5 17.5t-87.5 46.5t-61.5 67t-39.5 79t-21 82.5t-6 77.5q0 56 15 121t53 120.5t102.5 92t162.5 36.5zM390 672q-9 0 -30 -2.5t-48 -10.5
t-56.5 -25t-54.5 -46q-41 -47 -57 -107.5t-16 -122.5q0 -16 2 -43t9.5 -59.5t22 -66t39.5 -61.5q37 -42 88.5 -63t100.5 -21q50 0 101 21t88 63q25 28 40 61.5t22.5 65.5t9.5 59.5t2 43.5q0 25 -3 54t-11 59.5t-22.5 60t-37.5 56.5q-24 28 -53 45t-56 25.5t-48.5 11
t-31.5 2.5zM319 866q-9 11 -15 18.5t-6 12.5q0 8 26 8h29q11 0 18 -1.5t12 -5.5t9.5 -12t10.5 -21l25 -54q5 -11 7 -15.5t2 -9.5t-5.5 -12.5t-16.5 -7.5q-8 0 -12.5 4t-14.5 15z" />
    <glyph glyph-name="Oacute" unicode="&#xd3;" horiz-adv-x="781" 
d="M390 728q100 0 165 -37.5t102.5 -93.5t52 -120.5t14.5 -118.5q0 -57 -15.5 -122t-53.5 -120t-102.5 -91.5t-162.5 -36.5q-67 0 -117.5 17.5t-87.5 46.5t-61.5 67t-39.5 79t-21 82.5t-6 77.5q0 56 15 121t53 120.5t102.5 92t162.5 36.5zM390 672q-9 0 -30 -2.5t-48 -10.5
t-56.5 -25t-54.5 -46q-41 -47 -57 -107.5t-16 -122.5q0 -16 2 -43t9.5 -59.5t22 -66t39.5 -61.5q37 -42 88.5 -63t100.5 -21q50 0 101 21t88 63q25 28 40 61.5t22.5 65.5t9.5 59.5t2 43.5q0 25 -3 54t-11 59.5t-22.5 60t-37.5 56.5q-24 28 -53 45t-56 25.5t-48.5 11
t-31.5 2.5zM393 785q-10 -11 -14.5 -15t-12.5 -4q-11 0 -16.5 7.5t-5.5 12.5t2 9.5t7 15.5l25 54q6 13 10.5 21t9.5 12t12 5.5t18 1.5h29q26 0 26 -8q0 -5 -6 -12.5t-15 -18.5z" />
    <glyph glyph-name="Ocircumflex" unicode="&#xd4;" horiz-adv-x="781" 
d="M390 728q100 0 165 -37.5t102.5 -93.5t52 -120.5t14.5 -118.5q0 -57 -15.5 -122t-53.5 -120t-102.5 -91.5t-162.5 -36.5q-67 0 -117.5 17.5t-87.5 46.5t-61.5 67t-39.5 79t-21 82.5t-6 77.5q0 56 15 121t53 120.5t102.5 92t162.5 36.5zM390 672q-9 0 -30 -2.5t-48 -10.5
t-56.5 -25t-54.5 -46q-41 -47 -57 -107.5t-16 -122.5q0 -16 2 -43t9.5 -59.5t22 -66t39.5 -61.5q37 -42 88.5 -63t100.5 -21q50 0 101 21t88 63q25 28 40 61.5t22.5 65.5t9.5 59.5t2 43.5q0 25 -3 54t-11 59.5t-22.5 60t-37.5 56.5q-24 28 -53 45t-56 25.5t-48.5 11
t-31.5 2.5zM503 809q4 -6 9.5 -13.5t5.5 -10.5q0 -6 -5.5 -7t-13.5 -1q-20 0 -26 0.5t-12 3.5q-5 2 -12 11t-14 17l-44 58l-43 -58q-9 -11 -14 -17.5t-10 -9.5t-10.5 -4t-15.5 -1q-23 0 -29 1t-6 7q0 4 6.5 13t10.5 14l32 43q13 18 22.5 30t18 19t17 10t20.5 3t21 -3
t17.5 -10.5t18 -19t22.5 -29.5z" />
    <glyph glyph-name="Otilde" unicode="&#xd5;" horiz-adv-x="781" 
d="M390 728q100 0 165 -37.5t102.5 -93.5t52 -120.5t14.5 -118.5q0 -57 -15.5 -122t-53.5 -120t-102.5 -91.5t-162.5 -36.5q-67 0 -117.5 17.5t-87.5 46.5t-61.5 67t-39.5 79t-21 82.5t-6 77.5q0 56 15 121t53 120.5t102.5 92t162.5 36.5zM390 672q-9 0 -30 -2.5t-48 -10.5
t-56.5 -25t-54.5 -46q-41 -47 -57 -107.5t-16 -122.5q0 -16 2 -43t9.5 -59.5t22 -66t39.5 -61.5q37 -42 88.5 -63t100.5 -21q50 0 101 21t88 63q25 28 40 61.5t22.5 65.5t9.5 59.5t2 43.5q0 25 -3 54t-11 59.5t-22.5 60t-37.5 56.5q-24 28 -53 45t-56 25.5t-48.5 11
t-31.5 2.5zM507 881q8 0 15 -7.5t7 -24.5q0 -15 -5.5 -26t-14.5 -18t-19 -10.5t-19 -3.5q-7 0 -13 0.5t-14.5 2.5t-22 7t-35.5 13q-14 5 -32.5 10.5t-32.5 5.5q-19 0 -27 -18q-3 -7 -7 -13t-12 -6t-15.5 8t-7.5 24q0 20 16 39t43 19q7 0 13.5 -1t16.5 -3.5t26.5 -7.5
t43.5 -14q28 -9 35.5 -11t14.5 -2q8 0 13.5 3t12.5 15q4 7 7.5 13t12.5 6z" />
    <glyph glyph-name="Odieresis" unicode="&#xd6;" horiz-adv-x="781" 
d="M390 728q100 0 165 -37.5t102.5 -93.5t52 -120.5t14.5 -118.5q0 -57 -15.5 -122t-53.5 -120t-102.5 -91.5t-162.5 -36.5q-67 0 -117.5 17.5t-87.5 46.5t-61.5 67t-39.5 79t-21 82.5t-6 77.5q0 56 15 121t53 120.5t102.5 92t162.5 36.5zM390 672q-9 0 -30 -2.5t-48 -10.5
t-56.5 -25t-54.5 -46q-41 -47 -57 -107.5t-16 -122.5q0 -16 2 -43t9.5 -59.5t22 -66t39.5 -61.5q37 -42 88.5 -63t100.5 -21q50 0 101 21t88 63q25 28 40 61.5t22.5 65.5t9.5 59.5t2 43.5q0 25 -3 54t-11 59.5t-22.5 60t-37.5 56.5q-24 28 -53 45t-56 25.5t-48.5 11
t-31.5 2.5zM357 823q0 -17 -12.5 -29.5t-29.5 -12.5q-18 0 -30.5 12.5t-12.5 29.5q0 18 12.5 30.5t30.5 12.5q17 0 29.5 -12.5t12.5 -30.5zM509 823q0 -17 -12.5 -29.5t-30.5 -12.5q-17 0 -29.5 12.5t-12.5 29.5q0 18 12.5 30.5t29.5 12.5q18 0 30.5 -12.5t12.5 -30.5z" />
    <glyph glyph-name="multiply" unicode="&#xd7;" horiz-adv-x="656" 
d="M328 384l195 194l32 -32l-194 -194l194 -195l-32 -32l-195 195l-195 -195l-32 32l195 195l-195 194l32 32z" />
    <glyph glyph-name="Oslash" unicode="&#xd8;" horiz-adv-x="781" 
d="M110 8q-8 -9 -14 -14t-17 -5q-7 0 -12 6t-5 11q0 11 4.5 18t10.5 14l58 65q-28 36 -43.5 75.5t-23 74.5t-9.5 63t-2 42q0 57 15.5 122t53.5 120t102 91.5t162 36.5q64 0 123.5 -19.5t104.5 -64.5l54 60q9 10 14.5 14t16.5 4q6 0 11.5 -5t5.5 -11q0 -8 -3 -14t-13 -17
l-57 -64q41 -55 59 -120t18 -133q0 -57 -15.5 -122t-53.5 -120t-102.5 -91.5t-162.5 -36.5q-58 0 -117.5 17t-107.5 65zM209 119q20 -20 43 -34.5t47 -23.5t47.5 -13t43.5 -4q50 0 101.5 21t87.5 63q25 29 40 62.5t22.5 65.5t9.5 59t2 43q0 54 -11.5 105t-40.5 96zM574 594
q-33 37 -84 57.5t-100 20.5q-50 0 -101.5 -21.5t-87.5 -62.5q-24 -27 -38.5 -59.5t-22 -64t-10 -59.5t-2.5 -47q0 -54 12 -106.5t41 -97.5z" />
    <glyph glyph-name="Ugrave" unicode="&#xd9;" horiz-adv-x="719" 
d="M154 257q0 -16 1 -38t7 -45.5t19 -47t36 -41.5t58 -29.5t86 -11.5q58 0 97.5 16.5t63 45t33.5 67.5t10 83v415q0 9 0.5 19.5t3.5 18.5t10 13.5t20 5.5t20 -5.5t10 -13.5t3.5 -18t0.5 -20v-408q0 -130 -65.5 -202.5t-205.5 -72.5q-74 0 -126.5 18t-85.5 53t-48.5 86.5
t-15.5 117.5v408q0 9 0.5 19.5t3.5 18.5t10 13.5t20 5.5t20 -5.5t10 -13.5t3.5 -18t0.5 -20v-414zM288 866q-9 11 -15 18.5t-6 12.5q0 8 26 8h29q11 0 18 -1.5t12 -5.5t9.5 -12t10.5 -21l25 -54q5 -11 7 -15.5t2 -9.5t-5.5 -12.5t-16.5 -7.5q-8 0 -12.5 4t-14.5 15z" />
    <glyph glyph-name="Uacute" unicode="&#xda;" horiz-adv-x="719" 
d="M154 257q0 -16 1 -38t7 -45.5t19 -47t36 -41.5t58 -29.5t86 -11.5q58 0 97.5 16.5t63 45t33.5 67.5t10 83v415q0 9 0.5 19.5t3.5 18.5t10 13.5t20 5.5t20 -5.5t10 -13.5t3.5 -18t0.5 -20v-408q0 -130 -65.5 -202.5t-205.5 -72.5q-74 0 -126.5 18t-85.5 53t-48.5 86.5
t-15.5 117.5v408q0 9 0.5 19.5t3.5 18.5t10 13.5t20 5.5t20 -5.5t10 -13.5t3.5 -18t0.5 -20v-414zM362 785q-10 -11 -14.5 -15t-12.5 -4q-11 0 -16.5 7.5t-5.5 12.5t2 9.5t7 15.5l25 54q6 13 10.5 21t9.5 12t12 5.5t18 1.5h29q26 0 26 -8q0 -5 -6 -12.5t-15 -18.5z" />
    <glyph glyph-name="Ucircumflex" unicode="&#xdb;" horiz-adv-x="719" 
d="M154 257q0 -16 1 -38t7 -45.5t19 -47t36 -41.5t58 -29.5t86 -11.5q58 0 97.5 16.5t63 45t33.5 67.5t10 83v415q0 9 0.5 19.5t3.5 18.5t10 13.5t20 5.5t20 -5.5t10 -13.5t3.5 -18t0.5 -20v-408q0 -130 -65.5 -202.5t-205.5 -72.5q-74 0 -126.5 18t-85.5 53t-48.5 86.5
t-15.5 117.5v408q0 9 0.5 19.5t3.5 18.5t10 13.5t20 5.5t20 -5.5t10 -13.5t3.5 -18t0.5 -20v-414zM472 809q4 -6 9.5 -13.5t5.5 -10.5q0 -6 -5.5 -7t-13.5 -1q-20 0 -26 0.5t-12 3.5q-5 2 -12 11t-14 17l-44 58l-43 -58q-9 -11 -14 -17.5t-10 -9.5t-10.5 -4t-15.5 -1
q-23 0 -29 1t-6 7q0 4 6.5 13t10.5 14l32 43q13 18 22.5 30t18 19t17 10t20.5 3t21 -3t17.5 -10.5t18 -19t22.5 -29.5z" />
    <glyph glyph-name="Udieresis" unicode="&#xdc;" horiz-adv-x="719" 
d="M154 257q0 -16 1 -38t7 -45.5t19 -47t36 -41.5t58 -29.5t86 -11.5q58 0 97.5 16.5t63 45t33.5 67.5t10 83v415q0 9 0.5 19.5t3.5 18.5t10 13.5t20 5.5t20 -5.5t10 -13.5t3.5 -18t0.5 -20v-408q0 -130 -65.5 -202.5t-205.5 -72.5q-74 0 -126.5 18t-85.5 53t-48.5 86.5
t-15.5 117.5v408q0 9 0.5 19.5t3.5 18.5t10 13.5t20 5.5t20 -5.5t10 -13.5t3.5 -18t0.5 -20v-414zM326 823q0 -17 -12.5 -29.5t-29.5 -12.5q-18 0 -30.5 12.5t-12.5 29.5q0 18 12.5 30.5t30.5 12.5q17 0 29.5 -12.5t12.5 -30.5zM478 823q0 -17 -12.5 -29.5t-30.5 -12.5
q-17 0 -29.5 12.5t-12.5 29.5q0 18 12.5 30.5t29.5 12.5q18 0 30.5 -12.5t12.5 -30.5z" />
    <glyph glyph-name="Yacute" unicode="&#xdd;" horiz-adv-x="615" 
d="M307 372l211 325q12 19 18 25t19 6q15 0 23.5 -10t8.5 -20t-4 -17t-12 -19l-234 -353v-265q0 -9 -0.5 -19t-3.5 -18.5t-10 -13.5t-20 -5t-20 5t-10 13.5t-3.5 18.5t-0.5 19v265l-223 348q-8 13 -12.5 21t-4.5 18q0 13 9 22.5t23 9.5t21.5 -7t21.5 -30zM310 785
q-10 -11 -14.5 -15t-12.5 -4q-11 0 -16.5 7.5t-5.5 12.5t2 9.5t7 15.5l25 54q6 13 10.5 21t9.5 12t12 5.5t18 1.5h29q26 0 26 -8q0 -5 -6 -12.5t-15 -18.5z" />
    <glyph glyph-name="Thorn" unicode="&#xde;" horiz-adv-x="615" 
d="M339 564q36 0 63.5 -4.5t48 -12.5t35 -18t25.5 -21q59 -62 59 -148q0 -33 -11 -70t-37.5 -68t-71 -51t-111.5 -20h-180v-107q0 -9 -0.5 -19t-4 -18.5t-10.5 -13.5t-19 -5q-13 0 -20 5t-10 13t-3.5 18t-0.5 20v627q0 10 0.5 20t3.5 18t10 13.5t20 5.5q12 0 19 -5.5
t10.5 -13.5t4 -18t0.5 -20v-107h180zM159 502v-292h161q29 0 60.5 5.5t58 21.5t43.5 45t17 76q0 54 -21 83t-50 42.5t-59.5 16t-48.5 2.5h-161z" />
    <glyph glyph-name="germandbls" unicode="&#xdf;" horiz-adv-x="500" 
d="M52 535q0 52 9.5 81.5t23.5 46.5q19 25 42 38t44 19t38 7t25 1q47 0 78 -13.5t50 -33t26.5 -42t7.5 -41.5q0 -33 -14 -62t-33 -59q-23 -38 -33.5 -58.5t-10.5 -37.5t11.5 -29.5t43.5 -37.5q34 -26 56 -48t34.5 -42t17.5 -39t5 -40q0 -32 -12 -60.5t-32.5 -50t-49 -34
t-61.5 -12.5t-59 10.5t-43.5 25.5t-27 30t-9.5 24t8 19.5t24 10.5q8 0 13 -3t15 -15q11 -13 31 -29.5t48 -16.5q18 0 34.5 8t29 21t20 30.5t7.5 36.5q0 35 -26.5 67t-75.5 67q-36 26 -53 47.5t-17 52.5q0 12 3 23.5t9.5 25.5t17.5 32.5t27 45.5q20 32 29 54t9 43
q0 31 -25 52.5t-73 21.5q-42 0 -66 -15.5t-36 -38.5t-15.5 -50t-3.5 -50v-479q0 -9 -0.5 -18t-3.5 -16.5t-9 -12t-17 -4.5q-23 0 -27 16.5t-4 34.5v496z" />
    <glyph glyph-name="agrave" unicode="&#xe0;" 
d="M416 326q0 42 -2 64.5t-12 41.5q-8 16 -21.5 25.5t-29 15t-33 7.5t-33.5 2q-12 0 -34 -2t-45.5 -9.5t-44.5 -22.5t-31 -40q-11 -28 -17 -37t-21 -9q-10 0 -19.5 7.5t-9.5 22.5q0 9 8 31.5t31 46.5t65.5 42t111.5 18q74 0 114.5 -18.5t59 -48.5t21.5 -69t3 -80
q0 -10 -0.5 -33.5t-0.5 -50t-0.5 -49.5t-0.5 -32q0 -17 1.5 -40t6.5 -40q5 -18 9.5 -33t4.5 -22q0 -14 -10.5 -20.5t-18.5 -6.5q-12 0 -20 7.5t-12.5 20t-7.5 29t-5 34.5q-42 -45 -97.5 -67.5t-116.5 -22.5q-39 0 -69 11.5t-51 31.5t-32 46.5t-11 56.5q0 47 20 75.5t49.5 45
t63.5 23.5t62 12q75 12 115 19t60 17zM416 278q-24 -12 -67 -19.5t-91 -17.5q-21 -4 -46.5 -9t-48 -15t-38 -28.5t-15.5 -49.5q0 -12 4.5 -28t17 -31t34 -25.5t55.5 -10.5q23 0 50 6t52 17.5t45 29.5t31 42q11 25 14.5 55.5t2.5 83.5zM205 677q-9 11 -15 18.5t-6 12.5
q0 8 26 8h29q11 0 18 -1.5t12 -5.5t9.5 -12t10.5 -21l25 -54q5 -11 7 -15.5t2 -9.5t-5.5 -12.5t-16.5 -7.5q-8 0 -12.5 4t-14.5 15z" />
    <glyph glyph-name="aacute" unicode="&#xe1;" 
d="M416 326q0 42 -2 64.5t-12 41.5q-8 16 -21.5 25.5t-29 15t-33 7.5t-33.5 2q-12 0 -34 -2t-45.5 -9.5t-44.5 -22.5t-31 -40q-11 -28 -17 -37t-21 -9q-10 0 -19.5 7.5t-9.5 22.5q0 9 8 31.5t31 46.5t65.5 42t111.5 18q74 0 114.5 -18.5t59 -48.5t21.5 -69t3 -80
q0 -10 -0.5 -33.5t-0.5 -50t-0.5 -49.5t-0.5 -32q0 -17 1.5 -40t6.5 -40q5 -18 9.5 -33t4.5 -22q0 -14 -10.5 -20.5t-18.5 -6.5q-12 0 -20 7.5t-12.5 20t-7.5 29t-5 34.5q-42 -45 -97.5 -67.5t-116.5 -22.5q-39 0 -69 11.5t-51 31.5t-32 46.5t-11 56.5q0 47 20 75.5t49.5 45
t63.5 23.5t62 12q75 12 115 19t60 17zM416 278q-24 -12 -67 -19.5t-91 -17.5q-21 -4 -46.5 -9t-48 -15t-38 -28.5t-15.5 -49.5q0 -12 4.5 -28t17 -31t34 -25.5t55.5 -10.5q23 0 50 6t52 17.5t45 29.5t31 42q11 25 14.5 55.5t2.5 83.5zM279 596q-10 -11 -14.5 -15t-12.5 -4
q-11 0 -16.5 7.5t-5.5 12.5t2 9.5t7 15.5l25 54q6 13 10.5 21t9.5 12t12 5.5t18 1.5h29q26 0 26 -8q0 -5 -6 -12.5t-15 -18.5z" />
    <glyph glyph-name="acircumflex" unicode="&#xe2;" 
d="M416 326q0 42 -2 64.5t-12 41.5q-8 16 -21.5 25.5t-29 15t-33 7.5t-33.5 2q-12 0 -34 -2t-45.5 -9.5t-44.5 -22.5t-31 -40q-11 -28 -17 -37t-21 -9q-10 0 -19.5 7.5t-9.5 22.5q0 9 8 31.5t31 46.5t65.5 42t111.5 18q74 0 114.5 -18.5t59 -48.5t21.5 -69t3 -80
q0 -10 -0.5 -33.5t-0.5 -50t-0.5 -49.5t-0.5 -32q0 -17 1.5 -40t6.5 -40q5 -18 9.5 -33t4.5 -22q0 -14 -10.5 -20.5t-18.5 -6.5q-12 0 -20 7.5t-12.5 20t-7.5 29t-5 34.5q-42 -45 -97.5 -67.5t-116.5 -22.5q-39 0 -69 11.5t-51 31.5t-32 46.5t-11 56.5q0 47 20 75.5t49.5 45
t63.5 23.5t62 12q75 12 115 19t60 17zM416 278q-24 -12 -67 -19.5t-91 -17.5q-21 -4 -46.5 -9t-48 -15t-38 -28.5t-15.5 -49.5q0 -12 4.5 -28t17 -31t34 -25.5t55.5 -10.5q23 0 50 6t52 17.5t45 29.5t31 42q11 25 14.5 55.5t2.5 83.5zM389 620q4 -6 9.5 -13.5t5.5 -10.5
q0 -6 -5.5 -7t-13.5 -1q-20 0 -26 0.5t-12 3.5q-5 2 -12 11t-14 17l-44 58l-43 -58q-9 -11 -14 -17.5t-10 -9.5t-10.5 -4t-15.5 -1q-23 0 -29 1t-6 7q0 4 6.5 13t10.5 14l32 43q13 18 22.5 30t18 19t17 10t20.5 3t21 -3t17.5 -10.5t18 -19t22.5 -29.5z" />
    <glyph glyph-name="atilde" unicode="&#xe3;" 
d="M416 326q0 42 -2 64.5t-12 41.5q-8 16 -21.5 25.5t-29 15t-33 7.5t-33.5 2q-12 0 -34 -2t-45.5 -9.5t-44.5 -22.5t-31 -40q-11 -28 -17 -37t-21 -9q-10 0 -19.5 7.5t-9.5 22.5q0 9 8 31.5t31 46.5t65.5 42t111.5 18q74 0 114.5 -18.5t59 -48.5t21.5 -69t3 -80
q0 -10 -0.5 -33.5t-0.5 -50t-0.5 -49.5t-0.5 -32q0 -17 1.5 -40t6.5 -40q5 -18 9.5 -33t4.5 -22q0 -14 -10.5 -20.5t-18.5 -6.5q-12 0 -20 7.5t-12.5 20t-7.5 29t-5 34.5q-42 -45 -97.5 -67.5t-116.5 -22.5q-39 0 -69 11.5t-51 31.5t-32 46.5t-11 56.5q0 47 20 75.5t49.5 45
t63.5 23.5t62 12q75 12 115 19t60 17zM416 278q-24 -12 -67 -19.5t-91 -17.5q-21 -4 -46.5 -9t-48 -15t-38 -28.5t-15.5 -49.5q0 -12 4.5 -28t17 -31t34 -25.5t55.5 -10.5q23 0 50 6t52 17.5t45 29.5t31 42q11 25 14.5 55.5t2.5 83.5zM393 692q8 0 15 -7.5t7 -24.5
q0 -15 -5.5 -26t-14.5 -18t-19 -10.5t-19 -3.5q-7 0 -13 0.5t-14.5 2.5t-22 7t-35.5 13q-14 5 -32.5 10.5t-32.5 5.5q-19 0 -27 -18q-3 -7 -7 -13t-12 -6t-15.5 8t-7.5 24q0 20 16 39t43 19q7 0 13.5 -1t16.5 -3.5t26.5 -7.5t43.5 -14q28 -9 35.5 -11t14.5 -2q8 0 13.5 3
t12.5 15q4 7 7.5 13t12.5 6z" />
    <glyph glyph-name="adieresis" unicode="&#xe4;" 
d="M416 326q0 42 -2 64.5t-12 41.5q-8 16 -21.5 25.5t-29 15t-33 7.5t-33.5 2q-12 0 -34 -2t-45.5 -9.5t-44.5 -22.5t-31 -40q-11 -28 -17 -37t-21 -9q-10 0 -19.5 7.5t-9.5 22.5q0 9 8 31.5t31 46.5t65.5 42t111.5 18q74 0 114.5 -18.5t59 -48.5t21.5 -69t3 -80
q0 -10 -0.5 -33.5t-0.5 -50t-0.5 -49.5t-0.5 -32q0 -17 1.5 -40t6.5 -40q5 -18 9.5 -33t4.5 -22q0 -14 -10.5 -20.5t-18.5 -6.5q-12 0 -20 7.5t-12.5 20t-7.5 29t-5 34.5q-42 -45 -97.5 -67.5t-116.5 -22.5q-39 0 -69 11.5t-51 31.5t-32 46.5t-11 56.5q0 47 20 75.5t49.5 45
t63.5 23.5t62 12q75 12 115 19t60 17zM416 278q-24 -12 -67 -19.5t-91 -17.5q-21 -4 -46.5 -9t-48 -15t-38 -28.5t-15.5 -49.5q0 -12 4.5 -28t17 -31t34 -25.5t55.5 -10.5q23 0 50 6t52 17.5t45 29.5t31 42q11 25 14.5 55.5t2.5 83.5zM243 634q0 -17 -12.5 -29.5
t-29.5 -12.5q-18 0 -30.5 12.5t-12.5 29.5q0 18 12.5 30.5t30.5 12.5q17 0 29.5 -12.5t12.5 -30.5zM395 634q0 -17 -12.5 -29.5t-30.5 -12.5q-17 0 -29.5 12.5t-12.5 29.5q0 18 12.5 30.5t29.5 12.5q18 0 30.5 -12.5t12.5 -30.5z" />
    <glyph glyph-name="aring" unicode="&#xe5;" 
d="M416 326q0 42 -2 64.5t-12 41.5q-8 16 -21.5 25.5t-29 15t-33 7.5t-33.5 2q-12 0 -34 -2t-45.5 -9.5t-44.5 -22.5t-31 -40q-11 -28 -17 -37t-21 -9q-10 0 -19.5 7.5t-9.5 22.5q0 9 8 31.5t31 46.5t65.5 42t111.5 18q74 0 114.5 -18.5t59 -48.5t21.5 -69t3 -80
q0 -10 -0.5 -33.5t-0.5 -50t-0.5 -49.5t-0.5 -32q0 -17 1.5 -40t6.5 -40q5 -18 9.5 -33t4.5 -22q0 -14 -10.5 -20.5t-18.5 -6.5q-12 0 -20 7.5t-12.5 20t-7.5 29t-5 34.5q-42 -45 -97.5 -67.5t-116.5 -22.5q-39 0 -69 11.5t-51 31.5t-32 46.5t-11 56.5q0 47 20 75.5t49.5 45
t63.5 23.5t62 12q75 12 115 19t60 17zM416 278q-24 -12 -67 -19.5t-91 -17.5q-21 -4 -46.5 -9t-48 -15t-38 -28.5t-15.5 -49.5q0 -12 4.5 -28t17 -31t34 -25.5t55.5 -10.5q23 0 50 6t52 17.5t45 29.5t31 42q11 25 14.5 55.5t2.5 83.5zM364 652q0 -37 -25.5 -62.5
t-61.5 -25.5q-37 0 -62.5 25.5t-25.5 62.5q0 36 25.5 62t62.5 26q36 0 61.5 -26t25.5 -62zM331 652q0 23 -15.5 39t-38.5 16t-39 -16t-16 -39t16 -39t39 -16t38.5 16t15.5 39z" />
    <glyph glyph-name="ae" unicode="&#xe6;" horiz-adv-x="885" 
d="M395 338q0 27 -1 44t-3 27.5t-5.5 17t-8.5 12.5t-12.5 13t-20 13t-31 10t-45.5 4q-19 0 -40.5 -3t-42 -13t-36.5 -29t-25 -52q-3 -11 -11.5 -17.5t-19.5 -6.5q-14 0 -23 9.5t-9 22.5q0 12 8 35t31 46.5t64.5 41t109.5 17.5q48 0 78.5 -8t48.5 -20t27.5 -26t15.5 -25
q7 9 20 22.5t33.5 26t49.5 21.5t69 9q51 0 92 -19t70 -51.5t44.5 -76t15.5 -92.5q0 -30 -16.5 -35t-40.5 -5h-324q2 -107 44 -160t116 -53q36 0 62.5 10.5t44.5 25.5t28.5 32.5t14.5 31.5q5 20 11 31.5t23 11.5t22 -10.5t5 -19.5q0 -21 -13 -49t-38.5 -53.5t-64 -43
t-89.5 -17.5q-48 0 -81 11.5t-55 27t-35 32.5t-20 29q-12 -12 -32.5 -29t-48 -32.5t-63 -27t-77.5 -11.5q-44 0 -75.5 12.5t-51.5 33t-29.5 45.5t-9.5 50q0 52 23.5 82.5t57.5 46.5t71 22t64 11q17 3 36.5 6t38 6.5t34 7.5t25.5 9v18zM777 301q-1 54 -18 89t-41 55t-51 27.5
t-49 7.5q-37 0 -66 -13.5t-49 -37t-31.5 -56.5t-13.5 -72h319zM395 270q-26 -8 -64.5 -15t-95.5 -17q-15 -3 -37 -7.5t-42.5 -15t-35 -30t-14.5 -50.5q0 -15 6.5 -32t20.5 -31.5t37 -24t56 -9.5q40 0 76.5 15.5t63.5 44.5q11 12 17 26t8.5 28t3 25t0.5 17v76z" />
    <glyph glyph-name="ccedilla" unicode="&#xe7;" 
d="M285 -49q17 0 33 -3.5t28 -11.5t19 -20.5t7 -31.5q0 -42 -41 -62t-110 -20q-4 0 -11.5 0.5t-15 2.5t-13 6.5t-5.5 13.5q0 15 14 17.5t25 2.5q28 0 45.5 4.5t27.5 11t14 14t4 14.5q0 10 -4.5 15.5t-11.5 8t-15.5 3.5t-16.5 2q-10 0 -18.5 6.5t-3.5 24.5l11 41
q-56 6 -94.5 31t-62.5 62t-34.5 81.5t-10.5 91.5q0 52 12 101.5t39.5 87.5t73 61.5t112.5 23.5q43 0 75.5 -10t55.5 -25.5t38 -33.5t23.5 -34t12 -28t3.5 -15q0 -4 -1 -8.5t-5 -8.5q-8 -8 -21 -8q-11 0 -17 5.5t-14 21.5q-15 32 -36 51t-42.5 28.5t-40 12t-29.5 2.5
q-31 0 -62.5 -11t-57 -36.5t-42 -67t-16.5 -101.5q0 -106 46 -166t127 -60q42 0 71 13.5t47.5 32.5t29 38.5t16.5 31.5q6 15 13 21t16 6q2 0 7 -1t10 -4t9 -9t4 -15q0 -7 -4 -18t-11 -24.5t-17 -28t-22 -27.5q-19 -20 -39 -32.5t-39.5 -19.5t-38.5 -10t-35 -4z" />
    <glyph glyph-name="egrave" unicode="&#xe8;" 
d="M110 252q1 -47 12 -86t32.5 -67.5t54 -44.5t75.5 -16q11 0 30.5 2.5t41.5 13.5t43.5 33.5t37.5 62.5q8 22 29 22q14 0 22 -9t8 -19q0 -6 -9.5 -31.5t-33.5 -53t-65.5 -49.5t-105.5 -22q-60 0 -104.5 21t-74 57.5t-43.5 86t-14 106.5q0 61 15.5 111t45.5 85.5t74 55
t101 19.5q55 0 93 -17t63 -42t39 -55t20.5 -56t7.5 -44.5t1 -20.5q0 -16 -4.5 -25t-12.5 -13t-18 -4.5t-22 -0.5h-339zM442 302q-2 16 -6.5 46t-21 59t-48 51t-86.5 22q-45 0 -76 -19t-51 -46.5t-29.5 -58.5t-12.5 -54h331zM205 677q-9 11 -15 18.5t-6 12.5q0 8 26 8h29
q11 0 18 -1.5t12 -5.5t9.5 -12t10.5 -21l25 -54q5 -11 7 -15.5t2 -9.5t-5.5 -12.5t-16.5 -7.5q-8 0 -12.5 4t-14.5 15z" />
    <glyph glyph-name="eacute" unicode="&#xe9;" 
d="M110 252q1 -47 12 -86t32.5 -67.5t54 -44.5t75.5 -16q11 0 30.5 2.5t41.5 13.5t43.5 33.5t37.5 62.5q8 22 29 22q14 0 22 -9t8 -19q0 -6 -9.5 -31.5t-33.5 -53t-65.5 -49.5t-105.5 -22q-60 0 -104.5 21t-74 57.5t-43.5 86t-14 106.5q0 61 15.5 111t45.5 85.5t74 55
t101 19.5q55 0 93 -17t63 -42t39 -55t20.5 -56t7.5 -44.5t1 -20.5q0 -16 -4.5 -25t-12.5 -13t-18 -4.5t-22 -0.5h-339zM442 302q-2 16 -6.5 46t-21 59t-48 51t-86.5 22q-45 0 -76 -19t-51 -46.5t-29.5 -58.5t-12.5 -54h331zM279 596q-10 -11 -14.5 -15t-12.5 -4
q-11 0 -16.5 7.5t-5.5 12.5t2 9.5t7 15.5l25 54q6 13 10.5 21t9.5 12t12 5.5t18 1.5h29q26 0 26 -8q0 -5 -6 -12.5t-15 -18.5z" />
    <glyph glyph-name="ecircumflex" unicode="&#xea;" 
d="M110 252q1 -47 12 -86t32.5 -67.5t54 -44.5t75.5 -16q11 0 30.5 2.5t41.5 13.5t43.5 33.5t37.5 62.5q8 22 29 22q14 0 22 -9t8 -19q0 -6 -9.5 -31.5t-33.5 -53t-65.5 -49.5t-105.5 -22q-60 0 -104.5 21t-74 57.5t-43.5 86t-14 106.5q0 61 15.5 111t45.5 85.5t74 55
t101 19.5q55 0 93 -17t63 -42t39 -55t20.5 -56t7.5 -44.5t1 -20.5q0 -16 -4.5 -25t-12.5 -13t-18 -4.5t-22 -0.5h-339zM442 302q-2 16 -6.5 46t-21 59t-48 51t-86.5 22q-45 0 -76 -19t-51 -46.5t-29.5 -58.5t-12.5 -54h331zM389 620q4 -6 9.5 -13.5t5.5 -10.5q0 -6 -5.5 -7
t-13.5 -1q-20 0 -26 0.5t-12 3.5q-5 2 -12 11t-14 17l-44 58l-43 -58q-9 -11 -14 -17.5t-10 -9.5t-10.5 -4t-15.5 -1q-23 0 -29 1t-6 7q0 4 6.5 13t10.5 14l32 43q13 18 22.5 30t18 19t17 10t20.5 3t21 -3t17.5 -10.5t18 -19t22.5 -29.5z" />
    <glyph glyph-name="edieresis" unicode="&#xeb;" 
d="M110 252q1 -47 12 -86t32.5 -67.5t54 -44.5t75.5 -16q11 0 30.5 2.5t41.5 13.5t43.5 33.5t37.5 62.5q8 22 29 22q14 0 22 -9t8 -19q0 -6 -9.5 -31.5t-33.5 -53t-65.5 -49.5t-105.5 -22q-60 0 -104.5 21t-74 57.5t-43.5 86t-14 106.5q0 61 15.5 111t45.5 85.5t74 55
t101 19.5q55 0 93 -17t63 -42t39 -55t20.5 -56t7.5 -44.5t1 -20.5q0 -16 -4.5 -25t-12.5 -13t-18 -4.5t-22 -0.5h-339zM442 302q-2 16 -6.5 46t-21 59t-48 51t-86.5 22q-45 0 -76 -19t-51 -46.5t-29.5 -58.5t-12.5 -54h331zM243 634q0 -17 -12.5 -29.5t-29.5 -12.5
q-18 0 -30.5 12.5t-12.5 29.5q0 18 12.5 30.5t30.5 12.5q17 0 29.5 -12.5t12.5 -30.5zM395 634q0 -17 -12.5 -29.5t-30.5 -12.5q-17 0 -29.5 12.5t-12.5 29.5q0 18 12.5 30.5t29.5 12.5q18 0 30.5 -12.5t12.5 -30.5z" />
    <glyph glyph-name="igrave" unicode="&#xec;" horiz-adv-x="219" 
d="M140 38q0 -17 -4 -33.5t-26 -16.5q-12 0 -18 4.5t-9 12t-3.5 16t-0.5 17.5v441q0 9 0.5 18t3.5 16.5t9 12t18 4.5q11 0 17 -5t9 -12.5t3.5 -16.5t0.5 -17v-441zM39 677q-9 11 -15 18.5t-6 12.5q0 8 26 8h29q11 0 18 -1.5t12 -5.5t9.5 -12t10.5 -21l25 -54q5 -11 7 -15.5
t2 -9.5t-5.5 -12.5t-16.5 -7.5q-8 0 -12.5 4t-14.5 15z" />
    <glyph glyph-name="iacute" unicode="&#xed;" horiz-adv-x="219" 
d="M140 38q0 -17 -4 -33.5t-26 -16.5q-12 0 -18 4.5t-9 12t-3.5 16t-0.5 17.5v441q0 9 0.5 18t3.5 16.5t9 12t18 4.5q11 0 17 -5t9 -12.5t3.5 -16.5t0.5 -17v-441zM113 596q-10 -11 -14.5 -15t-12.5 -4q-11 0 -16.5 7.5t-5.5 12.5t2 9.5t7 15.5l25 54q6 13 10.5 21t9.5 12
t12 5.5t18 1.5h29q26 0 26 -8q0 -5 -6 -12.5t-15 -18.5z" />
    <glyph glyph-name="icircumflex" unicode="&#xee;" horiz-adv-x="219" 
d="M140 38q0 -17 -4 -33.5t-26 -16.5q-12 0 -18 4.5t-9 12t-3.5 16t-0.5 17.5v441q0 9 0.5 18t3.5 16.5t9 12t18 4.5q11 0 17 -5t9 -12.5t3.5 -16.5t0.5 -17v-441zM223 620q4 -6 9.5 -13.5t5.5 -10.5q0 -6 -5.5 -7t-13.5 -1q-20 0 -26 0.5t-12 3.5q-5 2 -12 11t-14 17
l-44 58l-43 -58q-9 -11 -14 -17.5t-10 -9.5t-10.5 -4t-15.5 -1q-23 0 -29 1t-6 7q0 4 6.5 13t10.5 14l32 43q13 18 22.5 30t18 19t17 10t20.5 3t21 -3t17.5 -10.5t18 -19t22.5 -29.5z" />
    <glyph glyph-name="idieresis" unicode="&#xef;" horiz-adv-x="219" 
d="M140 38q0 -17 -4 -33.5t-26 -16.5q-12 0 -18 4.5t-9 12t-3.5 16t-0.5 17.5v441q0 9 0.5 18t3.5 16.5t9 12t18 4.5q11 0 17 -5t9 -12.5t3.5 -16.5t0.5 -17v-441zM77 634q0 -17 -12.5 -29.5t-29.5 -12.5q-18 0 -30.5 12.5t-12.5 29.5q0 18 12.5 30.5t30.5 12.5
q17 0 29.5 -12.5t12.5 -30.5zM229 634q0 -17 -12.5 -29.5t-30.5 -12.5q-17 0 -29.5 12.5t-12.5 29.5q0 18 12.5 30.5t29.5 12.5q18 0 30.5 -12.5t12.5 -30.5z" />
    <glyph glyph-name="eth" unicode="&#xf0;" 
d="M378 692q14 6 20.5 8.5t13.5 2.5q11 0 16 -6t5 -14q0 -12 -7.5 -17t-27.5 -14l-51 -23q20 -20 49.5 -56t56.5 -90q26 -52 41 -113.5t15 -120.5q0 -26 -8 -69.5t-32.5 -86.5t-70.5 -74t-121 -31q-64 0 -108.5 25t-72 64t-39.5 87t-12 94q0 60 16 108.5t44.5 83t67 53.5
t84.5 19q38 0 65 -12t56 -30q-14 28 -35 63.5t-47 62.5l-97 -42q-11 -5 -18.5 -8t-15.5 -3t-13 5.5t-5 14.5q0 11 8.5 17t26.5 14l81 37q-8 10 -20.5 20.5t-27.5 20.5q-16 11 -20 16.5t-4 12.5q0 10 7.5 13.5t15.5 3.5q4 0 11 -1t18 -7t28.5 -19t44.5 -37zM445 242
q0 21 -3 47.5t-11 53.5t-23.5 52.5t-40.5 43.5q-24 17 -51 24t-48 7q-9 0 -24 -2t-32.5 -9t-35.5 -20.5t-33 -37.5t-24.5 -59t-9.5 -85q0 -62 15.5 -103.5t40 -67t55 -36t60.5 -10.5q32 0 61.5 14t52.5 40t37 63.5t14 84.5z" />
    <glyph glyph-name="ntilde" unicode="&#xf1;" 
d="M481 39q0 -9 -0.5 -18t-3.5 -16.5t-9 -12t-18 -4.5t-18 4.5t-8.5 12t-3 16.5t-0.5 18v283q0 32 -3.5 59t-17.5 47q-16 23 -42.5 36t-57.5 13q-43 0 -83.5 -24.5t-60.5 -67.5q-11 -24 -14.5 -59t-3.5 -101v-186q0 -9 -0.5 -18t-3 -16.5t-8.5 -12t-18 -4.5q-23 0 -27 16.5
t-4 34.5v441q0 8 0.5 17t3.5 16.5t9 12.5t18 5t18 -4.5t8.5 -12t3 -16.5t0.5 -18v-38q11 14 25 29.5t33.5 28.5t46 21.5t62.5 8.5q30 0 53 -6t39.5 -14.5t28 -18t17.5 -16.5q14 -16 22 -35t11.5 -38t4.5 -35.5t1 -28.5v-299zM393 692q8 0 15 -7.5t7 -24.5q0 -15 -5.5 -26
t-14.5 -18t-19 -10.5t-19 -3.5q-7 0 -13 0.5t-14.5 2.5t-22 7t-35.5 13q-14 5 -32.5 10.5t-32.5 5.5q-19 0 -27 -18q-3 -7 -7 -13t-12 -6t-15.5 8t-7.5 24q0 20 16 39t43 19q7 0 13.5 -1t16.5 -3.5t26.5 -7.5t43.5 -14q28 -9 35.5 -11t14.5 -2q8 0 13.5 3t12.5 15
q4 7 7.5 13t12.5 6z" />
    <glyph glyph-name="ograve" unicode="&#xf2;" 
d="M508 258q0 -78 -19.5 -128t-52.5 -82q-34 -32 -75 -46t-85 -14q-55 0 -98 20t-73 55.5t-45.5 84.5t-15.5 108q0 42 10 90t35.5 89t70.5 68t116 27q39 0 76.5 -10t74.5 -43q13 -12 27.5 -29t26.5 -42.5t19.5 -61.5t7.5 -86zM444 255q0 12 -1.5 33.5t-7 46.5t-16 51
t-29 46.5t-46 34t-66.5 13.5q-76 0 -123 -56.5t-47 -162.5q0 -53 13 -94.5t35.5 -70t53.5 -43.5t68 -15q41 0 72 17t52 46.5t31.5 69t10.5 84.5zM205 677q-9 11 -15 18.5t-6 12.5q0 8 26 8h29q11 0 18 -1.5t12 -5.5t9.5 -12t10.5 -21l25 -54q5 -11 7 -15.5t2 -9.5
t-5.5 -12.5t-16.5 -7.5q-8 0 -12.5 4t-14.5 15z" />
    <glyph glyph-name="oacute" unicode="&#xf3;" 
d="M508 258q0 -78 -19.5 -128t-52.5 -82q-34 -32 -75 -46t-85 -14q-55 0 -98 20t-73 55.5t-45.5 84.5t-15.5 108q0 42 10 90t35.5 89t70.5 68t116 27q39 0 76.5 -10t74.5 -43q13 -12 27.5 -29t26.5 -42.5t19.5 -61.5t7.5 -86zM444 255q0 12 -1.5 33.5t-7 46.5t-16 51
t-29 46.5t-46 34t-66.5 13.5q-76 0 -123 -56.5t-47 -162.5q0 -53 13 -94.5t35.5 -70t53.5 -43.5t68 -15q41 0 72 17t52 46.5t31.5 69t10.5 84.5zM279 596q-10 -11 -14.5 -15t-12.5 -4q-11 0 -16.5 7.5t-5.5 12.5t2 9.5t7 15.5l25 54q6 13 10.5 21t9.5 12t12 5.5t18 1.5h29
q26 0 26 -8q0 -5 -6 -12.5t-15 -18.5z" />
    <glyph glyph-name="ocircumflex" unicode="&#xf4;" 
d="M508 258q0 -78 -19.5 -128t-52.5 -82q-34 -32 -75 -46t-85 -14q-55 0 -98 20t-73 55.5t-45.5 84.5t-15.5 108q0 42 10 90t35.5 89t70.5 68t116 27q39 0 76.5 -10t74.5 -43q13 -12 27.5 -29t26.5 -42.5t19.5 -61.5t7.5 -86zM444 255q0 12 -1.5 33.5t-7 46.5t-16 51
t-29 46.5t-46 34t-66.5 13.5q-76 0 -123 -56.5t-47 -162.5q0 -53 13 -94.5t35.5 -70t53.5 -43.5t68 -15q41 0 72 17t52 46.5t31.5 69t10.5 84.5zM389 620q4 -6 9.5 -13.5t5.5 -10.5q0 -6 -5.5 -7t-13.5 -1q-20 0 -26 0.5t-12 3.5q-5 2 -12 11t-14 17l-44 58l-43 -58
q-9 -11 -14 -17.5t-10 -9.5t-10.5 -4t-15.5 -1q-23 0 -29 1t-6 7q0 4 6.5 13t10.5 14l32 43q13 18 22.5 30t18 19t17 10t20.5 3t21 -3t17.5 -10.5t18 -19t22.5 -29.5z" />
    <glyph glyph-name="otilde" unicode="&#xf5;" 
d="M508 258q0 -78 -19.5 -128t-52.5 -82q-34 -32 -75 -46t-85 -14q-55 0 -98 20t-73 55.5t-45.5 84.5t-15.5 108q0 42 10 90t35.5 89t70.5 68t116 27q39 0 76.5 -10t74.5 -43q13 -12 27.5 -29t26.5 -42.5t19.5 -61.5t7.5 -86zM444 255q0 12 -1.5 33.5t-7 46.5t-16 51
t-29 46.5t-46 34t-66.5 13.5q-76 0 -123 -56.5t-47 -162.5q0 -53 13 -94.5t35.5 -70t53.5 -43.5t68 -15q41 0 72 17t52 46.5t31.5 69t10.5 84.5zM393 692q8 0 15 -7.5t7 -24.5q0 -15 -5.5 -26t-14.5 -18t-19 -10.5t-19 -3.5q-7 0 -13 0.5t-14.5 2.5t-22 7t-35.5 13
q-14 5 -32.5 10.5t-32.5 5.5q-19 0 -27 -18q-3 -7 -7 -13t-12 -6t-15.5 8t-7.5 24q0 20 16 39t43 19q7 0 13.5 -1t16.5 -3.5t26.5 -7.5t43.5 -14q28 -9 35.5 -11t14.5 -2q8 0 13.5 3t12.5 15q4 7 7.5 13t12.5 6z" />
    <glyph glyph-name="odieresis" unicode="&#xf6;" 
d="M508 258q0 -78 -19.5 -128t-52.5 -82q-34 -32 -75 -46t-85 -14q-55 0 -98 20t-73 55.5t-45.5 84.5t-15.5 108q0 42 10 90t35.5 89t70.5 68t116 27q39 0 76.5 -10t74.5 -43q13 -12 27.5 -29t26.5 -42.5t19.5 -61.5t7.5 -86zM444 255q0 12 -1.5 33.5t-7 46.5t-16 51
t-29 46.5t-46 34t-66.5 13.5q-76 0 -123 -56.5t-47 -162.5q0 -53 13 -94.5t35.5 -70t53.5 -43.5t68 -15q41 0 72 17t52 46.5t31.5 69t10.5 84.5zM243 634q0 -17 -12.5 -29.5t-29.5 -12.5q-18 0 -30.5 12.5t-12.5 29.5q0 18 12.5 30.5t30.5 12.5q17 0 29.5 -12.5t12.5 -30.5z
M395 634q0 -17 -12.5 -29.5t-30.5 -12.5q-17 0 -29.5 12.5t-12.5 29.5q0 18 12.5 30.5t29.5 12.5q18 0 30.5 -12.5t12.5 -30.5z" />
    <glyph glyph-name="divide" unicode="&#xf7;" horiz-adv-x="656" 
d="M363 555v-72h-72v72h72zM363 220v-72h-72v72h72zM590 374v-45h-523v45h523z" />
    <glyph glyph-name="oslash" unicode="&#xf8;" 
d="M117 9q-14 -18 -21 -25.5t-18 -7.5q-9 0 -13 6t-4 12q0 9 5 17t18 25l21 28q-8 9 -18.5 24.5t-20 38.5t-16 54.5t-6.5 74.5q0 42 9.5 90t35.5 89t71 68t116 27q56 0 88.5 -14.5t56.5 -33.5l13 18q11 16 20 24.5t20 8.5q8 0 13 -5.5t5 -12.5q0 -9 -6 -18t-16 -23l-18 -24
q29 -36 42 -83.5t13 -108.5q0 -84 -20.5 -132.5t-50.5 -77.5q-36 -35 -78.5 -47.5t-82.5 -12.5q-29 0 -51 4.5t-38.5 11.5t-28.5 15t-21 15zM170 80q14 -12 39.5 -27t68.5 -15q41 0 72 17t52 46t31.5 69t10.5 86q0 45 -9 81t-22 62zM386 436q-15 16 -31.5 25t-31.5 13
t-27.5 5t-18.5 1q-76 0 -122.5 -56.5t-46.5 -162.5q0 -38 7.5 -76t27.5 -70z" />
    <glyph glyph-name="ugrave" unicode="&#xf9;" 
d="M71 479q0 8 0.5 17t3.5 16.5t9 12.5t18 5t18 -4.5t8.5 -12t3 -16.5t0.5 -18v-282q0 -32 3.5 -59.5t17.5 -47.5q16 -23 42.5 -35.5t57.5 -12.5q43 0 83.5 24t60.5 68q11 23 14.5 58.5t3.5 101.5v185q0 8 0.5 17t3 16.5t8.5 12.5t18 5t18 -4.5t9 -12t3.5 -16.5t0.5 -18
v-440q0 -9 -0.5 -18t-3.5 -16.5t-9 -12t-18 -4.5t-18 4.5t-8.5 12t-3 16.5t-0.5 18v38q-11 -15 -25 -30.5t-33.5 -28.5t-46 -21.5t-62.5 -8.5q-30 0 -52.5 6t-39.5 14.5t-28.5 18t-17.5 16.5q-15 16 -23 35t-11.5 38t-4 36t-0.5 28v299zM205 677q-9 11 -15 18.5t-6 12.5
q0 8 26 8h29q11 0 18 -1.5t12 -5.5t9.5 -12t10.5 -21l25 -54q5 -11 7 -15.5t2 -9.5t-5.5 -12.5t-16.5 -7.5q-8 0 -12.5 4t-14.5 15z" />
    <glyph glyph-name="uacute" unicode="&#xfa;" 
d="M71 479q0 8 0.5 17t3.5 16.5t9 12.5t18 5t18 -4.5t8.5 -12t3 -16.5t0.5 -18v-282q0 -32 3.5 -59.5t17.5 -47.5q16 -23 42.5 -35.5t57.5 -12.5q43 0 83.5 24t60.5 68q11 23 14.5 58.5t3.5 101.5v185q0 8 0.5 17t3 16.5t8.5 12.5t18 5t18 -4.5t9 -12t3.5 -16.5t0.5 -18
v-440q0 -9 -0.5 -18t-3.5 -16.5t-9 -12t-18 -4.5t-18 4.5t-8.5 12t-3 16.5t-0.5 18v38q-11 -15 -25 -30.5t-33.5 -28.5t-46 -21.5t-62.5 -8.5q-30 0 -52.5 6t-39.5 14.5t-28.5 18t-17.5 16.5q-15 16 -23 35t-11.5 38t-4 36t-0.5 28v299zM279 596q-10 -11 -14.5 -15t-12.5 -4
q-11 0 -16.5 7.5t-5.5 12.5t2 9.5t7 15.5l25 54q6 13 10.5 21t9.5 12t12 5.5t18 1.5h29q26 0 26 -8q0 -5 -6 -12.5t-15 -18.5z" />
    <glyph glyph-name="ucircumflex" unicode="&#xfb;" 
d="M71 479q0 8 0.5 17t3.5 16.5t9 12.5t18 5t18 -4.5t8.5 -12t3 -16.5t0.5 -18v-282q0 -32 3.5 -59.5t17.5 -47.5q16 -23 42.5 -35.5t57.5 -12.5q43 0 83.5 24t60.5 68q11 23 14.5 58.5t3.5 101.5v185q0 8 0.5 17t3 16.5t8.5 12.5t18 5t18 -4.5t9 -12t3.5 -16.5t0.5 -18
v-440q0 -9 -0.5 -18t-3.5 -16.5t-9 -12t-18 -4.5t-18 4.5t-8.5 12t-3 16.5t-0.5 18v38q-11 -15 -25 -30.5t-33.5 -28.5t-46 -21.5t-62.5 -8.5q-30 0 -52.5 6t-39.5 14.5t-28.5 18t-17.5 16.5q-15 16 -23 35t-11.5 38t-4 36t-0.5 28v299zM389 620q4 -6 9.5 -13.5t5.5 -10.5
q0 -6 -5.5 -7t-13.5 -1q-20 0 -26 0.5t-12 3.5q-5 2 -12 11t-14 17l-44 58l-43 -58q-9 -11 -14 -17.5t-10 -9.5t-10.5 -4t-15.5 -1q-23 0 -29 1t-6 7q0 4 6.5 13t10.5 14l32 43q13 18 22.5 30t18 19t17 10t20.5 3t21 -3t17.5 -10.5t18 -19t22.5 -29.5z" />
    <glyph glyph-name="udieresis" unicode="&#xfc;" 
d="M71 479q0 8 0.5 17t3.5 16.5t9 12.5t18 5t18 -4.5t8.5 -12t3 -16.5t0.5 -18v-282q0 -32 3.5 -59.5t17.5 -47.5q16 -23 42.5 -35.5t57.5 -12.5q43 0 83.5 24t60.5 68q11 23 14.5 58.5t3.5 101.5v185q0 8 0.5 17t3 16.5t8.5 12.5t18 5t18 -4.5t9 -12t3.5 -16.5t0.5 -18
v-440q0 -9 -0.5 -18t-3.5 -16.5t-9 -12t-18 -4.5t-18 4.5t-8.5 12t-3 16.5t-0.5 18v38q-11 -15 -25 -30.5t-33.5 -28.5t-46 -21.5t-62.5 -8.5q-30 0 -52.5 6t-39.5 14.5t-28.5 18t-17.5 16.5q-15 16 -23 35t-11.5 38t-4 36t-0.5 28v299zM243 634q0 -17 -12.5 -29.5
t-29.5 -12.5q-18 0 -30.5 12.5t-12.5 29.5q0 18 12.5 30.5t30.5 12.5q17 0 29.5 -12.5t12.5 -30.5zM395 634q0 -17 -12.5 -29.5t-30.5 -12.5q-17 0 -29.5 12.5t-12.5 29.5q0 18 12.5 30.5t29.5 12.5q18 0 30.5 -12.5t12.5 -30.5z" />
    <glyph glyph-name="yacute" unicode="&#xfd;" horiz-adv-x="500" 
d="M422 495q7 17 13 26t20 9q12 0 20 -8.5t8 -16.5q0 -7 -2 -12t-7 -18l-228 -578q-14 -34 -28.5 -55t-30 -32.5t-31.5 -15.5t-32 -4q-9 0 -21.5 1t-23.5 5t-18.5 11t-7.5 19q0 10 6.5 19t20.5 9q6 0 20.5 -1t19.5 -1q29 0 42 15.5t24 41.5l36 91l-185 468q-5 14 -7 20
t-2 13q0 10 8 19.5t22 9.5q17 0 23.5 -11.5t13.5 -30.5l159 -418zM253 596q-10 -11 -14.5 -15t-12.5 -4q-11 0 -16.5 7.5t-5.5 12.5t2 9.5t7 15.5l25 54q6 13 10.5 21t9.5 12t12 5.5t18 1.5h29q26 0 26 -8q0 -5 -6 -12.5t-15 -18.5z" />
    <glyph glyph-name="thorn" unicode="&#xfe;" horiz-adv-x="615" 
d="M142 -159v-16t-2.5 -16.5t-8.5 -13t-18 -5.5t-18.5 4.5t-9.5 11.5t-3.5 16.5t-0.5 18.5v837q0 8 0.5 17t3.5 16.5t9 12t17 4.5t17.5 -4.5t9.5 -12t3.5 -16t0.5 -17.5v-244q10 13 25.5 29.5t38.5 31.5t55 25t75 10q64 0 108.5 -24.5t71.5 -63t39 -86t12 -92.5
q0 -35 -9 -82.5t-35 -90.5t-72 -73t-120 -30q-42 0 -73 9.5t-53.5 23.5t-37.5 30t-25 28v-238zM503 260q0 54 -14 95t-37.5 69t-55 42t-66.5 14q-36 0 -66 -11.5t-53 -30.5q-14 -11 -26.5 -26.5t-22 -37.5t-15 -52t-5.5 -71q0 -56 15 -96t40 -66t58.5 -38.5t69.5 -12.5
q34 0 66 13.5t57 41t40 69t15 98.5z" />
    <glyph glyph-name="ydieresis" unicode="&#xff;" horiz-adv-x="500" 
d="M422 495q7 17 13 26t20 9q12 0 20 -8.5t8 -16.5q0 -7 -2 -12t-7 -18l-228 -578q-14 -34 -28.5 -55t-30 -32.5t-31.5 -15.5t-32 -4q-9 0 -21.5 1t-23.5 5t-18.5 11t-7.5 19q0 10 6.5 19t20.5 9q6 0 20.5 -1t19.5 -1q29 0 42 15.5t24 41.5l36 91l-185 468q-5 14 -7 20
t-2 13q0 10 8 19.5t22 9.5q17 0 23.5 -11.5t13.5 -30.5l159 -418zM217 634q0 -17 -12.5 -29.5t-29.5 -12.5q-18 0 -30.5 12.5t-12.5 29.5q0 18 12.5 30.5t30.5 12.5q17 0 29.5 -12.5t12.5 -30.5zM369 634q0 -17 -12.5 -29.5t-30.5 -12.5q-17 0 -29.5 12.5t-12.5 29.5
q0 18 12.5 30.5t29.5 12.5q18 0 30.5 -12.5t12.5 -30.5z" />
    <glyph glyph-name="dotlessi" unicode="&#x131;" horiz-adv-x="219" 
d="M140 38q0 -17 -4 -33.5t-26 -16.5q-12 0 -18 4.5t-9 12t-3.5 16t-0.5 17.5v441q0 9 0.5 18t3.5 16.5t9 12t18 4.5q11 0 17 -5t9 -12.5t3.5 -16.5t0.5 -17v-441z" />
    <glyph glyph-name="OE" unicode="&#x152;" horiz-adv-x="1000" 
d="M612 396h276q8 0 17 -0.5t16.5 -3t12 -8.5t4.5 -17t-4.5 -17t-12 -9t-16 -3.5t-17.5 -0.5h-276v-278h316q8 0 17 -0.5t16 -3.5t11.5 -9t4.5 -17t-4.5 -17t-11.5 -8.5t-16 -3t-17 -0.5h-320q-19 0 -30.5 1.5t-17.5 7.5t-7.5 17.5t-1.5 30.5v37q-9 -12 -25 -30t-40.5 -35
t-60 -29t-83.5 -12q-58 0 -110 22t-91 67.5t-62 115.5t-23 165q0 96 22.5 166t61.5 115.5t91 67t110 21.5q50 0 86 -12.5t61 -29.5t40 -35t23 -30v38q0 19 2 30.5t8 17.5t17 7.5t30 1.5h304q8 0 17 -0.5t16.5 -3.5t12.5 -9t5 -17q0 -12 -4.5 -18t-12 -9t-16.5 -3.5t-18 -0.5
h-300v-259zM544 433q0 40 -7 82t-28 76t-59 56t-99 22q-15 0 -33.5 -1.5t-38 -7t-39.5 -17t-39 -32.5q-35 -38 -54.5 -97.5t-19.5 -154.5q0 -58 7.5 -100t19.5 -71.5t26 -49.5t27 -34q17 -19 53 -38t90 -19q17 0 37 2.5t40.5 10t39.5 20.5t34 34q16 23 25 51t13 54.5t4.5 48
t0.5 30.5v135z" />
    <glyph glyph-name="oe" unicode="&#x153;" horiz-adv-x="948" 
d="M517 249q1 -21 3.5 -43t8.5 -44t16.5 -43t27.5 -40q26 -27 52 -34t54 -7q42 0 69.5 12.5t44.5 29.5t25.5 35t12.5 30q2 5 8 14.5t22 9.5q12 0 18 -7t6 -17q0 -14 -9.5 -40t-33 -52t-64 -45.5t-102.5 -19.5q-49 0 -82 12t-55 29t-34 35t-18 29q-10 -13 -25 -31t-39 -34.5
t-57 -28t-79 -11.5q-53 0 -96 19.5t-73 55t-46 84.5t-16 109q0 28 4 61t16 65.5t33 62.5t55 53q11 8 39.5 20t85.5 12q13 0 35.5 -1.5t49.5 -11.5t56.5 -32t56.5 -62q21 34 44.5 55.5t47.5 32.5t49 15t49 4q56 0 98 -20t70 -53.5t42 -78t14 -93.5q0 -14 -5 -21t-13 -10.5
t-18.5 -4t-20.5 -0.5h-327zM837 299q0 10 -1.5 25t-5.5 32t-11.5 34.5t-20.5 33.5q-15 18 -31.5 28.5t-33 16t-31 7.5t-24.5 2q-4 0 -16.5 -1t-29.5 -6t-36 -15.5t-36 -30.5t-29 -50.5t-15 -75.5h321zM455 255q0 12 -1.5 33.5t-6.5 46.5t-16 51t-29 46.5t-45.5 34
t-66.5 13.5q-76 0 -123 -56.5t-47 -162.5q0 -53 13 -94.5t35.5 -70t53.5 -43.5t68 -15q41 0 72 17t51.5 46.5t31 69t10.5 84.5z" />
    <glyph glyph-name="Scaron" unicode="&#x160;" horiz-adv-x="615" 
d="M564 200q0 -39 -14.5 -77t-45.5 -68t-78.5 -48.5t-114.5 -18.5q-174 0 -233 120q-7 14 -16 39t-9 50q0 14 9.5 22.5t20.5 8.5q16 0 21 -9.5t7 -14.5q8 -24 13.5 -41t11 -29.5t12.5 -23t18 -20.5q29 -26 66 -36t71 -10q33 0 67.5 8t63.5 25.5t47.5 45.5t18.5 68
q0 39 -16 63.5t-39.5 39t-48.5 22t-43 11.5q-50 11 -82.5 18.5t-55 14.5t-37.5 14t-30 18q-12 8 -25 20.5t-23.5 30t-17.5 40t-7 51.5q0 39 14 74t43 61.5t72.5 42.5t103.5 16q19 0 47 -3t57 -13.5t56.5 -30t46.5 -51.5q12 -20 17.5 -42t5.5 -34q0 -19 -9.5 -28.5
t-21.5 -9.5q-18 0 -24 13.5t-9 24.5q-11 40 -32.5 63.5t-47 35.5t-50.5 15.5t-42 3.5q-37 0 -67 -10.5t-51.5 -28t-33 -41.5t-11.5 -51q0 -36 16.5 -59t40.5 -37.5t52.5 -22.5t52.5 -13q43 -9 71.5 -16.5t48 -14t33 -13t26.5 -13.5q27 -16 43.5 -36.5t25.5 -42t12 -41
t3 -32.5zM195 873q-4 6 -9.5 13.5t-5.5 10.5q0 6 5.5 7t13.5 1q20 0 26 -0.5t12 -3.5q5 -2 12 -11t14 -17l44 -58l43 58q9 11 14 17.5t10 9.5t10.5 4t15.5 1q23 0 29 -1t6 -7q0 -4 -6.5 -13t-10.5 -14l-32 -43q-14 -18 -23 -30t-17.5 -19t-17 -10t-20.5 -3t-21 3t-17.5 10.5
t-18 19t-22.5 29.5z" />
    <glyph glyph-name="scaron" unicode="&#x161;" horiz-adv-x="500" 
d="M454 145q0 -16 -6.5 -42.5t-28 -52t-63 -44t-110.5 -18.5q-31 0 -54 4t-40.5 10t-30 14t-21.5 16q-24 21 -39 48.5t-15 49.5q0 13 9.5 20.5t20.5 7.5q14 0 20 -10t11 -23q13 -30 32 -47.5t39 -26.5t39.5 -11t32.5 -2q37 0 63.5 8.5t43.5 22.5t25.5 31.5t8.5 35.5
q0 24 -11.5 40t-27.5 26.5t-33.5 16t-29.5 8.5q-39 11 -67.5 18t-49.5 13.5t-37 13.5t-31 18q-19 14 -33.5 38t-14.5 57q0 12 5.5 36t24.5 48.5t55 42.5t97 18q65 0 103 -18.5t57 -41.5t24 -43.5t5 -23.5q0 -2 -1 -6t-4 -8.5t-8.5 -8t-14.5 -3.5q-10 0 -16 5.5t-13 25.5
q-12 35 -47.5 53.5t-81.5 18.5q-25 0 -47.5 -5t-40 -15.5t-27.5 -26t-10 -36.5q0 -35 25 -52.5t62.5 -29t81.5 -20.5t81.5 -25.5t62.5 -45t25 -79.5zM138 684q-4 6 -9.5 13.5t-5.5 10.5q0 6 5.5 7t13.5 1q20 0 26 -0.5t12 -3.5q5 -2 12 -11t14 -17l44 -58l43 58
q9 11 14 17.5t10 9.5t10.5 4t15.5 1q23 0 29 -1t6 -7q0 -4 -6.5 -13t-10.5 -14l-32 -43q-14 -18 -23 -30t-17.5 -19t-17 -10t-20.5 -3t-21 3t-17.5 10.5t-18 19t-22.5 29.5z" />
    <glyph glyph-name="Ydieresis" unicode="&#x178;" horiz-adv-x="615" 
d="M307 372l211 325q12 19 18 25t19 6q15 0 23.5 -10t8.5 -20t-4 -17t-12 -19l-234 -353v-265q0 -9 -0.5 -19t-3.5 -18.5t-10 -13.5t-20 -5t-20 5t-10 13.5t-3.5 18.5t-0.5 19v265l-223 348q-8 13 -12.5 21t-4.5 18q0 13 9 22.5t23 9.5t21.5 -7t21.5 -30zM274 823
q0 -17 -12.5 -29.5t-29.5 -12.5q-18 0 -30.5 12.5t-12.5 29.5q0 18 12.5 30.5t30.5 12.5q17 0 29.5 -12.5t12.5 -30.5zM426 823q0 -17 -12.5 -29.5t-30.5 -12.5q-17 0 -29.5 12.5t-12.5 29.5q0 18 12.5 30.5t29.5 12.5q18 0 30.5 -12.5t12.5 -30.5z" />
    <glyph glyph-name="Zcaron" unicode="&#x17d;" horiz-adv-x="615" 
d="M102 657q-8 0 -16.5 0.5t-15.5 3.5t-11.5 9t-4.5 17t4.5 17t11.5 8.5t15.5 3t16.5 0.5h420q10 0 20.5 -0.5t18.5 -4t13.5 -10.5t5.5 -20q0 -9 -4 -16t-17 -24l-455 -581l441 -1q8 0 17 -0.5t16 -3.5t11.5 -9t4.5 -17t-4.5 -17t-11.5 -8.5t-16 -3t-17 -0.5h-465
q-25 0 -34 1t-17 9q-13 12 -13 29q0 10 5 17.5t19 25.5l448 575h-386zM195 873q-4 6 -9.5 13.5t-5.5 10.5q0 6 5.5 7t13.5 1q20 0 26 -0.5t12 -3.5q5 -2 12 -11t14 -17l44 -58l43 58q9 11 14 17.5t10 9.5t10.5 4t15.5 1q23 0 29 -1t6 -7q0 -4 -6.5 -13t-10.5 -14l-32 -43
q-14 -18 -23 -30t-17.5 -19t-17 -10t-20.5 -3t-21 3t-17.5 10.5t-18 19t-22.5 29.5z" />
    <glyph glyph-name="zcaron" unicode="&#x17e;" horiz-adv-x="500" 
d="M71 468q-14 0 -28 3t-14 22t14 22t28 3h333q23 0 31 -1t16 -9q5 -5 7.5 -10.5t2.5 -10.5q0 -8 -3.5 -13t-19.5 -23l-337 -397h344q15 0 29.5 -4t14.5 -23q0 -20 -14.5 -23.5t-29.5 -3.5h-381q-9 0 -18.5 0.5t-17 3.5t-12 9.5t-4.5 18.5q0 8 4.5 14.5t16.5 20.5l343 401
h-305zM138 684q-4 6 -9.5 13.5t-5.5 10.5q0 6 5.5 7t13.5 1q20 0 26 -0.5t12 -3.5q5 -2 12 -11t14 -17l44 -58l43 58q9 11 14 17.5t10 9.5t10.5 4t15.5 1q23 0 29 -1t6 -7q0 -4 -6.5 -13t-10.5 -14l-32 -43q-14 -18 -23 -30t-17.5 -19t-17 -10t-20.5 -3t-21 3t-17.5 10.5
t-18 19t-22.5 29.5z" />
    <glyph glyph-name="florin" unicode="&#x192;" 
d="M376 353q25 0 36 -2.5t11 -18.5q0 -17 -10.5 -20t-36.5 -3h-64l-85 -392q-6 -29 -15 -52t-24.5 -40t-39 -26t-59.5 -9q-6 0 -19 0.5t-26 3.5t-23 10t-10 20q0 9 7 17t19 8q3 0 11 -1t16.5 -1.5t16 -1.5t10.5 -1q6 0 14 1t17 4.5t17.5 11t14.5 20.5q3 7 4.5 12t4.5 16
t8 32t13 59l66 309h-28q-24 0 -35.5 2.5t-11.5 19.5t10.5 19.5t36.5 2.5h38l48 217q7 32 15 60.5t23 50.5t40 34.5t65 12.5q3 0 16 -0.5t27.5 -4t26 -10.5t11.5 -20q0 -8 -6.5 -15.5t-20.5 -7.5q-3 0 -10 0.5t-15 1.5t-15 1.5t-10 0.5q-18 0 -30 -4.5t-19.5 -10.5
t-11.5 -12.5t-5 -10.5q-1 -3 -4 -11.5t-6 -18.5t-6 -19.5t-4 -14.5l-47 -219h54z" />
    <glyph glyph-name="circumflex" unicode="&#x2c6;" horiz-adv-x="333" 
d="M279 620q4 -6 9.5 -13.5t5.5 -10.5q0 -6 -5.5 -7t-13.5 -1q-20 0 -26 0.5t-12 3.5q-5 2 -12 11t-14 17l-44 58l-43 -58q-9 -11 -14 -17.5t-10 -9.5t-10.5 -4t-15.5 -1q-23 0 -29 1t-6 7q0 4 6.5 13t10.5 14l32 43q13 18 22.5 30t18 19t17 10t20.5 3t21 -3t17.5 -10.5
t18 -19t22.5 -29.5z" />
    <glyph glyph-name="caron" unicode="&#x2c7;" horiz-adv-x="333" 
d="M54 684q-4 6 -9.5 13.5t-5.5 10.5q0 6 5.5 7t13.5 1q20 0 26 -0.5t12 -3.5q5 -2 12 -11t14 -17l44 -58l43 58q9 11 14 17.5t10 9.5t10.5 4t15.5 1q23 0 29 -1t6 -7q0 -4 -6.5 -13t-10.5 -14l-32 -43q-14 -18 -23 -30t-17.5 -19t-17 -10t-20.5 -3t-21 3t-17.5 10.5t-18 19
t-22.5 29.5z" />
    <glyph glyph-name="ring" unicode="&#x2da;" horiz-adv-x="333" 
d="M254 652q0 -37 -25.5 -62.5t-61.5 -25.5q-37 0 -62.5 25.5t-25.5 62.5q0 36 25.5 62t62.5 26q36 0 61.5 -26t25.5 -62zM221 652q0 23 -15.5 39t-38.5 16t-39 -16t-16 -39t16 -39t39 -16t38.5 16t15.5 39z" />
    <glyph glyph-name="tilde" unicode="&#x2dc;" horiz-adv-x="333" 
d="M283 692q8 0 15 -7.5t7 -24.5q0 -15 -5.5 -26t-14.5 -18t-19 -10.5t-19 -3.5q-7 0 -13 0.5t-14.5 2.5t-22 7t-35.5 13q-14 5 -32.5 10.5t-32.5 5.5q-19 0 -27 -18q-3 -7 -7 -13t-12 -6t-15.5 8t-7.5 24q0 20 16 39t43 19q7 0 13.5 -1t16.5 -3.5t26.5 -7.5t43.5 -14
q28 -9 35.5 -11t14.5 -2q8 0 13.5 3t12.5 15q4 7 7.5 13t12.5 6z" />
    <glyph glyph-name="endash" unicode="&#x2013;" horiz-adv-x="500" 
d="M506 273v-46h-512v46h512z" />
    <glyph glyph-name="emdash" unicode="&#x2014;" horiz-adv-x="1000" 
d="M1006 273v-46h-1012v46h1012z" />
    <glyph glyph-name="quoteleft" unicode="&#x2018;" horiz-adv-x="219" 
d="M112 626q16 -2 25.5 -8t14 -13.5t5.5 -14.5t1 -10q0 -19 -13.5 -32.5t-32.5 -13.5t-29 9t-14.5 20.5t-5.5 22.5t-1 16q0 25 5.5 48t14 40.5t19 27.5t19.5 10t15 -6t6 -14q0 -5 -2.5 -8.5t-11.5 -17.5q-3 -5 -9.5 -20t-5.5 -36z" />
    <glyph glyph-name="quoteright" unicode="&#x2019;" horiz-adv-x="219" 
d="M107 636q-17 2 -26 8t-13.5 13.5t-5.5 14.5t-1 10q0 19 13.5 32.5t32.5 13.5t29 -9t14.5 -20.5t5.5 -23t1 -15.5q0 -26 -5.5 -48.5t-14 -40t-19 -27.5t-19.5 -10t-15 6t-6 14q0 5 2.5 8.5t11.5 17.5q3 5 9.5 20t5.5 36z" />
    <glyph glyph-name="quotesinglbase" unicode="&#x201a;" horiz-adv-x="219" 
d="M107 -12q-17 2 -26 8t-13.5 13.5t-5.5 14.5t-1 10q0 19 13.5 32.5t32.5 13.5t29 -9t14.5 -20.5t5.5 -23t1 -15.5q0 -26 -5.5 -48.5t-14 -40t-19 -27.5t-19.5 -10t-15 6t-6 14q0 5 2.5 8.5t11.5 17.5q3 5 9.5 20t5.5 36z" />
    <glyph glyph-name="quotedblleft" unicode="&#x201c;" horiz-adv-x="385" 
d="M111 626q16 -2 25.5 -8t14 -13.5t5.5 -14.5t1 -10q0 -19 -13.5 -32.5t-32.5 -13.5t-29 9t-14.5 20.5t-5.5 22.5t-1 16q0 25 5.5 48t14 40.5t19 27.5t19.5 10t15 -6t6 -14q0 -5 -2.5 -8.5t-11.5 -17.5q-3 -5 -9.5 -20t-5.5 -36zM281 626q16 -2 25.5 -8t14 -13.5t5.5 -14.5
t1 -10q0 -19 -13.5 -32.5t-32.5 -13.5t-29 9t-14.5 20.5t-5.5 22.5t-1 16q0 25 5.5 48t14 40.5t19 27.5t19.5 10t15 -6t6 -14q0 -5 -2.5 -8.5t-11.5 -17.5q-3 -5 -9.5 -20t-5.5 -36z" />
    <glyph glyph-name="quotedblright" unicode="&#x201d;" horiz-adv-x="385" 
d="M277 636q-17 2 -26 8t-13.5 13.5t-5.5 14.5t-1 10q0 19 13.5 32.5t32.5 13.5t29 -9t14.5 -20.5t5.5 -23t1 -15.5q0 -26 -5.5 -48.5t-14 -40t-19 -27.5t-19.5 -10t-15 6t-6 14q0 5 2.5 8.5t11.5 17.5q3 5 9.5 20t5.5 36zM107 636q-17 2 -26 8t-13.5 13.5t-5.5 14.5t-1 10
q0 19 13.5 32.5t32.5 13.5t29 -9t14.5 -20.5t5.5 -23t1 -15.5q0 -26 -5.5 -48.5t-14 -40t-19 -27.5t-19.5 -10t-15 6t-6 14q0 5 2.5 8.5t11.5 17.5q3 5 9.5 20t5.5 36z" />
    <glyph glyph-name="quotedblbase" unicode="&#x201e;" horiz-adv-x="385" 
d="M277 -12q-17 2 -26 8t-13.5 13.5t-5.5 14.5t-1 10q0 19 13.5 32.5t32.5 13.5t29 -9t14.5 -20.5t5.5 -23t1 -15.5q0 -26 -5.5 -48.5t-14 -40t-19 -27.5t-19.5 -10t-15 6t-6 14q0 5 2.5 8.5t11.5 17.5q3 5 9.5 20t5.5 36zM107 -12q-17 2 -26 8t-13.5 13.5t-5.5 14.5t-1 10
q0 19 13.5 32.5t32.5 13.5t29 -9t14.5 -20.5t5.5 -23t1 -15.5q0 -26 -5.5 -48.5t-14 -40t-19 -27.5t-19.5 -10t-15 6t-6 14q0 5 2.5 8.5t11.5 17.5q3 5 9.5 20t5.5 36z" />
    <glyph glyph-name="dagger" unicode="&#x2020;" 
d="M74 435q-8 0 -15.5 0.5t-14.5 3t-11 7.5t-4 15q0 21 15 24.5t30 3.5h171v177q0 9 0.5 18t3.5 17t9 13t18 5t18.5 -5t9.5 -12.5t3.5 -17t0.5 -18.5v-177h170q15 0 30 -3.5t15 -23.5t-15 -23.5t-30 -3.5h-170v-565q0 -9 -0.5 -18t-3.5 -17t-9 -13t-18 -5t-18.5 5t-9.5 12.5
t-3.5 17t-0.5 18.5v565h-171z" />
    <glyph glyph-name="daggerdbl" unicode="&#x2021;" 
d="M75 25q-15 0 -30.5 3.5t-15.5 23.5q0 21 15 24t31 3h170v379h-171q-7 0 -15 0.5t-14.5 3t-11 8t-4.5 15.5q0 20 15 23.5t30 3.5h171v155q0 9 0.5 18t3.5 16.5t9 12.5t18 5t18.5 -5t9.5 -12.5t3.5 -16.5t0.5 -18v-155h170q15 0 30 -3.5t15 -23.5t-15 -23.5t-30 -3.5h-170
v-379h169q15 0 30.5 -3t15.5 -23q0 -21 -15 -24.5t-31 -3.5h-169v-155q0 -9 -0.5 -18t-3.5 -16.5t-9 -12.5t-18 -5q-24 0 -28 17t-4 35v155h-170z" />
    <glyph glyph-name="bullet" unicode="&#x2022;" horiz-adv-x="354" 
d="M299 350q0 -26 -9.5 -48t-26 -38.5t-39 -26t-47.5 -9.5t-47.5 9.5t-39 26t-26 38.5t-9.5 48q0 25 9.5 47.5t26 39t39 26t47.5 9.5t47.5 -9.5t39 -26t26 -39t9.5 -47.5z" />
    <glyph glyph-name="ellipsis" unicode="&#x2026;" horiz-adv-x="1000" 
d="M545 33q0 -19 -13 -32t-32 -13t-32 13t-13 32t13 32.5t32 13.5t32 -13.5t13 -32.5zM212 33q0 -19 -13 -32t-32 -13t-32 13t-13 32t13 32.5t32 13.5t32 -13.5t13 -32.5zM878 33q0 -19 -13 -32t-32 -13q-18 0 -31.5 13t-13.5 32t13.5 32.5t31.5 13.5q19 0 32 -13.5
t13 -32.5z" />
    <glyph glyph-name="perthousand" unicode="&#x2030;" horiz-adv-x="1271" 
d="M1208 163q0 -16 -2 -36t-7 -41t-15 -41t-26 -35q-18 -17 -43 -26.5t-54 -9.5q-25 0 -51 9.5t-47 31t-34.5 56.5t-13.5 87q0 54 13.5 91t34.5 59.5t47 32t51 9.5q27 0 53.5 -10t47 -32t33.5 -57.5t13 -87.5zM1154 162q0 25 -3.5 51t-13.5 46t-27.5 33t-45.5 13
q-29 0 -47.5 -12.5t-29 -32.5t-14.5 -45.5t-4 -50.5q0 -22 3 -47.5t13 -47t28.5 -36t49.5 -14.5q32 0 50.5 16t27.5 38.5t11 47t2 41.5zM807 163q0 -16 -2 -36t-7 -41t-15 -41t-26 -35q-18 -17 -43 -26.5t-54 -9.5q-25 0 -51 9.5t-47 31t-34.5 56.5t-13.5 87q0 54 13.5 91
t34.5 59.5t47 32t51 9.5q27 0 53.5 -10t47 -32t33.5 -57.5t13 -87.5zM753 162q0 25 -3.5 51t-13.5 46t-27.5 33t-45.5 13q-29 0 -47.5 -12.5t-29 -32.5t-14.5 -45.5t-4 -50.5q0 -22 3 -47.5t13 -47t28.5 -36t49.5 -14.5q32 0 50.5 16t27.5 38.5t11 47t2 41.5zM355 541
q0 -16 -2 -36t-7 -41t-15 -41t-26 -35q-18 -17 -43 -26.5t-54 -9.5q-25 0 -51 9.5t-47 31t-34.5 56.5t-13.5 87q0 54 13.5 91t34.5 59.5t47 32t51 9.5q27 0 53.5 -10t47 -32t33.5 -57.5t13 -87.5zM301 540q0 25 -3.5 51t-13.5 46t-27.5 33t-45.5 13q-29 0 -47.5 -12.5
t-29 -32.5t-14.5 -45.5t-4 -50.5q0 -22 3 -47.5t13 -47t28.5 -36t49.5 -14.5q32 0 50.5 16t27.5 38.5t11 47t2 41.5zM258 -13q-7 -13 -11.5 -18.5t-14.5 -5.5q-11 0 -16.5 7t-5.5 13t2.5 11l7.5 15l391 706q7 13 11.5 18.5t14.5 5.5q11 0 17 -7.5t6 -13.5q0 -8 -10 -25z" />
    <glyph glyph-name="guilsinglleft" unicode="&#x2039;" horiz-adv-x="385" 
d="M271 77q4 -8 8 -15t4 -14q0 -6 -6 -14.5t-20 -8.5q-10 0 -15.5 6t-13.5 20l-106 170q-11 17 -13.5 21.5t-2.5 8.5t2.5 9t13.5 22l106 170q8 14 13.5 20t15.5 6q13 0 19.5 -8.5t6.5 -14.5q0 -7 -4 -15t-8 -14l-104 -175z" />
    <glyph glyph-name="guilsinglright" unicode="&#x203a;" horiz-adv-x="385" 
d="M114 426q-4 8 -8 15t-4 14q0 6 6 14.5t20 8.5q10 0 15.5 -6t13.5 -20l106 -170q11 -17 13.5 -21.5t2.5 -8.5t-2.5 -9t-13.5 -22l-106 -170q-9 -14 -14 -20t-15 -6q-13 0 -19.5 8.5t-6.5 14.5q0 7 4 15t8 14l104 175z" />
    <glyph glyph-name="Euro" unicode="&#x20ac;" horiz-adv-x="556" 
d="M524 658q0 -11 -4.5 -19t-18.5 -8q-6 0 -16.5 5.5t-27 12t-39 12t-51.5 5.5q-28 0 -65 -12.5t-72.5 -40.5t-64 -74.5t-39.5 -113.5h315q14 0 22.5 -5.5t8.5 -20.5q0 -20 -30 -20h-321q-1 -7 -1 -14v-15q0 -6 0.5 -12t0.5 -12h294q14 0 23.5 -5t9.5 -19q0 -12 -9 -17
t-21 -5h-293q8 -57 30 -102t53.5 -76t70 -47.5t80.5 -16.5q34 0 58 5.5t40 12.5t26 12.5t17 5.5q18 0 18 -22q0 -21 -22 -33.5t-49.5 -19.5t-52.5 -9t-31 -2q-74 0 -127.5 25.5t-90 67t-57 94t-27.5 105.5h-23q-11 0 -20 4t-9 19q0 14 7 18.5t21 4.5h20q0 6 -0.5 12.5
t-0.5 12.5q0 8 0.5 14.5t0.5 13.5h-19q-9 0 -19 3.5t-10 18.5q0 14 8 19t22 5h22q10 75 40.5 129.5t72.5 90.5t91 53.5t97 17.5q29 0 58 -5t52 -13.5t37.5 -19t14.5 -20.5z" />
    <glyph glyph-name="trademark" unicode="&#x2122;" horiz-adv-x="938" 
d="M362 716v-43h-131v-356h-49v356h-130v43h310zM483 716l100 -319l103 319h76v-399h-44v356l-119 -356h-34l-112 356v-356h-45v399h75z" />
    <glyph glyph-name="glyph223" horiz-adv-x="0" 
 />
    </font>
</defs>
</svg>
